<svg xmlns="http://www.w3.org/2000/svg" viewBox="0 0 512 512"><defs><style>.cls-1{fill:#a46532;}.cls-2{fill:#9d5d27;}.cls-3{fill:#c88d58;}.cls-4{fill:#874b17;}.cls-5{fill:#d79e68;}.cls-6{fill:#ba753c;}</style></defs><g id="Layer_2" data-name="Layer 2"><g id="Layer_1-2" data-name="Layer 1"><rect class="cls-1" width="512" height="512"/><path class="cls-2" d="M84.13,399.6s19.14-10.85,31.9-8.3,28.7,15.31,42.09,16.59,61.24-.64,62.51,8.93S206,432.13,191.29,430.21s-35.08-4.37-44,.37-23,9.93-37,0S81,416.82,76.48,416.82,66.93,406.66,84.13,399.6Z"/><path class="cls-2" d="M50.72,59s9.57-5.42,16-4.15,14.35,7.65,21,8.29,30.62-.32,31.25,4.47-7.33,7.65-14.67,6.7-17.54-2.19-22,.18-11.48,5-18.5,0-14.67-6.88-16.9-6.88S42.12,62.54,50.72,59Z"/><path class="cls-2" d="M358.78,126.47c0,11.82,17,6.62,21.74,10.4s1.41,11.81,17.48,11.81,50.07-28.82,50.07-45.83-.94-11.34-6.14-10.86-15.12,16.77-28.34,16.77-23.63,4.49-31.66,4.49S358.78,111.36,358.78,126.47Z"/><path class="cls-2" d="M399.14,350.92c-2.63-8.89-19-14.13-25.95-16-8.49-2.25-9.22-11.05-9.28-12.59a88.3,88.3,0,0,0,3.15-21c2.23-.5,4.47-1,6.65-1.42l3.76-.78c12.1-2.56,24.13-24.37,24.63-25.3a1.49,1.49,0,1,0-2.62-1.43c-.12.21-11.87,21.53-22.63,23.81l-3.74.77c-11.12,2.29-22.62,4.66-28.33,10.28a1.49,1.49,0,0,0,0,2.11,1.43,1.43,0,0,0,.94.44,1.45,1.45,0,0,0,1.17-.42c3.5-3.44,10.08-5.63,17.16-7.35-.18,4.27-1,14.87-4.21,22.91a79.72,79.72,0,0,1-5.23,10.23c-3.26,5.66-6.63,11.52-8.39,20.75-1.53,8.08.06,16.44,1.35,23.17,1,5.26,1.86,9.8.94,12.4a13.72,13.72,0,0,1-7.66,7.85,1.49,1.49,0,0,0,.37,2.9,1.41,1.41,0,0,0,.6-.08,16.52,16.52,0,0,0,9.51-9.67c1.19-3.36.25-8.27-.83-14-1.3-6.81-2.77-14.54-1.34-22.05.16-.83.34-1.6.52-2.37a27.78,27.78,0,0,0,8.17,12.08,46,46,0,0,1,15.52,33.21,1.5,1.5,0,0,0,1.37,1.46h.16a1.49,1.49,0,0,0,1.46-1.53,49,49,0,0,0-16.51-35.36c-8.39-7.57-8.27-15.12-8.19-16.33a78.22,78.22,0,0,1,5.54-11,93.17,93.17,0,0,0,4.76-9.11,14.84,14.84,0,0,0,10.48,10.21c10.35,2.75,22.05,7.85,23.85,13.93a1.52,1.52,0,0,0,1.86,1A1.51,1.51,0,0,0,399.14,350.92Z"/><path class="cls-2" d="M153.14,213.12c.68-5.75-7.43-12.8-10.94-15.56-4.32-3.39-2.57-8.61-2.22-9.51a55.13,55.13,0,0,0,7-11.25c1.41.27,2.81.55,4.17.83l2.34.48c7.58,1.52,19.86-8,20.37-8.43a.93.93,0,1,0-1.15-1.47c-.12.09-12.12,9.42-18.85,8.07l-2.33-.47c-6.95-1.43-14.13-2.91-18.79-1.1a.93.93,0,0,0-.53,1.21.94.94,0,0,0,1.21.53c2.85-1.11,7.17-.74,11.65,0-1.16,2.4-4.22,8.29-8.06,12.1a49,49,0,0,1-5.53,4.57,38.2,38.2,0,0,0-9.92,9.84c-2.88,4.25-4,9.44-5,13.61-.72,3.27-1.35,6.09-2.51,7.35a8.57,8.57,0,0,1-6.34,2.61.93.93,0,0,0-1,.87.92.92,0,0,0,.49.89.88.88,0,0,0,.36.1,10.31,10.31,0,0,0,7.85-3.2c1.51-1.63,2.18-4.68,3-8.21.94-4.23,2-9,4.67-13,.3-.44.59-.83.89-1.23a17.25,17.25,0,0,0,1.7,9,28.69,28.69,0,0,1,.71,22.87.93.93,0,0,0,.43,1.17l.09.05a.93.93,0,0,0,1.21-.52,30.55,30.55,0,0,0-.74-24.35c-3-6.42-1-10.71-.67-11.39a48,48,0,0,1,5.88-4.93,59.51,59.51,0,0,0,5-4A9.26,9.26,0,0,0,141,199c5.26,4.13,10.71,9.94,10.25,13.87a.91.91,0,0,0,.48.93.75.75,0,0,0,.33.1A.93.93,0,0,0,153.14,213.12Z"/><path class="cls-3" d="M126.05,392.51s8.39-13.73,17.16-10.3,10.3,16.78,6.1,21.74-11.06,11.82-17.92,7.63-11.83-5.72-13-9.16S124.12,395.22,126.05,392.51Z"/><path class="cls-4" d="M135.79,413.58a9.06,9.06,0,0,1-4.78-1.39c-2-1.22-3.82-2.21-5.44-3.09-4-2.18-6.93-3.75-7.83-6.45s2.13-5.4,4.82-7.73a19.54,19.54,0,0,0,2.89-2.81c.52-.84,8.88-14.14,18-10.57,4,1.56,7,5.27,8.21,10.18s.5,10-1.82,12.69C147.73,406.93,142.1,413.58,135.79,413.58Zm4.53-31.2c-7.14,0-13.59,10.38-13.66,10.5l0,0a20.05,20.05,0,0,1-3.14,3.09c-2.35,2-5,4.33-4.39,6.19.72,2.16,3.28,3.55,7.15,5.64,1.64.89,3.49,1.89,5.51,3.13,6.31,3.85,12.73-2.43,17-7.48,2-2.36,2.62-7.06,1.52-11.41s-3.81-7.82-7.34-9.2A7,7,0,0,0,140.32,382.38Z"/><path class="cls-5" d="M136.58,394.22s3.67-6,7.51-4.5,4.51,7.34,2.67,9.51-4.84,5.18-7.84,3.34-5.18-2.5-5.68-4S135.74,395.41,136.58,394.22Z"/><path class="cls-6" d="M124.66,402.16c2,1.4,4,2.29,6,3.71a.85.85,0,0,1-.62,1.54,19.14,19.14,0,0,1-5.53-1.88c-4.08-2.16-1.1-7.66,1.11-7.32C126.66,398.37,123.28,401,124.66,402.16Z"/><path class="cls-3" d="M89.59,68.53s3.79-6.2,7.75-4.65,4.65,7.58,2.76,9.82S95.1,79,92,77.14,86.66,74.56,86.15,73,88.72,69.76,89.59,68.53Z"/><path class="cls-4" d="M94,78.05a4.09,4.09,0,0,1-2.15-.63c-.9-.55-1.73-1-2.46-1.39-1.82-1-3.13-1.7-3.54-2.92s1-2.44,2.18-3.49a8.78,8.78,0,0,0,1.3-1.27c.24-.38,4-6.38,8.14-4.77a6.43,6.43,0,0,1,3.71,4.6c.55,2.19.22,4.49-.82,5.73S96.84,78.05,94,78.05ZM96,64c-3.23,0-6.14,4.69-6.17,4.74v0a9.43,9.43,0,0,1-1.42,1.39c-1.06.92-2.26,2-2,2.8s1.49,1.6,3.24,2.55c.73.4,1.57.85,2.48,1.41,2.85,1.74,5.75-1.1,7.68-3.38.9-1.07,1.19-3.19.69-5.15a5.81,5.81,0,0,0-3.31-4.16A3.38,3.38,0,0,0,96,64Z"/><path class="cls-5" d="M94.35,69.31s1.66-2.72,3.39-2A3.08,3.08,0,0,1,99,71.57c-.83,1-2.19,2.34-3.55,1.51S93.07,72,92.84,71.27,94,69.84,94.35,69.31Z"/><path class="cls-6" d="M89,72.89c.91.63,1.83,1,2.73,1.68a.38.38,0,0,1-.28.69,8.41,8.41,0,0,1-2.5-.85c-1.83-1-.49-3.46.51-3.3C89.87,71.18,88.34,72.38,89,72.89Z"/><path class="cls-3" d="M416.53,133.06s5.16-8.44,10.56-6.33,6.33,10.32,3.75,13.37-6.8,7.28-11,4.7-7.28-3.52-8-5.64S415.35,134.73,416.53,133.06Z"/><path class="cls-4" d="M422.53,146a5.47,5.47,0,0,1-2.94-.86c-1.23-.75-2.36-1.36-3.35-1.9-2.48-1.34-4.27-2.31-4.82-4s1.31-3.32,3-4.75a12.36,12.36,0,0,0,1.78-1.73c.32-.52,5.47-8.7,11.09-6.5a8.76,8.76,0,0,1,5.05,6.26c.75,3,.3,6.13-1.12,7.81S426.41,146,422.53,146Zm2.78-19.2c-4.39,0-8.36,6.39-8.4,6.46l0,0a12.45,12.45,0,0,1-1.93,1.9c-1.45,1.25-3.08,2.66-2.7,3.8.44,1.34,2,2.19,4.4,3.48,1,.54,2.14,1.16,3.39,1.92,3.88,2.37,7.82-1.49,10.46-4.6,1.23-1.45,1.61-4.34.93-7a7.87,7.87,0,0,0-4.51-5.66A4.43,4.43,0,0,0,425.31,126.83Z"/><path class="cls-5" d="M423,134.12s2.26-3.7,4.62-2.77,2.77,4.52,1.64,5.85-3,3.18-4.82,2.05-3.19-1.54-3.49-2.46S422.49,134.85,423,134.12Z"/><path class="cls-6" d="M415.67,139c1.24.86,2.49,1.41,3.72,2.29a.52.52,0,0,1-.38.94,11.78,11.78,0,0,1-3.4-1.15c-2.51-1.33-.68-4.72.68-4.51C416.91,136.67,414.83,138.31,415.67,139Z"/><path class="cls-2" d="M21.81,24.36s.44-2.84,1.86-2.6,1.64,2,2.85,2.6-2.41,1.53-3.18,1.53S21.81,24.36,21.81,24.36Z"/><path class="cls-2" d="M67.51,40.22s.44-2.84,1.87-2.6,1.64,2,2.84,2.6-2.41,1.53-3.17,1.53S67.51,40.22,67.51,40.22Z"/><path class="cls-2" d="M46.1,48.77a2.39,2.39,0,0,1,.44,2.63c-.63,1.67-1.47,1.66-2.17,3s.22-3.12.5-4A3.64,3.64,0,0,1,46.1,48.77Z"/><path class="cls-2" d="M11.4,1.08a4.28,4.28,0,0,1-4,3.05c-3.29.18-4-1.48-6.8-1.71S6,.24,7.72,0A6.47,6.47,0,0,1,11.4,1.08Z"/><path class="cls-2" d="M63,18.8A2.1,2.1,0,0,1,60.81,20c-1.66-.21-1.88-1.1-3.27-1.47s2.85-.6,3.75-.55A3.36,3.36,0,0,1,63,18.8Z"/><path class="cls-2" d="M3.62,45.48s5,2.47,3.91,4.34-4.37,1-6,2.35S-.19,47.75.15,46.66,3.62,45.48,3.62,45.48Z"/><path class="cls-2" d="M109.72,24.36s.43-2.84,1.86-2.6,1.64,2,2.84,2.6-2.4,1.53-3.17,1.53S109.72,24.36,109.72,24.36Z"/><path class="cls-2" d="M155.42,40.22s.44-2.84,1.86-2.6,1.65,2,2.85,2.6-2.41,1.53-3.18,1.53S155.42,40.22,155.42,40.22Z"/><path class="cls-2" d="M134,48.77a2.39,2.39,0,0,1,.44,2.63c-.63,1.67-1.48,1.66-2.18,3s.23-3.12.51-4A3.64,3.64,0,0,1,134,48.77Z"/><path class="cls-2" d="M99.3,1.08a4.27,4.27,0,0,1-4,3.05c-3.29.18-4-1.48-6.81-1.71S93.87.24,95.63,0A6.42,6.42,0,0,1,99.3,1.08Z"/><path class="cls-2" d="M151,18.8A2.11,2.11,0,0,1,148.71,20c-1.66-.21-1.87-1.1-3.26-1.47s2.85-.6,3.74-.55A3.36,3.36,0,0,1,151,18.8Z"/><path class="cls-2" d="M91.52,45.48s5,2.47,3.92,4.34-4.38,1-6,2.35-1.74-4.42-1.4-5.51S91.52,45.48,91.52,45.48Z"/><path class="cls-2" d="M197.62,24.36s.44-2.84,1.86-2.6,1.65,2,2.85,2.6-2.41,1.53-3.17,1.53S197.62,24.36,197.62,24.36Z"/><path class="cls-2" d="M243.33,40.22s.44-2.84,1.86-2.6,1.64,2,2.85,2.6-2.41,1.53-3.18,1.53S243.33,40.22,243.33,40.22Z"/><path class="cls-2" d="M221.92,48.77a2.41,2.41,0,0,1,.44,2.63c-.63,1.67-1.48,1.66-2.18,3s.22-3.12.51-4A3.64,3.64,0,0,1,221.92,48.77Z"/><path class="cls-2" d="M187.21,1.08a4.27,4.27,0,0,1-4,3.05c-3.3.18-4-1.48-6.81-1.71S181.77.24,183.53,0A6.47,6.47,0,0,1,187.21,1.08Z"/><path class="cls-2" d="M238.86,18.8A2.11,2.11,0,0,1,236.62,20c-1.66-.21-1.87-1.1-3.27-1.47s2.86-.6,3.75-.55A3.36,3.36,0,0,1,238.86,18.8Z"/><path class="cls-2" d="M179.43,45.48s5,2.47,3.92,4.34-4.38,1-6,2.35-1.74-4.42-1.41-5.51S179.43,45.48,179.43,45.48Z"/><path class="cls-2" d="M285.53,24.36s.44-2.84,1.86-2.6,1.64,2,2.85,2.6-2.41,1.53-3.18,1.53S285.53,24.36,285.53,24.36Z"/><path class="cls-2" d="M331.23,40.22s.44-2.84,1.87-2.6,1.64,2,2.84,2.6-2.41,1.53-3.17,1.53S331.23,40.22,331.23,40.22Z"/><path class="cls-2" d="M309.82,48.77a2.39,2.39,0,0,1,.44,2.63c-.62,1.67-1.47,1.66-2.17,3s.22-3.12.5-4A3.72,3.72,0,0,1,309.82,48.77Z"/><path class="cls-2" d="M275.12,1.08a4.28,4.28,0,0,1-4,3.05c-3.29.18-4-1.48-6.8-1.71S269.68.24,271.44,0A6.47,6.47,0,0,1,275.12,1.08Z"/><path class="cls-2" d="M326.76,18.8A2.1,2.1,0,0,1,324.53,20c-1.66-.21-1.88-1.1-3.27-1.47s2.85-.6,3.75-.55A3.36,3.36,0,0,1,326.76,18.8Z"/><path class="cls-2" d="M267.34,45.48s5,2.47,3.91,4.34-4.37,1-6,2.35-1.75-4.42-1.41-5.51S267.34,45.48,267.34,45.48Z"/><path class="cls-2" d="M373.44,24.36s.43-2.84,1.86-2.6,1.64,2,2.84,2.6-2.4,1.53-3.17,1.53S373.44,24.36,373.44,24.36Z"/><path class="cls-2" d="M419.14,40.22s.44-2.84,1.86-2.6,1.65,2,2.85,2.6-2.41,1.53-3.18,1.53S419.14,40.22,419.14,40.22Z"/><path class="cls-2" d="M397.73,48.77a2.39,2.39,0,0,1,.44,2.63c-.63,1.67-1.48,1.66-2.18,3s.23-3.12.51-4A3.64,3.64,0,0,1,397.73,48.77Z"/><path class="cls-2" d="M363,1.08a4.27,4.27,0,0,1-4,3.05c-3.29.18-4-1.48-6.81-1.71S357.59.24,359.35,0A6.42,6.42,0,0,1,363,1.08Z"/><path class="cls-2" d="M414.67,18.8A2.11,2.11,0,0,1,412.43,20c-1.65-.21-1.87-1.1-3.26-1.47s2.85-.6,3.74-.55A3.36,3.36,0,0,1,414.67,18.8Z"/><path class="cls-2" d="M355.24,45.48s5,2.47,3.92,4.34-4.38,1-6,2.35-1.74-4.42-1.4-5.51S355.24,45.48,355.24,45.48Z"/><path class="cls-2" d="M461.34,24.36s.44-2.84,1.86-2.6,1.65,2,2.85,2.6-2.41,1.53-3.17,1.53S461.34,24.36,461.34,24.36Z"/><path class="cls-2" d="M507.05,40.22s.44-2.84,1.86-2.6,1.64,2,2.85,2.6-2.41,1.53-3.18,1.53S507.05,40.22,507.05,40.22Z"/><path class="cls-2" d="M485.64,48.77a2.41,2.41,0,0,1,.44,2.63c-.63,1.67-1.48,1.66-2.18,3s.22-3.12.51-4A3.64,3.64,0,0,1,485.64,48.77Z"/><path class="cls-2" d="M450.93,1.08a4.27,4.27,0,0,1-4,3.05c-3.3.18-4-1.48-6.81-1.71S445.49.24,447.25,0A6.47,6.47,0,0,1,450.93,1.08Z"/><path class="cls-2" d="M502.58,18.8A2.11,2.11,0,0,1,500.34,20c-1.66-.21-1.87-1.1-3.27-1.47s2.86-.6,3.75-.55A3.36,3.36,0,0,1,502.58,18.8Z"/><path class="cls-2" d="M443.15,45.48s5,2.47,3.92,4.34-4.38,1-6,2.35-1.74-4.42-1.41-5.51S443.15,45.48,443.15,45.48Z"/><path class="cls-2" d="M490.19,97s-.44,2.84-1.86,2.6-1.64-2-2.85-2.6,2.41-1.53,3.18-1.53S490.19,97,490.19,97Z"/><path class="cls-2" d="M444.49,81.16s-.44,2.84-1.87,2.6-1.64-2-2.84-2.6,2.41-1.53,3.17-1.53S444.49,81.16,444.49,81.16Z"/><path class="cls-2" d="M465.9,72.61a2.38,2.38,0,0,1-.44-2.63c.63-1.67,1.47-1.66,2.17-3s-.22,3.12-.5,4A3.64,3.64,0,0,1,465.9,72.61Z"/><path class="cls-2" d="M500.6,120.3a4.28,4.28,0,0,1,4-3c3.29-.18,4,1.48,6.8,1.71s-5.37,2.18-7.13,2.4A6.53,6.53,0,0,1,500.6,120.3Z"/><path class="cls-2" d="M449,102.58a2.08,2.08,0,0,1,2.23-1.15c1.66.2,1.88,1.09,3.27,1.46s-2.85.6-3.75.55A3.36,3.36,0,0,1,449,102.58Z"/><path class="cls-2" d="M508.38,75.9s-5-2.47-3.91-4.34,4.37-1,6-2.35,1.75,4.42,1.41,5.51S508.38,75.9,508.38,75.9Z"/><path class="cls-2" d="M402.28,97s-.43,2.84-1.86,2.6-1.64-2-2.84-2.6,2.4-1.53,3.17-1.53S402.28,97,402.28,97Z"/><path class="cls-2" d="M356.58,81.16s-.44,2.84-1.86,2.6-1.65-2-2.85-2.6,2.41-1.53,3.18-1.53S356.58,81.16,356.58,81.16Z"/><path class="cls-2" d="M378,72.61a2.38,2.38,0,0,1-.44-2.63c.63-1.67,1.48-1.66,2.18-3s-.23,3.12-.51,4A3.64,3.64,0,0,1,378,72.61Z"/><path class="cls-2" d="M412.7,120.3a4.27,4.27,0,0,1,4-3c3.29-.18,4,1.48,6.81,1.71s-5.38,2.18-7.14,2.4A6.48,6.48,0,0,1,412.7,120.3Z"/><path class="cls-2" d="M361.05,102.58a2.1,2.1,0,0,1,2.24-1.15c1.66.2,1.87,1.09,3.26,1.46s-2.85.6-3.74.55A3.36,3.36,0,0,1,361.05,102.58Z"/><path class="cls-2" d="M420.48,75.9s-5-2.47-3.92-4.34,4.38-1,6-2.35,1.74,4.42,1.4,5.51S420.48,75.9,420.48,75.9Z"/><path class="cls-2" d="M314.38,97s-.44,2.84-1.86,2.6-1.65-2-2.85-2.6,2.41-1.53,3.17-1.53S314.38,97,314.38,97Z"/><path class="cls-2" d="M268.67,81.16s-.44,2.84-1.86,2.6-1.64-2-2.85-2.6,2.41-1.53,3.18-1.53S268.67,81.16,268.67,81.16Z"/><path class="cls-2" d="M290.08,72.61a2.4,2.4,0,0,1-.44-2.63c.63-1.67,1.48-1.66,2.18-3s-.22,3.12-.51,4A3.64,3.64,0,0,1,290.08,72.61Z"/><path class="cls-2" d="M324.79,120.3a4.27,4.27,0,0,1,4-3c3.3-.18,4,1.48,6.81,1.71s-5.37,2.18-7.13,2.4A6.53,6.53,0,0,1,324.79,120.3Z"/><path class="cls-2" d="M273.14,102.58a2.1,2.1,0,0,1,2.24-1.15c1.66.2,1.87,1.09,3.27,1.46s-2.86.6-3.75.55A3.36,3.36,0,0,1,273.14,102.58Z"/><path class="cls-2" d="M332.57,75.9s-5-2.47-3.92-4.34,4.38-1,6-2.35,1.74,4.42,1.41,5.51S332.57,75.9,332.57,75.9Z"/><path class="cls-2" d="M226.47,97s-.44,2.84-1.86,2.6-1.64-2-2.85-2.6,2.41-1.53,3.18-1.53S226.47,97,226.47,97Z"/><path class="cls-2" d="M180.77,81.16s-.44,2.84-1.87,2.6-1.64-2-2.84-2.6,2.41-1.53,3.17-1.53S180.77,81.16,180.77,81.16Z"/><path class="cls-2" d="M202.18,72.61a2.38,2.38,0,0,1-.44-2.63c.62-1.67,1.47-1.66,2.17-3s-.22,3.12-.5,4A3.72,3.72,0,0,1,202.18,72.61Z"/><path class="cls-2" d="M236.88,120.3a4.28,4.28,0,0,1,4-3c3.29-.18,4,1.48,6.8,1.71s-5.37,2.18-7.13,2.4A6.53,6.53,0,0,1,236.88,120.3Z"/><path class="cls-2" d="M185.24,102.58a2.08,2.08,0,0,1,2.23-1.15c1.66.2,1.88,1.09,3.27,1.46s-2.85.6-3.75.55A3.36,3.36,0,0,1,185.24,102.58Z"/><path class="cls-2" d="M244.66,75.9s-5-2.47-3.91-4.34,4.37-1,6-2.35,1.75,4.42,1.41,5.51S244.66,75.9,244.66,75.9Z"/><path class="cls-2" d="M138.56,97s-.43,2.84-1.86,2.6-1.64-2-2.84-2.6,2.4-1.53,3.17-1.53S138.56,97,138.56,97Z"/><path class="cls-2" d="M92.86,81.16S92.42,84,91,83.76s-1.65-2-2.85-2.6,2.41-1.53,3.18-1.53S92.86,81.16,92.86,81.16Z"/><path class="cls-2" d="M114.27,72.61a2.38,2.38,0,0,1-.44-2.63c.63-1.67,1.48-1.66,2.18-3s-.23,3.12-.51,4A3.64,3.64,0,0,1,114.27,72.61Z"/><path class="cls-2" d="M149,120.3a4.27,4.27,0,0,1,4-3c3.29-.18,4,1.48,6.81,1.71s-5.38,2.18-7.14,2.4A6.48,6.48,0,0,1,149,120.3Z"/><path class="cls-2" d="M97.33,102.58a2.1,2.1,0,0,1,2.24-1.15c1.65.2,1.87,1.09,3.26,1.46s-2.85.6-3.74.55A3.36,3.36,0,0,1,97.33,102.58Z"/><path class="cls-2" d="M156.76,75.9s-5-2.47-3.92-4.34,4.38-1,6-2.35,1.74,4.42,1.4,5.51S156.76,75.9,156.76,75.9Z"/><path class="cls-2" d="M50.66,97s-.44,2.84-1.86,2.6-1.65-2-2.85-2.6,2.41-1.53,3.17-1.53S50.66,97,50.66,97Z"/><path class="cls-2" d="M5,81.16S4.51,84,3.09,83.76s-1.64-2-2.85-2.6,2.41-1.53,3.18-1.53S5,81.16,5,81.16Z"/><path class="cls-2" d="M26.36,72.61A2.4,2.4,0,0,1,25.92,70c.63-1.67,1.48-1.66,2.18-3s-.22,3.12-.51,4A3.64,3.64,0,0,1,26.36,72.61Z"/><path class="cls-2" d="M61.07,120.3a4.27,4.27,0,0,1,4-3c3.3-.18,4,1.48,6.81,1.71s-5.37,2.18-7.13,2.4A6.53,6.53,0,0,1,61.07,120.3Z"/><path class="cls-2" d="M9.42,102.58a2.1,2.1,0,0,1,2.24-1.15c1.66.2,1.87,1.09,3.27,1.46s-2.86.6-3.75.55A3.36,3.36,0,0,1,9.42,102.58Z"/><path class="cls-2" d="M68.85,75.9s-5-2.47-3.92-4.34,4.38-1,6-2.35,1.74,4.42,1.41,5.51S68.85,75.9,68.85,75.9Z"/><path class="cls-2" d="M21.81,153.7s.44-2.83,1.86-2.6,1.64,2,2.85,2.6-2.41,1.54-3.18,1.54S21.81,153.7,21.81,153.7Z"/><path class="cls-2" d="M67.51,169.56s.44-2.84,1.87-2.6,1.64,2,2.84,2.6-2.41,1.53-3.17,1.53S67.51,169.56,67.51,169.56Z"/><path class="cls-2" d="M46.1,178.11a2.4,2.4,0,0,1,.44,2.64c-.63,1.67-1.47,1.65-2.17,3s.22-3.13.5-4A3.64,3.64,0,0,1,46.1,178.11Z"/><path class="cls-2" d="M11.4,130.42a4.27,4.27,0,0,1-4,3.05c-3.29.18-4-1.48-6.8-1.71s5.37-2.17,7.13-2.39A6.47,6.47,0,0,1,11.4,130.42Z"/><path class="cls-2" d="M63,148.14a2.08,2.08,0,0,1-2.23,1.16c-1.66-.21-1.88-1.1-3.27-1.47s2.85-.6,3.75-.55A3.36,3.36,0,0,1,63,148.14Z"/><path class="cls-2" d="M3.62,174.82s5,2.47,3.91,4.34-4.37,1-6,2.36S-.19,177.09.15,176,3.62,174.82,3.62,174.82Z"/><path class="cls-2" d="M109.72,153.7s.43-2.83,1.86-2.6,1.64,2,2.84,2.6-2.4,1.54-3.17,1.54S109.72,153.7,109.72,153.7Z"/><path class="cls-2" d="M155.42,169.56s.44-2.84,1.86-2.6,1.65,2,2.85,2.6-2.41,1.53-3.18,1.53S155.42,169.56,155.42,169.56Z"/><path class="cls-2" d="M134,178.11a2.4,2.4,0,0,1,.44,2.64c-.63,1.67-1.48,1.65-2.18,3s.23-3.13.51-4A3.64,3.64,0,0,1,134,178.11Z"/><path class="cls-2" d="M99.3,130.42a4.26,4.26,0,0,1-4,3.05c-3.29.18-4-1.48-6.81-1.71s5.38-2.17,7.14-2.39A6.42,6.42,0,0,1,99.3,130.42Z"/><path class="cls-2" d="M151,148.14a2.1,2.1,0,0,1-2.24,1.16c-1.66-.21-1.87-1.1-3.26-1.47s2.85-.6,3.74-.55A3.36,3.36,0,0,1,151,148.14Z"/><path class="cls-2" d="M91.52,174.82s5,2.47,3.92,4.34-4.38,1-6,2.36-1.74-4.43-1.4-5.52S91.52,174.82,91.52,174.82Z"/><path class="cls-2" d="M197.62,153.7s.44-2.83,1.86-2.6,1.65,2,2.85,2.6-2.41,1.54-3.17,1.54S197.62,153.7,197.62,153.7Z"/><path class="cls-2" d="M243.33,169.56s.44-2.84,1.86-2.6,1.64,2,2.85,2.6-2.41,1.53-3.18,1.53S243.33,169.56,243.33,169.56Z"/><path class="cls-2" d="M221.92,178.11a2.43,2.43,0,0,1,.44,2.64c-.63,1.67-1.48,1.65-2.18,3s.22-3.13.51-4A3.64,3.64,0,0,1,221.92,178.11Z"/><path class="cls-2" d="M187.21,130.42a4.26,4.26,0,0,1-4,3.05c-3.3.18-4-1.48-6.81-1.71s5.37-2.17,7.13-2.39A6.47,6.47,0,0,1,187.21,130.42Z"/><path class="cls-2" d="M238.86,148.14a2.1,2.1,0,0,1-2.24,1.16c-1.66-.21-1.87-1.1-3.27-1.47s2.86-.6,3.75-.55A3.36,3.36,0,0,1,238.86,148.14Z"/><path class="cls-2" d="M179.43,174.82s5,2.47,3.92,4.34-4.38,1-6,2.36-1.74-4.43-1.41-5.52S179.43,174.82,179.43,174.82Z"/><path class="cls-2" d="M285.53,153.7s.44-2.83,1.86-2.6,1.64,2,2.85,2.6-2.41,1.54-3.18,1.54S285.53,153.7,285.53,153.7Z"/><path class="cls-2" d="M331.23,169.56s.44-2.84,1.87-2.6,1.64,2,2.84,2.6-2.41,1.53-3.17,1.53S331.23,169.56,331.23,169.56Z"/><path class="cls-2" d="M309.82,178.11a2.4,2.4,0,0,1,.44,2.64c-.62,1.67-1.47,1.65-2.17,3s.22-3.13.5-4A3.72,3.72,0,0,1,309.82,178.11Z"/><path class="cls-2" d="M275.12,130.42a4.27,4.27,0,0,1-4,3.05c-3.29.18-4-1.48-6.8-1.71s5.37-2.17,7.13-2.39A6.47,6.47,0,0,1,275.12,130.42Z"/><path class="cls-2" d="M326.76,148.14a2.08,2.08,0,0,1-2.23,1.16c-1.66-.21-1.88-1.1-3.27-1.47s2.85-.6,3.75-.55A3.36,3.36,0,0,1,326.76,148.14Z"/><path class="cls-2" d="M267.34,174.82s5,2.47,3.91,4.34-4.37,1-6,2.36-1.75-4.43-1.41-5.52S267.34,174.82,267.34,174.82Z"/><path class="cls-2" d="M373.44,153.7s.43-2.83,1.86-2.6,1.64,2,2.84,2.6-2.4,1.54-3.17,1.54S373.44,153.7,373.44,153.7Z"/><path class="cls-2" d="M419.14,169.56s.44-2.84,1.86-2.6,1.65,2,2.85,2.6-2.41,1.53-3.18,1.53S419.14,169.56,419.14,169.56Z"/><path class="cls-2" d="M397.73,178.11a2.4,2.4,0,0,1,.44,2.64c-.63,1.67-1.48,1.65-2.18,3s.23-3.13.51-4A3.64,3.64,0,0,1,397.73,178.11Z"/><path class="cls-2" d="M363,130.42a4.26,4.26,0,0,1-4,3.05c-3.29.18-4-1.48-6.81-1.71s5.38-2.17,7.14-2.39A6.42,6.42,0,0,1,363,130.42Z"/><path class="cls-2" d="M414.67,148.14a2.1,2.1,0,0,1-2.24,1.16c-1.65-.21-1.87-1.1-3.26-1.47s2.85-.6,3.74-.55A3.36,3.36,0,0,1,414.67,148.14Z"/><path class="cls-2" d="M355.24,174.82s5,2.47,3.92,4.34-4.38,1-6,2.36-1.74-4.43-1.4-5.52S355.24,174.82,355.24,174.82Z"/><path class="cls-2" d="M461.34,153.7s.44-2.83,1.86-2.6,1.65,2,2.85,2.6-2.41,1.54-3.17,1.54S461.34,153.7,461.34,153.7Z"/><path class="cls-2" d="M507.05,169.56s.44-2.84,1.86-2.6,1.64,2,2.85,2.6-2.41,1.53-3.18,1.53S507.05,169.56,507.05,169.56Z"/><path class="cls-2" d="M485.64,178.11a2.43,2.43,0,0,1,.44,2.64c-.63,1.67-1.48,1.65-2.18,3s.22-3.13.51-4A3.64,3.64,0,0,1,485.64,178.11Z"/><path class="cls-2" d="M450.93,130.42a4.26,4.26,0,0,1-4,3.05c-3.3.18-4-1.48-6.81-1.71s5.37-2.17,7.13-2.39A6.47,6.47,0,0,1,450.93,130.42Z"/><path class="cls-2" d="M502.58,148.14a2.1,2.1,0,0,1-2.24,1.16c-1.66-.21-1.87-1.1-3.27-1.47s2.86-.6,3.75-.55A3.36,3.36,0,0,1,502.58,148.14Z"/><path class="cls-2" d="M443.15,174.82s5,2.47,3.92,4.34-4.38,1-6,2.36-1.74-4.43-1.41-5.52S443.15,174.82,443.15,174.82Z"/><path class="cls-2" d="M490.19,226.36s-.44,2.84-1.86,2.6-1.64-2-2.85-2.6,2.41-1.53,3.18-1.53S490.19,226.36,490.19,226.36Z"/><path class="cls-2" d="M444.49,210.51s-.44,2.83-1.87,2.59-1.64-2-2.84-2.59S442.19,209,443,209,444.49,210.51,444.49,210.51Z"/><path class="cls-2" d="M465.9,202a2.38,2.38,0,0,1-.44-2.63c.63-1.67,1.47-1.66,2.17-3s-.22,3.12-.5,4A3.64,3.64,0,0,1,465.9,202Z"/><path class="cls-2" d="M500.6,249.64a4.28,4.28,0,0,1,4-3c3.29-.18,4,1.48,6.8,1.71s-5.37,2.18-7.13,2.4A6.44,6.44,0,0,1,500.6,249.64Z"/><path class="cls-2" d="M449,231.92a2.08,2.08,0,0,1,2.23-1.15c1.66.21,1.88,1.09,3.27,1.46s-2.85.6-3.75.55A3.36,3.36,0,0,1,449,231.92Z"/><path class="cls-2" d="M508.38,205.24s-5-2.47-3.91-4.34,4.37-1,6-2.35,1.75,4.43,1.41,5.52S508.38,205.24,508.38,205.24Z"/><path class="cls-2" d="M402.28,226.36s-.43,2.84-1.86,2.6-1.64-2-2.84-2.6,2.4-1.53,3.17-1.53S402.28,226.36,402.28,226.36Z"/><path class="cls-2" d="M356.58,210.51s-.44,2.83-1.86,2.59-1.65-2-2.85-2.59,2.41-1.54,3.18-1.54S356.58,210.51,356.58,210.51Z"/><path class="cls-2" d="M378,202a2.38,2.38,0,0,1-.44-2.63c.63-1.67,1.48-1.66,2.18-3s-.23,3.12-.51,4A3.64,3.64,0,0,1,378,202Z"/><path class="cls-2" d="M412.7,249.64a4.27,4.27,0,0,1,4-3c3.29-.18,4,1.48,6.81,1.71s-5.38,2.18-7.14,2.4A6.4,6.4,0,0,1,412.7,249.64Z"/><path class="cls-2" d="M361.05,231.92a2.1,2.1,0,0,1,2.24-1.15c1.66.21,1.87,1.09,3.26,1.46s-2.85.6-3.74.55A3.36,3.36,0,0,1,361.05,231.92Z"/><path class="cls-2" d="M420.48,205.24s-5-2.47-3.92-4.34,4.38-1,6-2.35,1.74,4.43,1.4,5.52S420.48,205.24,420.48,205.24Z"/><path class="cls-2" d="M314.38,226.36s-.44,2.84-1.86,2.6-1.65-2-2.85-2.6,2.41-1.53,3.17-1.53S314.38,226.36,314.38,226.36Z"/><path class="cls-2" d="M268.67,210.51s-.44,2.83-1.86,2.59-1.64-2-2.85-2.59,2.41-1.54,3.18-1.54S268.67,210.51,268.67,210.51Z"/><path class="cls-2" d="M290.08,202a2.4,2.4,0,0,1-.44-2.63c.63-1.67,1.48-1.66,2.18-3s-.22,3.12-.51,4A3.64,3.64,0,0,1,290.08,202Z"/><path class="cls-2" d="M324.79,249.64a4.27,4.27,0,0,1,4-3c3.3-.18,4,1.48,6.81,1.71s-5.37,2.18-7.13,2.4A6.44,6.44,0,0,1,324.79,249.64Z"/><path class="cls-2" d="M273.14,231.92a2.1,2.1,0,0,1,2.24-1.15c1.66.21,1.87,1.09,3.27,1.46s-2.86.6-3.75.55A3.36,3.36,0,0,1,273.14,231.92Z"/><path class="cls-2" d="M332.57,205.24s-5-2.47-3.92-4.34,4.38-1,6-2.35,1.74,4.43,1.41,5.52S332.57,205.24,332.57,205.24Z"/><path class="cls-2" d="M226.47,226.36s-.44,2.84-1.86,2.6-1.64-2-2.85-2.6,2.41-1.53,3.18-1.53S226.47,226.36,226.47,226.36Z"/><path class="cls-2" d="M180.77,210.51s-.44,2.83-1.87,2.59-1.64-2-2.84-2.59,2.41-1.54,3.17-1.54S180.77,210.51,180.77,210.51Z"/><path class="cls-2" d="M202.18,202a2.38,2.38,0,0,1-.44-2.63c.62-1.67,1.47-1.66,2.17-3s-.22,3.12-.5,4A3.72,3.72,0,0,1,202.18,202Z"/><path class="cls-2" d="M236.88,249.64a4.28,4.28,0,0,1,4-3c3.29-.18,4,1.48,6.8,1.71s-5.37,2.18-7.13,2.4A6.44,6.44,0,0,1,236.88,249.64Z"/><path class="cls-2" d="M185.24,231.92a2.08,2.08,0,0,1,2.23-1.15c1.66.21,1.88,1.09,3.27,1.46s-2.85.6-3.75.55A3.36,3.36,0,0,1,185.24,231.92Z"/><path class="cls-2" d="M244.66,205.24s-5-2.47-3.91-4.34,4.37-1,6-2.35,1.75,4.43,1.41,5.52S244.66,205.24,244.66,205.24Z"/><path class="cls-2" d="M138.56,226.36s-.43,2.84-1.86,2.6-1.64-2-2.84-2.6,2.4-1.53,3.17-1.53S138.56,226.36,138.56,226.36Z"/><path class="cls-2" d="M92.86,210.51s-.44,2.83-1.86,2.59-1.65-2-2.85-2.59S90.56,209,91.33,209,92.86,210.51,92.86,210.51Z"/><path class="cls-2" d="M114.27,202a2.38,2.38,0,0,1-.44-2.63c.63-1.67,1.48-1.66,2.18-3s-.23,3.12-.51,4A3.64,3.64,0,0,1,114.27,202Z"/><path class="cls-2" d="M149,249.64a4.27,4.27,0,0,1,4-3c3.29-.18,4,1.48,6.81,1.71s-5.38,2.18-7.14,2.4A6.4,6.4,0,0,1,149,249.64Z"/><path class="cls-2" d="M97.33,231.92a2.1,2.1,0,0,1,2.24-1.15c1.65.21,1.87,1.09,3.26,1.46s-2.85.6-3.74.55A3.36,3.36,0,0,1,97.33,231.92Z"/><path class="cls-2" d="M156.76,205.24s-5-2.47-3.92-4.34,4.38-1,6-2.35,1.74,4.43,1.4,5.52S156.76,205.24,156.76,205.24Z"/><path class="cls-2" d="M50.66,226.36s-.44,2.84-1.86,2.6-1.65-2-2.85-2.6,2.41-1.53,3.17-1.53S50.66,226.36,50.66,226.36Z"/><path class="cls-2" d="M5,210.51s-.44,2.83-1.86,2.59-1.64-2-2.85-2.59S2.65,209,3.42,209,5,210.51,5,210.51Z"/><path class="cls-2" d="M26.36,202a2.4,2.4,0,0,1-.44-2.63c.63-1.67,1.48-1.66,2.18-3s-.22,3.12-.51,4A3.64,3.64,0,0,1,26.36,202Z"/><path class="cls-2" d="M61.07,249.64a4.27,4.27,0,0,1,4-3c3.3-.18,4,1.48,6.81,1.71s-5.37,2.18-7.13,2.4A6.44,6.44,0,0,1,61.07,249.64Z"/><path class="cls-2" d="M9.42,231.92a2.1,2.1,0,0,1,2.24-1.15c1.66.21,1.87,1.09,3.27,1.46s-2.86.6-3.75.55A3.36,3.36,0,0,1,9.42,231.92Z"/><path class="cls-2" d="M68.85,205.24s-5-2.47-3.92-4.34,4.38-1,6-2.35,1.74,4.43,1.41,5.52S68.85,205.24,68.85,205.24Z"/><path class="cls-2" d="M21.81,285.64s.44-2.84,1.86-2.6,1.64,2,2.85,2.6-2.41,1.53-3.18,1.53S21.81,285.64,21.81,285.64Z"/><path class="cls-2" d="M67.51,301.49s.44-2.83,1.87-2.59,1.64,2,2.84,2.59S69.81,303,69.05,303,67.51,301.49,67.51,301.49Z"/><path class="cls-2" d="M46.1,310.05a2.38,2.38,0,0,1,.44,2.63c-.63,1.67-1.47,1.66-2.17,3s.22-3.12.5-4A3.64,3.64,0,0,1,46.1,310.05Z"/><path class="cls-2" d="M11.4,262.36a4.28,4.28,0,0,1-4,3.05c-3.29.18-4-1.48-6.8-1.71s5.37-2.18,7.13-2.4A6.44,6.44,0,0,1,11.4,262.36Z"/><path class="cls-2" d="M63,280.08a2.08,2.08,0,0,1-2.23,1.15c-1.66-.21-1.88-1.09-3.27-1.46s2.85-.6,3.75-.55A3.36,3.36,0,0,1,63,280.08Z"/><path class="cls-2" d="M3.62,306.76s5,2.47,3.91,4.34-4.37,1-6,2.35S-.19,309,.15,307.93,3.62,306.76,3.62,306.76Z"/><path class="cls-2" d="M109.72,285.64s.43-2.84,1.86-2.6,1.64,2,2.84,2.6-2.4,1.53-3.17,1.53S109.72,285.64,109.72,285.64Z"/><path class="cls-2" d="M155.42,301.49s.44-2.83,1.86-2.59,1.65,2,2.85,2.59S157.72,303,157,303,155.42,301.49,155.42,301.49Z"/><path class="cls-2" d="M134,310.05a2.38,2.38,0,0,1,.44,2.63c-.63,1.67-1.48,1.66-2.18,3s.23-3.12.51-4A3.64,3.64,0,0,1,134,310.05Z"/><path class="cls-2" d="M99.3,262.36a4.27,4.27,0,0,1-4,3.05c-3.29.18-4-1.48-6.81-1.71s5.38-2.18,7.14-2.4A6.4,6.4,0,0,1,99.3,262.36Z"/><path class="cls-2" d="M151,280.08a2.1,2.1,0,0,1-2.24,1.15c-1.66-.21-1.87-1.09-3.26-1.46s2.85-.6,3.74-.55A3.36,3.36,0,0,1,151,280.08Z"/><path class="cls-2" d="M91.52,306.76s5,2.47,3.92,4.34-4.38,1-6,2.35-1.74-4.43-1.4-5.52S91.52,306.76,91.52,306.76Z"/><path class="cls-2" d="M197.62,285.64s.44-2.84,1.86-2.6,1.65,2,2.85,2.6-2.41,1.53-3.17,1.53S197.62,285.64,197.62,285.64Z"/><path class="cls-2" d="M243.33,301.49s.44-2.83,1.86-2.59,1.64,2,2.85,2.59-2.41,1.54-3.18,1.54S243.33,301.49,243.33,301.49Z"/><path class="cls-2" d="M221.92,310.05a2.4,2.4,0,0,1,.44,2.63c-.63,1.67-1.48,1.66-2.18,3s.22-3.12.51-4A3.64,3.64,0,0,1,221.92,310.05Z"/><path class="cls-2" d="M187.21,262.36a4.27,4.27,0,0,1-4,3.05c-3.3.18-4-1.48-6.81-1.71s5.37-2.18,7.13-2.4A6.44,6.44,0,0,1,187.21,262.36Z"/><path class="cls-2" d="M238.86,280.08a2.1,2.1,0,0,1-2.24,1.15c-1.66-.21-1.87-1.09-3.27-1.46s2.86-.6,3.75-.55A3.36,3.36,0,0,1,238.86,280.08Z"/><path class="cls-2" d="M179.43,306.76s5,2.47,3.92,4.34-4.38,1-6,2.35-1.74-4.43-1.41-5.52S179.43,306.76,179.43,306.76Z"/><path class="cls-2" d="M285.53,285.64s.44-2.84,1.86-2.6,1.64,2,2.85,2.6-2.41,1.53-3.18,1.53S285.53,285.64,285.53,285.64Z"/><path class="cls-2" d="M331.23,301.49s.44-2.83,1.87-2.59,1.64,2,2.84,2.59-2.41,1.54-3.17,1.54S331.23,301.49,331.23,301.49Z"/><path class="cls-2" d="M309.82,310.05a2.38,2.38,0,0,1,.44,2.63c-.62,1.67-1.47,1.66-2.17,3s.22-3.12.5-4A3.72,3.72,0,0,1,309.82,310.05Z"/><path class="cls-2" d="M275.12,262.36a4.28,4.28,0,0,1-4,3.05c-3.29.18-4-1.48-6.8-1.71s5.37-2.18,7.13-2.4A6.44,6.44,0,0,1,275.12,262.36Z"/><path class="cls-2" d="M326.76,280.08a2.08,2.08,0,0,1-2.23,1.15c-1.66-.21-1.88-1.09-3.27-1.46s2.85-.6,3.75-.55A3.36,3.36,0,0,1,326.76,280.08Z"/><path class="cls-2" d="M267.34,306.76s5,2.47,3.91,4.34-4.37,1-6,2.35-1.75-4.43-1.41-5.52S267.34,306.76,267.34,306.76Z"/><path class="cls-2" d="M373.44,285.64s.43-2.84,1.86-2.6,1.64,2,2.84,2.6-2.4,1.53-3.17,1.53S373.44,285.64,373.44,285.64Z"/><path class="cls-2" d="M419.14,301.49s.44-2.83,1.86-2.59,1.65,2,2.85,2.59-2.41,1.54-3.18,1.54S419.14,301.49,419.14,301.49Z"/><path class="cls-2" d="M397.73,310.05a2.38,2.38,0,0,1,.44,2.63c-.63,1.67-1.48,1.66-2.18,3s.23-3.12.51-4A3.64,3.64,0,0,1,397.73,310.05Z"/><path class="cls-2" d="M363,262.36a4.27,4.27,0,0,1-4,3.05c-3.29.18-4-1.48-6.81-1.71s5.38-2.18,7.14-2.4A6.4,6.4,0,0,1,363,262.36Z"/><path class="cls-2" d="M414.67,280.08a2.1,2.1,0,0,1-2.24,1.15c-1.65-.21-1.87-1.09-3.26-1.46s2.85-.6,3.74-.55A3.36,3.36,0,0,1,414.67,280.08Z"/><path class="cls-2" d="M355.24,306.76s5,2.47,3.92,4.34-4.38,1-6,2.35-1.74-4.43-1.4-5.52S355.24,306.76,355.24,306.76Z"/><path class="cls-2" d="M461.34,285.64s.44-2.84,1.86-2.6,1.65,2,2.85,2.6-2.41,1.53-3.17,1.53S461.34,285.64,461.34,285.64Z"/><path class="cls-2" d="M507.05,301.49s.44-2.83,1.86-2.59,1.64,2,2.85,2.59-2.41,1.54-3.18,1.54S507.05,301.49,507.05,301.49Z"/><path class="cls-2" d="M485.64,310.05a2.4,2.4,0,0,1,.44,2.63c-.63,1.67-1.48,1.66-2.18,3s.22-3.12.51-4A3.64,3.64,0,0,1,485.64,310.05Z"/><path class="cls-2" d="M450.93,262.36a4.27,4.27,0,0,1-4,3.05c-3.3.18-4-1.48-6.81-1.71s5.37-2.18,7.13-2.4A6.44,6.44,0,0,1,450.93,262.36Z"/><path class="cls-2" d="M502.58,280.08a2.1,2.1,0,0,1-2.24,1.15c-1.66-.21-1.87-1.09-3.27-1.46s2.86-.6,3.75-.55A3.36,3.36,0,0,1,502.58,280.08Z"/><path class="cls-2" d="M443.15,306.76s5,2.47,3.92,4.34-4.38,1-6,2.35-1.74-4.43-1.41-5.52S443.15,306.76,443.15,306.76Z"/><path class="cls-2" d="M490.19,358.3s-.44,2.83-1.86,2.6-1.64-2-2.85-2.6,2.41-1.54,3.18-1.54S490.19,358.3,490.19,358.3Z"/><path class="cls-2" d="M444.49,342.44s-.44,2.84-1.87,2.6-1.64-2-2.84-2.6,2.41-1.53,3.17-1.53S444.49,342.44,444.49,342.44Z"/><path class="cls-2" d="M465.9,333.89a2.4,2.4,0,0,1-.44-2.64c.63-1.67,1.47-1.65,2.17-3s-.22,3.13-.5,4.05A3.64,3.64,0,0,1,465.9,333.89Z"/><path class="cls-2" d="M500.6,381.58a4.27,4.27,0,0,1,4-3.05c3.29-.18,4,1.48,6.8,1.71s-5.37,2.17-7.13,2.39A6.47,6.47,0,0,1,500.6,381.58Z"/><path class="cls-2" d="M449,363.86a2.08,2.08,0,0,1,2.23-1.16c1.66.21,1.88,1.1,3.27,1.47s-2.85.6-3.75.55A3.36,3.36,0,0,1,449,363.86Z"/><path class="cls-2" d="M508.38,337.18s-5-2.47-3.91-4.34,4.37-1,6-2.36,1.75,4.43,1.41,5.52S508.38,337.18,508.38,337.18Z"/><path class="cls-2" d="M402.28,358.3s-.43,2.83-1.86,2.6-1.64-2-2.84-2.6,2.4-1.54,3.17-1.54S402.28,358.3,402.28,358.3Z"/><path class="cls-2" d="M356.58,342.44s-.44,2.84-1.86,2.6-1.65-2-2.85-2.6,2.41-1.53,3.18-1.53S356.58,342.44,356.58,342.44Z"/><path class="cls-2" d="M378,333.89a2.4,2.4,0,0,1-.44-2.64c.63-1.67,1.48-1.65,2.18-3s-.23,3.13-.51,4.05A3.64,3.64,0,0,1,378,333.89Z"/><path class="cls-2" d="M412.7,381.58a4.26,4.26,0,0,1,4-3.05c3.29-.18,4,1.48,6.81,1.71s-5.38,2.17-7.14,2.39A6.42,6.42,0,0,1,412.7,381.58Z"/><path class="cls-2" d="M361.05,363.86a2.1,2.1,0,0,1,2.24-1.16c1.66.21,1.87,1.1,3.26,1.47s-2.85.6-3.74.55A3.36,3.36,0,0,1,361.05,363.86Z"/><path class="cls-2" d="M420.48,337.18s-5-2.47-3.92-4.34,4.38-1,6-2.36,1.74,4.43,1.4,5.52S420.48,337.18,420.48,337.18Z"/><path class="cls-2" d="M314.38,358.3s-.44,2.83-1.86,2.6-1.65-2-2.85-2.6,2.41-1.54,3.17-1.54S314.38,358.3,314.38,358.3Z"/><path class="cls-2" d="M268.67,342.44s-.44,2.84-1.86,2.6-1.64-2-2.85-2.6,2.41-1.53,3.18-1.53S268.67,342.44,268.67,342.44Z"/><path class="cls-2" d="M290.08,333.89a2.43,2.43,0,0,1-.44-2.64c.63-1.67,1.48-1.65,2.18-3s-.22,3.13-.51,4.05A3.64,3.64,0,0,1,290.08,333.89Z"/><path class="cls-2" d="M324.79,381.58a4.26,4.26,0,0,1,4-3.05c3.3-.18,4,1.48,6.81,1.71s-5.37,2.17-7.13,2.39A6.47,6.47,0,0,1,324.79,381.58Z"/><path class="cls-2" d="M273.14,363.86a2.1,2.1,0,0,1,2.24-1.16c1.66.21,1.87,1.1,3.27,1.47s-2.86.6-3.75.55A3.36,3.36,0,0,1,273.14,363.86Z"/><path class="cls-2" d="M332.57,337.18s-5-2.47-3.92-4.34,4.38-1,6-2.36,1.74,4.43,1.41,5.52S332.57,337.18,332.57,337.18Z"/><path class="cls-2" d="M226.47,358.3s-.44,2.83-1.86,2.6-1.64-2-2.85-2.6,2.41-1.54,3.18-1.54S226.47,358.3,226.47,358.3Z"/><path class="cls-2" d="M180.77,342.44s-.44,2.84-1.87,2.6-1.64-2-2.84-2.6,2.41-1.53,3.17-1.53S180.77,342.44,180.77,342.44Z"/><path class="cls-2" d="M202.18,333.89a2.4,2.4,0,0,1-.44-2.64c.62-1.67,1.47-1.65,2.17-3s-.22,3.13-.5,4.05A3.72,3.72,0,0,1,202.18,333.89Z"/><path class="cls-2" d="M236.88,381.58a4.27,4.27,0,0,1,4-3.05c3.29-.18,4,1.48,6.8,1.71s-5.37,2.17-7.13,2.39A6.47,6.47,0,0,1,236.88,381.58Z"/><path class="cls-2" d="M185.24,363.86a2.08,2.08,0,0,1,2.23-1.16c1.66.21,1.88,1.1,3.27,1.47s-2.85.6-3.75.55A3.36,3.36,0,0,1,185.24,363.86Z"/><path class="cls-2" d="M244.66,337.18s-5-2.47-3.91-4.34,4.37-1,6-2.36,1.75,4.43,1.41,5.52S244.66,337.18,244.66,337.18Z"/><path class="cls-2" d="M138.56,358.3s-.43,2.83-1.86,2.6-1.64-2-2.84-2.6,2.4-1.54,3.17-1.54S138.56,358.3,138.56,358.3Z"/><path class="cls-2" d="M92.86,342.44s-.44,2.84-1.86,2.6-1.65-2-2.85-2.6,2.41-1.53,3.18-1.53S92.86,342.44,92.86,342.44Z"/><path class="cls-2" d="M114.27,333.89a2.4,2.4,0,0,1-.44-2.64c.63-1.67,1.48-1.65,2.18-3s-.23,3.13-.51,4.05A3.64,3.64,0,0,1,114.27,333.89Z"/><path class="cls-2" d="M149,381.58a4.26,4.26,0,0,1,4-3.05c3.29-.18,4,1.48,6.81,1.71s-5.38,2.17-7.14,2.39A6.42,6.42,0,0,1,149,381.58Z"/><path class="cls-2" d="M97.33,363.86a2.1,2.1,0,0,1,2.24-1.16c1.65.21,1.87,1.1,3.26,1.47s-2.85.6-3.74.55A3.36,3.36,0,0,1,97.33,363.86Z"/><path class="cls-2" d="M156.76,337.18s-5-2.47-3.92-4.34,4.38-1,6-2.36,1.74,4.43,1.4,5.52S156.76,337.18,156.76,337.18Z"/><path class="cls-2" d="M50.66,358.3s-.44,2.83-1.86,2.6-1.65-2-2.85-2.6,2.41-1.54,3.17-1.54S50.66,358.3,50.66,358.3Z"/><path class="cls-2" d="M5,342.44s-.44,2.84-1.86,2.6-1.64-2-2.85-2.6,2.41-1.53,3.18-1.53S5,342.44,5,342.44Z"/><path class="cls-2" d="M26.36,333.89a2.43,2.43,0,0,1-.44-2.64c.63-1.67,1.48-1.65,2.18-3s-.22,3.13-.51,4.05A3.64,3.64,0,0,1,26.36,333.89Z"/><path class="cls-2" d="M61.07,381.58a4.26,4.26,0,0,1,4-3.05c3.3-.18,4,1.48,6.81,1.71s-5.37,2.17-7.13,2.39A6.47,6.47,0,0,1,61.07,381.58Z"/><path class="cls-2" d="M9.42,363.86a2.1,2.1,0,0,1,2.24-1.16c1.66.21,1.87,1.1,3.27,1.47s-2.86.6-3.75.55A3.36,3.36,0,0,1,9.42,363.86Z"/><path class="cls-2" d="M68.85,337.18s-5-2.47-3.92-4.34,4.38-1,6-2.36,1.74,4.43,1.41,5.52S68.85,337.18,68.85,337.18Z"/><path class="cls-2" d="M21.81,415s.44-2.84,1.86-2.6,1.64,2,2.85,2.6-2.41,1.53-3.18,1.53S21.81,415,21.81,415Z"/><path class="cls-2" d="M67.51,430.84s.44-2.84,1.87-2.6,1.64,2,2.84,2.6-2.41,1.53-3.17,1.53S67.51,430.84,67.51,430.84Z"/><path class="cls-2" d="M46.1,439.39a2.38,2.38,0,0,1,.44,2.63c-.63,1.67-1.47,1.66-2.17,3s.22-3.12.5-4A3.64,3.64,0,0,1,46.1,439.39Z"/><path class="cls-2" d="M11.4,391.7a4.28,4.28,0,0,1-4,3.05c-3.29.18-4-1.48-6.8-1.71s5.37-2.18,7.13-2.4A6.53,6.53,0,0,1,11.4,391.7Z"/><path class="cls-2" d="M63,409.42a2.08,2.08,0,0,1-2.23,1.15c-1.66-.2-1.88-1.09-3.27-1.46s2.85-.6,3.75-.55A3.36,3.36,0,0,1,63,409.42Z"/><path class="cls-2" d="M3.62,436.1s5,2.47,3.91,4.34-4.37,1-6,2.35-1.75-4.42-1.41-5.51S3.62,436.1,3.62,436.1Z"/><path class="cls-2" d="M109.72,415s.43-2.84,1.86-2.6,1.64,2,2.84,2.6-2.4,1.53-3.17,1.53S109.72,415,109.72,415Z"/><path class="cls-2" d="M155.42,430.84s.44-2.84,1.86-2.6,1.65,2,2.85,2.6-2.41,1.53-3.18,1.53S155.42,430.84,155.42,430.84Z"/><path class="cls-2" d="M134,439.39a2.38,2.38,0,0,1,.44,2.63c-.63,1.67-1.48,1.66-2.18,3s.23-3.12.51-4A3.64,3.64,0,0,1,134,439.39Z"/><path class="cls-2" d="M99.3,391.7a4.27,4.27,0,0,1-4,3.05c-3.29.18-4-1.48-6.81-1.71s5.38-2.18,7.14-2.4A6.48,6.48,0,0,1,99.3,391.7Z"/><path class="cls-2" d="M151,409.42a2.1,2.1,0,0,1-2.24,1.15c-1.66-.2-1.87-1.09-3.26-1.46s2.85-.6,3.74-.55A3.36,3.36,0,0,1,151,409.42Z"/><path class="cls-2" d="M91.52,436.1s5,2.47,3.92,4.34-4.38,1-6,2.35-1.74-4.42-1.4-5.51S91.52,436.1,91.52,436.1Z"/><path class="cls-2" d="M197.62,415s.44-2.84,1.86-2.6,1.65,2,2.85,2.6-2.41,1.53-3.17,1.53S197.62,415,197.62,415Z"/><path class="cls-2" d="M243.33,430.84s.44-2.84,1.86-2.6,1.64,2,2.85,2.6-2.41,1.53-3.18,1.53S243.33,430.84,243.33,430.84Z"/><path class="cls-2" d="M221.92,439.39a2.4,2.4,0,0,1,.44,2.63c-.63,1.67-1.48,1.66-2.18,3s.22-3.12.51-4A3.64,3.64,0,0,1,221.92,439.39Z"/><path class="cls-2" d="M187.21,391.7a4.27,4.27,0,0,1-4,3.05c-3.3.18-4-1.48-6.81-1.71s5.37-2.18,7.13-2.4A6.53,6.53,0,0,1,187.21,391.7Z"/><path class="cls-2" d="M238.86,409.42a2.1,2.1,0,0,1-2.24,1.15c-1.66-.2-1.87-1.09-3.27-1.46s2.86-.6,3.75-.55A3.36,3.36,0,0,1,238.86,409.42Z"/><path class="cls-2" d="M179.43,436.1s5,2.47,3.92,4.34-4.38,1-6,2.35-1.74-4.42-1.41-5.51S179.43,436.1,179.43,436.1Z"/><path class="cls-2" d="M285.53,415s.44-2.84,1.86-2.6,1.64,2,2.85,2.6-2.41,1.53-3.18,1.53S285.53,415,285.53,415Z"/><path class="cls-2" d="M331.23,430.84s.44-2.84,1.87-2.6,1.64,2,2.84,2.6-2.41,1.53-3.17,1.53S331.23,430.84,331.23,430.84Z"/><path class="cls-2" d="M309.82,439.39a2.38,2.38,0,0,1,.44,2.63c-.62,1.67-1.47,1.66-2.17,3s.22-3.12.5-4A3.72,3.72,0,0,1,309.82,439.39Z"/><path class="cls-2" d="M275.12,391.7a4.28,4.28,0,0,1-4,3.05c-3.29.18-4-1.48-6.8-1.71s5.37-2.18,7.13-2.4A6.53,6.53,0,0,1,275.12,391.7Z"/><path class="cls-2" d="M326.76,409.42a2.08,2.08,0,0,1-2.23,1.15c-1.66-.2-1.88-1.09-3.27-1.46s2.85-.6,3.75-.55A3.36,3.36,0,0,1,326.76,409.42Z"/><path class="cls-2" d="M267.34,436.1s5,2.47,3.91,4.34-4.37,1-6,2.35-1.75-4.42-1.41-5.51S267.34,436.1,267.34,436.1Z"/><path class="cls-2" d="M373.44,415s.43-2.84,1.86-2.6,1.64,2,2.84,2.6-2.4,1.53-3.17,1.53S373.44,415,373.44,415Z"/><path class="cls-2" d="M419.14,430.84s.44-2.84,1.86-2.6,1.65,2,2.85,2.6-2.41,1.53-3.18,1.53S419.14,430.84,419.14,430.84Z"/><path class="cls-2" d="M397.73,439.39a2.38,2.38,0,0,1,.44,2.63c-.63,1.67-1.48,1.66-2.18,3s.23-3.12.51-4A3.64,3.64,0,0,1,397.73,439.39Z"/><path class="cls-2" d="M363,391.7a4.27,4.27,0,0,1-4,3.05c-3.29.18-4-1.48-6.81-1.71s5.38-2.18,7.14-2.4A6.48,6.48,0,0,1,363,391.7Z"/><path class="cls-2" d="M414.67,409.42a2.1,2.1,0,0,1-2.24,1.15c-1.65-.2-1.87-1.09-3.26-1.46s2.85-.6,3.74-.55A3.36,3.36,0,0,1,414.67,409.42Z"/><path class="cls-2" d="M355.24,436.1s5,2.47,3.92,4.34-4.38,1-6,2.35-1.74-4.42-1.4-5.51S355.24,436.1,355.24,436.1Z"/><path class="cls-2" d="M461.34,415s.44-2.84,1.86-2.6,1.65,2,2.85,2.6-2.41,1.53-3.17,1.53S461.34,415,461.34,415Z"/><path class="cls-2" d="M507.05,430.84s.44-2.84,1.86-2.6,1.64,2,2.85,2.6-2.41,1.53-3.18,1.53S507.05,430.84,507.05,430.84Z"/><path class="cls-2" d="M485.64,439.39a2.4,2.4,0,0,1,.44,2.63c-.63,1.67-1.48,1.66-2.18,3s.22-3.12.51-4A3.64,3.64,0,0,1,485.64,439.39Z"/><path class="cls-2" d="M450.93,391.7a4.27,4.27,0,0,1-4,3.05c-3.3.18-4-1.48-6.81-1.71s5.37-2.18,7.13-2.4A6.53,6.53,0,0,1,450.93,391.7Z"/><path class="cls-2" d="M502.58,409.42a2.1,2.1,0,0,1-2.24,1.15c-1.66-.2-1.87-1.09-3.27-1.46s2.86-.6,3.75-.55A3.36,3.36,0,0,1,502.58,409.42Z"/><path class="cls-2" d="M443.15,436.1s5,2.47,3.92,4.34-4.38,1-6,2.35-1.74-4.42-1.41-5.51S443.15,436.1,443.15,436.1Z"/><path class="cls-2" d="M490.19,487.64s-.44,2.84-1.86,2.6-1.64-2-2.85-2.6,2.41-1.53,3.18-1.53S490.19,487.64,490.19,487.64Z"/><path class="cls-2" d="M444.49,471.78s-.44,2.84-1.87,2.6-1.64-2-2.84-2.6,2.41-1.53,3.17-1.53S444.49,471.78,444.49,471.78Z"/><path class="cls-2" d="M465.9,463.23a2.39,2.39,0,0,1-.44-2.63c.63-1.67,1.47-1.66,2.17-3s-.22,3.12-.5,4A3.64,3.64,0,0,1,465.9,463.23Z"/><path class="cls-2" d="M500.6,510.92a4.28,4.28,0,0,1,4-3.05c3.29-.18,4,1.48,6.8,1.71s-5.37,2.18-7.13,2.39A6.47,6.47,0,0,1,500.6,510.92Z"/><path class="cls-2" d="M449,493.2a2.1,2.1,0,0,1,2.23-1.16c1.66.21,1.88,1.1,3.27,1.47s-2.85.6-3.75.55A3.36,3.36,0,0,1,449,493.2Z"/><path class="cls-2" d="M508.38,466.52s-5-2.47-3.91-4.34,4.37-1,6-2.35,1.75,4.42,1.41,5.51S508.38,466.52,508.38,466.52Z"/><path class="cls-2" d="M402.28,487.64s-.43,2.84-1.86,2.6-1.64-2-2.84-2.6,2.4-1.53,3.17-1.53S402.28,487.64,402.28,487.64Z"/><path class="cls-2" d="M356.58,471.78s-.44,2.84-1.86,2.6-1.65-2-2.85-2.6,2.41-1.53,3.18-1.53S356.58,471.78,356.58,471.78Z"/><path class="cls-2" d="M378,463.23a2.39,2.39,0,0,1-.44-2.63c.63-1.67,1.48-1.66,2.18-3s-.23,3.12-.51,4A3.64,3.64,0,0,1,378,463.23Z"/><path class="cls-2" d="M412.7,510.92a4.27,4.27,0,0,1,4-3.05c3.29-.18,4,1.48,6.81,1.71s-5.38,2.18-7.14,2.39A6.42,6.42,0,0,1,412.7,510.92Z"/><path class="cls-2" d="M361.05,493.2a2.11,2.11,0,0,1,2.24-1.16c1.66.21,1.87,1.1,3.26,1.47s-2.85.6-3.74.55A3.36,3.36,0,0,1,361.05,493.2Z"/><path class="cls-2" d="M420.48,466.52s-5-2.47-3.92-4.34,4.38-1,6-2.35,1.74,4.42,1.4,5.51S420.48,466.52,420.48,466.52Z"/><path class="cls-2" d="M314.38,487.64s-.44,2.84-1.86,2.6-1.65-2-2.85-2.6,2.41-1.53,3.17-1.53S314.38,487.64,314.38,487.64Z"/><path class="cls-2" d="M268.67,471.78s-.44,2.84-1.86,2.6-1.64-2-2.85-2.6,2.41-1.53,3.18-1.53S268.67,471.78,268.67,471.78Z"/><path class="cls-2" d="M290.08,463.23a2.41,2.41,0,0,1-.44-2.63c.63-1.67,1.48-1.66,2.18-3s-.22,3.12-.51,4A3.64,3.64,0,0,1,290.08,463.23Z"/><path class="cls-2" d="M324.79,510.92a4.27,4.27,0,0,1,4-3.05c3.3-.18,4,1.48,6.81,1.71s-5.37,2.18-7.13,2.39A6.47,6.47,0,0,1,324.79,510.92Z"/><path class="cls-2" d="M273.14,493.2a2.11,2.11,0,0,1,2.24-1.16c1.66.21,1.87,1.1,3.27,1.47s-2.86.6-3.75.55A3.36,3.36,0,0,1,273.14,493.2Z"/><path class="cls-2" d="M332.57,466.52s-5-2.47-3.92-4.34,4.38-1,6-2.35,1.74,4.42,1.41,5.51S332.57,466.52,332.57,466.52Z"/><path class="cls-2" d="M226.47,487.64s-.44,2.84-1.86,2.6-1.64-2-2.85-2.6,2.41-1.53,3.18-1.53S226.47,487.64,226.47,487.64Z"/><path class="cls-2" d="M180.77,471.78s-.44,2.84-1.87,2.6-1.64-2-2.84-2.6,2.41-1.53,3.17-1.53S180.77,471.78,180.77,471.78Z"/><path class="cls-2" d="M202.18,463.23a2.39,2.39,0,0,1-.44-2.63c.62-1.67,1.47-1.66,2.17-3s-.22,3.12-.5,4A3.72,3.72,0,0,1,202.18,463.23Z"/><path class="cls-2" d="M236.88,510.92a4.28,4.28,0,0,1,4-3.05c3.29-.18,4,1.48,6.8,1.71s-5.37,2.18-7.13,2.39A6.47,6.47,0,0,1,236.88,510.92Z"/><path class="cls-2" d="M185.24,493.2a2.1,2.1,0,0,1,2.23-1.16c1.66.21,1.88,1.1,3.27,1.47s-2.85.6-3.75.55A3.36,3.36,0,0,1,185.24,493.2Z"/><path class="cls-2" d="M244.66,466.52s-5-2.47-3.91-4.34,4.37-1,6-2.35,1.75,4.42,1.41,5.51S244.66,466.52,244.66,466.52Z"/><path class="cls-2" d="M138.56,487.64s-.43,2.84-1.86,2.6-1.64-2-2.84-2.6,2.4-1.53,3.17-1.53S138.56,487.64,138.56,487.64Z"/><path class="cls-2" d="M92.86,471.78s-.44,2.84-1.86,2.6-1.65-2-2.85-2.6,2.41-1.53,3.18-1.53S92.86,471.78,92.86,471.78Z"/><path class="cls-2" d="M114.27,463.23a2.39,2.39,0,0,1-.44-2.63c.63-1.67,1.48-1.66,2.18-3s-.23,3.12-.51,4A3.64,3.64,0,0,1,114.27,463.23Z"/><path class="cls-2" d="M149,510.92a4.27,4.27,0,0,1,4-3.05c3.29-.18,4,1.48,6.81,1.71s-5.38,2.18-7.14,2.39A6.42,6.42,0,0,1,149,510.92Z"/><path class="cls-2" d="M97.33,493.2A2.11,2.11,0,0,1,99.57,492c1.65.21,1.87,1.1,3.26,1.47s-2.85.6-3.74.55A3.36,3.36,0,0,1,97.33,493.2Z"/><path class="cls-2" d="M156.76,466.52s-5-2.47-3.92-4.34,4.38-1,6-2.35,1.74,4.42,1.4,5.51S156.76,466.52,156.76,466.52Z"/><path class="cls-2" d="M50.66,487.64s-.44,2.84-1.86,2.6-1.65-2-2.85-2.6,2.41-1.53,3.17-1.53S50.66,487.64,50.66,487.64Z"/><path class="cls-2" d="M5,471.78s-.44,2.84-1.86,2.6-1.64-2-2.85-2.6,2.41-1.53,3.18-1.53S5,471.78,5,471.78Z"/><path class="cls-2" d="M26.36,463.23a2.41,2.41,0,0,1-.44-2.63c.63-1.67,1.48-1.66,2.18-3s-.22,3.12-.51,4A3.64,3.64,0,0,1,26.36,463.23Z"/><path class="cls-2" d="M61.07,510.92a4.27,4.27,0,0,1,4-3.05c3.3-.18,4,1.48,6.81,1.71s-5.37,2.18-7.13,2.39A6.47,6.47,0,0,1,61.07,510.92Z"/><path class="cls-2" d="M9.42,493.2A2.11,2.11,0,0,1,11.66,492c1.66.21,1.87,1.1,3.27,1.47s-2.86.6-3.75.55A3.36,3.36,0,0,1,9.42,493.2Z"/><path class="cls-2" d="M68.85,466.52s-5-2.47-3.92-4.34,4.38-1,6-2.35,1.74,4.42,1.41,5.51S68.85,466.52,68.85,466.52Z"/></g></g></svg>