<svg xmlns="http://www.w3.org/2000/svg" viewBox="0 0 64 64"><defs><style>.cls-1{fill:#3b3736;}.cls-2{fill:#353130;}.cls-3{fill:#4a4a4a;}.cls-4{fill:#807674;}.cls-5{fill:#646464;}</style></defs><g id="Layer_2" data-name="Layer 2"><g id="Layer_1-2" data-name="Layer 1"><path class="cls-1" d="M60.87.1A3.57,3.57,0,0,1,61,1V2.32h1.35a3.74,3.74,0,0,1,1.42.27A4,4,0,0,0,60.87.1Z"/><path class="cls-1" d="M2.58,63.73A4,4,0,0,1,.1,60.87,3.57,3.57,0,0,0,1,61H2.32v1.35A3.88,3.88,0,0,0,2.58,63.73Z"/><path class="cls-2" d="M64,4V60a4,4,0,0,1-4,4H4a3.74,3.74,0,0,1-1.42-.27,3.88,3.88,0,0,1-.26-1.41V61H57a4,4,0,0,0,4-4V2.32h1.35a3.74,3.74,0,0,1,1.42.27A3.88,3.88,0,0,1,64,4Z"/><path class="cls-3" d="M61,2.32V57a4,4,0,0,1-4,4H2.32V6.32a4,4,0,0,1,4-4Z"/><path class="cls-4" d="M61,1V2.32H6.32a4,4,0,0,0-4,4V61H1a3.57,3.57,0,0,1-.87-.1A3.57,3.57,0,0,1,0,60V4A4,4,0,0,1,4,0H60a3.57,3.57,0,0,1,.87.1A3.57,3.57,0,0,1,61,1Z"/><path class="cls-4" d="M9.51,18c0,.71-.89,1.28-2,1.28A2.53,2.53,0,0,1,6,18.86l0,0A1,1,0,0,1,5.52,18c0-.71.89-1.29,2-1.29a2.56,2.56,0,0,1,1.32.33A1.14,1.14,0,0,1,9.51,18Z"/><path class="cls-5" d="M9.29,17.86c0,.72-.89,1.29-2,1.29A2.8,2.8,0,0,1,6,18.86l0,0A1,1,0,0,1,5.52,18c0-.71.89-1.29,2-1.29a2.56,2.56,0,0,1,1.32.33A1,1,0,0,1,9.29,17.86Z"/><path class="cls-2" d="M8.85,17.06a2.68,2.68,0,0,0-1.09-.21c-1.1,0-2,.57-2,1.28a1,1,0,0,0,.46.82L6,18.86l0,0A1.08,1.08,0,0,1,5.52,18c0-.71.89-1.29,2-1.29A2.8,2.8,0,0,1,8.83,17Z"/><path class="cls-4" d="M22.87,27.51c0,.71-.89,1.29-2,1.29a2.53,2.53,0,0,1-1.49-.44l-.05,0a1.06,1.06,0,0,1-.45-.82c0-.71.89-1.29,2-1.29a2.69,2.69,0,0,1,1.32.33A1.16,1.16,0,0,1,22.87,27.51Z"/><path class="cls-5" d="M22.65,27.37c0,.71-.89,1.28-2,1.28a2.8,2.8,0,0,1-1.27-.29l-.05,0a1.06,1.06,0,0,1-.45-.82c0-.71.89-1.29,2-1.29a2.69,2.69,0,0,1,1.32.33A1,1,0,0,1,22.65,27.37Z"/><path class="cls-2" d="M22.21,26.56a2.72,2.72,0,0,0-1.09-.21c-1.1,0-2,.57-2,1.28a1,1,0,0,0,.46.82l-.2-.09-.05,0a1.06,1.06,0,0,1-.45-.82c0-.71.89-1.29,2-1.29a2.71,2.71,0,0,1,1.32.33Z"/><path class="cls-4" d="M13.93,51.18c0,.51-.63.92-1.42.92a1.78,1.78,0,0,1-1.06-.31l0,0a.76.76,0,0,1-.32-.59c0-.5.63-.91,1.42-.91a2,2,0,0,1,.94.23A.8.8,0,0,1,13.93,51.18Z"/><path class="cls-5" d="M13.78,51.08c0,.51-.64.92-1.43.92a1.93,1.93,0,0,1-.9-.21l0,0a.76.76,0,0,1-.32-.59c0-.5.63-.91,1.42-.91a2,2,0,0,1,.94.23A.74.74,0,0,1,13.78,51.08Z"/><path class="cls-2" d="M13.46,50.51a1.9,1.9,0,0,0-.78-.15c-.78,0-1.42.41-1.42.91a.76.76,0,0,0,.32.59l-.14-.07,0,0a.76.76,0,0,1-.32-.59c0-.5.63-.91,1.42-.91a2,2,0,0,1,.94.23Z"/><path class="cls-4" d="M35.11,53.53a1.8,1.8,0,0,1-2,1.61,2.08,2.08,0,0,1-1.45-.55l-.05,0a1.41,1.41,0,0,1-.44-1,1.8,1.8,0,0,1,1.94-1.61,2.14,2.14,0,0,1,1.29.41A1.5,1.5,0,0,1,35.11,53.53Z"/><path class="cls-5" d="M34.89,53.35A1.8,1.8,0,0,1,33,55a2.17,2.17,0,0,1-1.24-.37l-.05,0a1.41,1.41,0,0,1-.44-1,1.8,1.8,0,0,1,1.94-1.61,2.14,2.14,0,0,1,1.29.41A1.41,1.41,0,0,1,34.89,53.35Z"/><path class="cls-2" d="M34.46,52.34a2.17,2.17,0,0,0-1.06-.27,1.81,1.81,0,0,0-1.94,1.61,1.45,1.45,0,0,0,.44,1l-.19-.12s0,0-.05,0a1.48,1.48,0,0,1-.45-1,1.81,1.81,0,0,1,1.95-1.61,2.2,2.2,0,0,1,1.29.4Z"/><path class="cls-4" d="M47,35.78a2.36,2.36,0,0,1-2.55,2.11,2.71,2.71,0,0,1-1.91-.72l-.06,0a1.91,1.91,0,0,1-.59-1.35,2.37,2.37,0,0,1,2.56-2.12,2.89,2.89,0,0,1,1.69.54A2,2,0,0,1,47,35.78Z"/><path class="cls-5" d="M46.72,35.54a2.37,2.37,0,0,1-2.56,2.12,2.87,2.87,0,0,1-1.62-.49l-.06,0a1.91,1.91,0,0,1-.59-1.35,2.37,2.37,0,0,1,2.56-2.12,2.89,2.89,0,0,1,1.69.54A1.86,1.86,0,0,1,46.72,35.54Z"/><path class="cls-2" d="M46.16,34.22a2.85,2.85,0,0,0-1.4-.35A2.36,2.36,0,0,0,42.21,36a1.86,1.86,0,0,0,.58,1.34,1,1,0,0,1-.25-.15s0,0-.06,0a1.91,1.91,0,0,1-.59-1.36,2.36,2.36,0,0,1,2.55-2.1,2.89,2.89,0,0,1,1.7.53Z"/><path class="cls-4" d="M59.1,49.8a1.55,1.55,0,0,1-1.67,1.39,1.85,1.85,0,0,1-1.25-.47l0,0a1.21,1.21,0,0,1-.38-.88,1.55,1.55,0,0,1,1.67-1.38,1.9,1.9,0,0,1,1.1.35A1.28,1.28,0,0,1,59.1,49.8Z"/><path class="cls-5" d="M58.92,49.65A1.55,1.55,0,0,1,57.24,51a1.94,1.94,0,0,1-1.06-.31l0,0a1.21,1.21,0,0,1-.38-.88,1.55,1.55,0,0,1,1.67-1.38,1.9,1.9,0,0,1,1.1.35A1.25,1.25,0,0,1,58.92,49.65Z"/><path class="cls-2" d="M58.55,48.78a2,2,0,0,0-.92-.22A1.54,1.54,0,0,0,56,49.94a1.2,1.2,0,0,0,.38.87,1,1,0,0,1-.17-.1l0,0a1.27,1.27,0,0,1-.38-.89,1.54,1.54,0,0,1,1.67-1.37,1.89,1.89,0,0,1,1.1.34Z"/><path class="cls-4" d="M53.22,23.4c0,1.05-.43,1.91-1,1.91-.29,0-.55-.25-.72-.65l0,0a3.2,3.2,0,0,1-.22-1.22c0-1,.44-1.91,1-1.91a.82.82,0,0,1,.65.48A3,3,0,0,1,53.22,23.4Z"/><path class="cls-5" d="M53.12,23.19c0,1-.44,1.91-1,1.91a.77.77,0,0,1-.61-.44l0,0a3.2,3.2,0,0,1-.22-1.22c0-1,.44-1.91,1-1.91a.82.82,0,0,1,.65.48A3.2,3.2,0,0,1,53.12,23.19Z"/><path class="cls-2" d="M52.9,22a.67.67,0,0,0-.53-.31c-.53,0-1,.85-1,1.9a3.2,3.2,0,0,0,.22,1.22l-.09-.14,0,0a3.2,3.2,0,0,1-.22-1.22c0-1,.44-1.9,1-1.9a.79.79,0,0,1,.64.47Z"/><path class="cls-4" d="M49.24,10.34c0,.76-1.28,1.38-2.88,1.38a4.64,4.64,0,0,1-2.16-.47s0,0-.06,0a1.08,1.08,0,0,1-.66-.88c0-.75,1.29-1.37,2.88-1.37a4.9,4.9,0,0,1,1.91.35C48.87,9.57,49.24,9.93,49.24,10.34Z"/><path class="cls-5" d="M48.93,10.19c0,.76-1.29,1.38-2.89,1.38a5,5,0,0,1-1.84-.32s0,0-.06,0a1.08,1.08,0,0,1-.66-.88c0-.75,1.29-1.37,2.88-1.37a4.9,4.9,0,0,1,1.91.35A1.08,1.08,0,0,1,48.93,10.19Z"/><path class="cls-2" d="M48.29,9.33a5.36,5.36,0,0,0-1.57-.22c-1.6,0-2.89.61-2.89,1.37a1.1,1.1,0,0,0,.66.87l-.29-.1s0,0-.06,0a1.11,1.11,0,0,1-.67-.88c0-.75,1.3-1.37,2.89-1.37a5.13,5.13,0,0,1,1.91.35Z"/><path class="cls-4" d="M30.48,6.35a2.06,2.06,0,0,1-2,2.14A1.92,1.92,0,0,1,27,7.77l-.05,0a2.29,2.29,0,0,1-.45-1.37,2.07,2.07,0,0,1,2-2.15,1.94,1.94,0,0,1,1.32.54A2.21,2.21,0,0,1,30.48,6.35Z"/><path class="cls-5" d="M30.27,6.11a2.08,2.08,0,0,1-2,2.15A1.93,1.93,0,0,1,27,7.77l-.05,0a2.29,2.29,0,0,1-.45-1.37,2.07,2.07,0,0,1,2-2.15,1.94,1.94,0,0,1,1.32.54A2.22,2.22,0,0,1,30.27,6.11Z"/><path class="cls-2" d="M29.83,4.76a1.91,1.91,0,0,0-1.09-.35,2.08,2.08,0,0,0-2,2.14,2.27,2.27,0,0,0,.45,1.37L27,7.76s0,0-.05,0a2.27,2.27,0,0,1-.46-1.38,2.08,2.08,0,0,1,2-2.14,1.94,1.94,0,0,1,1.32.54Z"/></g></g></svg>