<svg xmlns="http://www.w3.org/2000/svg" viewBox="0 0 64 64"><defs><style>.cls-1{opacity:0.6;}.cls-2{fill:#0e531b;}.cls-3{fill:#0e4718;}.cls-4{fill:#56a74c;}.cls-5{fill:#2f8037;}.cls-6{fill:#59c64a;}.cls-7{fill:#36993d;}</style></defs><g id="Layer_2" data-name="Layer 2"><g id="Layer_1-2" data-name="Layer 1"><path class="cls-1" d="M3.08,25.24A23.58,23.58,0,0,0,14.2,35.67a20.8,20.8,0,0,0-9,8.93,20,20,0,0,0,13.58,1.07,24.63,24.63,0,0,0-3.87,16.61,23.17,23.17,0,0,0,12.57-7.46A21.2,21.2,0,0,0,32.61,64a21.48,21.48,0,0,0,4.92-12.38,23.41,23.41,0,0,0,15.24,9.87,24.5,24.5,0,0,0-3.39-14.72,20.07,20.07,0,0,0,8.5-1.57,20.71,20.71,0,0,0-7-8A23.53,23.53,0,0,0,64,26.87a22.87,22.87,0,0,0-18.49-1.32,21.62,21.62,0,0,0,3-13.22,20.36,20.36,0,0,0-8.74,3.92A24.3,24.3,0,0,0,34.12,2.87a24.44,24.44,0,0,0-6.61,17A20.51,20.51,0,0,0,15.2,12a21.65,21.65,0,0,0,1.85,11.57A22.87,22.87,0,0,0,3.08,25.24Z"/><path class="cls-2" d="M29.53,61.13a21.66,21.66,0,0,1-1-28.74Z"/><path class="cls-3" d="M29.53,61.13l-1-28.74A21.66,21.66,0,0,1,29.53,61.13Z"/><path class="cls-2" d="M2.07,41.73a20.4,20.4,0,0,1,26.47-9.34Z"/><path class="cls-3" d="M2.07,41.73l26.47-9.34A20.4,20.4,0,0,1,2.07,41.73Z"/><path class="cls-2" d="M12.13,9.09a21.17,21.17,0,0,1,16.41,23.3Z"/><path class="cls-3" d="M12.13,9.09l16.41,23.3A21.18,21.18,0,0,1,12.13,9.09Z"/><path class="cls-2" d="M45.45,9.46A21.15,21.15,0,0,1,28.54,32.39Z"/><path class="cls-3" d="M45.45,9.46,28.54,32.39A21.16,21.16,0,0,1,45.45,9.46Z"/><path class="cls-2" d="M54.81,42.33a20.44,20.44,0,0,1-26.27-9.94Z"/><path class="cls-3" d="M54.81,42.33,28.54,32.39A20.42,20.42,0,0,1,54.81,42.33Z"/><path class="cls-4" d="M49.7,58.62c-12-2.08-20.54-13.28-19.48-25.9Z"/><path class="cls-4" d="M11.78,59.41c-1.54-12.36,6.39-24.06,18.44-26.69Z"/><path class="cls-5" d="M0,22.37,30.22,32.72A23.21,23.21,0,0,1,0,22.37Z"/><path class="cls-5" d="M31.05,0l-.83,32.72A24.64,24.64,0,0,1,31.05,0Z"/><path class="cls-4" d="M60.92,24a23.16,23.16,0,0,1-30.7,8.72Z"/><path class="cls-5" d="M49.7,58.62,30.22,32.72C42.18,34.8,50.76,46,49.7,58.62Z"/><path class="cls-5" d="M11.78,59.41,30.22,32.72C31.77,45.08,23.84,56.78,11.78,59.41Z"/><path class="cls-4" d="M0,22.37A23.21,23.21,0,0,1,30.22,32.72Z"/><path class="cls-4" d="M31.05,0a24.66,24.66,0,0,1-.83,32.72Z"/><path class="cls-5" d="M60.92,24l-30.7,8.72A23.16,23.16,0,0,1,60.92,24Z"/><path class="cls-6" d="M30.9,46a11.72,11.72,0,0,1-1.06-15.53Z"/><path class="cls-6" d="M15.7,36a11.06,11.06,0,0,1,14.14-5.56Z"/><path class="cls-7" d="M20.55,18.2l9.29,12.28A11.42,11.42,0,0,1,20.55,18.2Z"/><path class="cls-7" d="M38.57,17.77,29.84,30.48A11.46,11.46,0,0,1,38.57,17.77Z"/><path class="cls-6" d="M44.22,35.36a11,11,0,0,1-14.38-4.88Z"/><path class="cls-7" d="M30.9,46,29.84,30.48A11.72,11.72,0,0,1,30.9,46Z"/><path class="cls-7" d="M15.7,36l14.14-5.56A11,11,0,0,1,15.7,36Z"/><path class="cls-6" d="M20.55,18.2a11.42,11.42,0,0,1,9.29,12.28Z"/><path class="cls-6" d="M38.57,17.77a11.46,11.46,0,0,1-8.73,12.71Z"/><path class="cls-7" d="M44.22,35.36,29.84,30.48A11,11,0,0,1,44.22,35.36Z"/></g></g></svg>