<svg xmlns="http://www.w3.org/2000/svg" viewBox="0 0 64 64"><defs><style>.cls-1{opacity:0.6;}.cls-2{fill:#0e531b;}.cls-3{fill:#0e4718;}.cls-4{fill:#56a74c;}.cls-5{fill:#2f8037;}.cls-6{fill:#59c64a;}.cls-7{fill:#36993d;}</style></defs><g id="Layer_2" data-name="Layer 2"><g id="Layer_1-2" data-name="Layer 1"><path class="cls-1" d="M64,41.72A23.71,23.71,0,0,0,52.82,31.33a20.81,20.81,0,0,0,9.1-8.89,20.31,20.31,0,0,0-13.66-1.06A24.32,24.32,0,0,0,52.15,4.83a23.47,23.47,0,0,0-12.64,7.43,21,21,0,0,0-5.2-9.14,21.27,21.27,0,0,0-5,12.33A23.54,23.54,0,0,0,14,5.62a24.33,24.33,0,0,0,3.41,14.66A20.28,20.28,0,0,0,8.9,21.85a20.82,20.82,0,0,0,7,8A23.58,23.58,0,0,0,2.75,40.1a23.23,23.23,0,0,0,18.59,1.31,21.26,21.26,0,0,0-3,13.17,20.48,20.48,0,0,0,8.79-3.91A24.14,24.14,0,0,0,32.78,64a24.18,24.18,0,0,0,6.65-17A20.69,20.69,0,0,0,51.81,55,21.41,21.41,0,0,0,50,43.42,23.19,23.19,0,0,0,64,41.72Z"/><path class="cls-2" d="M31.56,0a21.44,21.44,0,0,1,1,28.63Z"/><path class="cls-3" d="M31.56,0l1,28.63A21.43,21.43,0,0,1,31.56,0Z"/><path class="cls-2" d="M59.17,19.32a20.61,20.61,0,0,1-26.61,9.31Z"/><path class="cls-3" d="M59.17,19.32,32.56,28.63A20.6,20.6,0,0,1,59.17,19.32Z"/><path class="cls-2" d="M49.06,51.83a21.11,21.11,0,0,1-16.5-23.2Z"/><path class="cls-3" d="M49.06,51.83l-16.5-23.2A21.1,21.1,0,0,1,49.06,51.83Z"/><path class="cls-2" d="M15.56,51.45a21.08,21.08,0,0,1,17-22.82Z"/><path class="cls-3" d="M15.56,51.45l17-22.82A21.08,21.08,0,0,1,15.56,51.45Z"/><path class="cls-2" d="M6.15,18.73a20.62,20.62,0,0,1,26.41,9.9Z"/><path class="cls-3" d="M6.15,18.73l26.41,9.9A20.63,20.63,0,0,1,6.15,18.73Z"/><path class="cls-4" d="M11.29,2.5A24,24,0,0,1,30.87,28.29Z"/><path class="cls-4" d="M49.41,1.71A24,24,0,0,1,30.87,28.29Z"/><path class="cls-5" d="M61.25,38.6,30.87,28.29A23.44,23.44,0,0,1,61.25,38.6Z"/><path class="cls-5" d="M30,60.88l.83-32.59A24.39,24.39,0,0,1,30,60.88Z"/><path class="cls-4" d="M0,37a23.41,23.41,0,0,1,30.87-8.69Z"/><path class="cls-5" d="M11.29,2.5,30.87,28.29A24,24,0,0,1,11.29,2.5Z"/><path class="cls-5" d="M49.41,1.71,30.87,28.29A24,24,0,0,1,49.41,1.71Z"/><path class="cls-4" d="M61.25,38.6A23.44,23.44,0,0,1,30.87,28.29Z"/><path class="cls-4" d="M30,60.88a24.38,24.38,0,0,1,.83-32.59Z"/><path class="cls-5" d="M0,37l30.87-8.69A23.41,23.41,0,0,1,0,37Z"/><path class="cls-6" d="M30.19,15.06a11.59,11.59,0,0,1,1.06,15.46Z"/><path class="cls-6" d="M45.47,25a11.16,11.16,0,0,1-14.22,5.53Z"/><path class="cls-7" d="M40.6,42.75,31.25,30.52A11.41,11.41,0,0,1,40.6,42.75Z"/><path class="cls-7" d="M22.48,43.18l8.77-12.66A11.41,11.41,0,0,1,22.48,43.18Z"/><path class="cls-6" d="M16.79,25.67a11.14,11.14,0,0,1,14.46,4.85Z"/><path class="cls-7" d="M30.19,15.06l1.06,15.46A11.59,11.59,0,0,1,30.19,15.06Z"/><path class="cls-7" d="M45.47,25,31.25,30.52A11.15,11.15,0,0,1,45.47,25Z"/><path class="cls-6" d="M40.6,42.75a11.41,11.41,0,0,1-9.35-12.23Z"/><path class="cls-6" d="M22.48,43.18a11.41,11.41,0,0,1,8.77-12.66Z"/><path class="cls-7" d="M16.79,25.67l14.46,4.85A11.14,11.14,0,0,1,16.79,25.67Z"/></g></g></svg>