<svg xmlns="http://www.w3.org/2000/svg" viewBox="0 0 64 64"><defs><style>.cls-1{fill:#9d5d27;}.cls-2{fill:#cc7c46;}.cls-3{fill:#af5b22;}.cls-4{fill:#c96e2b;}.cls-5{fill:none;}.cls-6{fill:#e59055;}.cls-7{fill:#ef9b5b;}</style></defs><g id="Layer_2" data-name="Layer 2"><g id="Layer_1-2" data-name="Layer 1"><path class="cls-1" d="M63.17.93A3,3,0,0,0,61,0H3A3,3,0,0,0,.83.93,3,3,0,0,0,0,3V61a3,3,0,0,0,3,3H61a3,3,0,0,0,3-3V3A3,3,0,0,0,63.17.93ZM59.56,62.56H4.43a3,3,0,0,1-2.11-.87,3,3,0,0,1-.89-2.13V4.44a2.94,2.94,0,0,1,.84-2.07,3,3,0,0,1,2.16-.93H59.56a3,3,0,0,1,2.17.93,3,3,0,0,1,.83,2.07V59.56a3,3,0,0,1-3,3ZM44.5,16.49h-25a3,3,0,0,0-3,3v25a3,3,0,0,0,3,3h25a3,3,0,0,0,3-3v-25a3,3,0,0,0-.84-2.08A3,3,0,0,0,44.5,16.49Z"/><path class="cls-2" d="M61.73,2.37l-15.07,15a3,3,0,0,0-2.16-.92h-25a3,3,0,0,0-2.16.92L2.27,2.37a3,3,0,0,1,2.16-.93H59.56A3,3,0,0,1,61.73,2.37Z"/><path class="cls-3" d="M62.56,4.44V59.56a3,3,0,0,1-.88,2.12l-15.07-15a3,3,0,0,0,.89-2.13v-25a3,3,0,0,0-.84-2.08l15.07-15A3,3,0,0,1,62.56,4.44Z"/><path class="cls-4" d="M61.68,61.68a3,3,0,0,1-2.12.88H4.43a3,3,0,0,1-2.11-.87l15.06-15a3,3,0,0,0,2.11.87h25a3,3,0,0,0,2.11-.87Z"/><path class="cls-4" d="M47.5,19.49v25a3,3,0,0,1-3,3h-25a3,3,0,0,1-3-3v-25a3,3,0,0,1,3-3h25a3,3,0,0,1,2.16.92A3,3,0,0,1,47.5,19.49Z"/><polyline class="cls-5" points="17.33 17.41 32 32.05 46.61 46.64"/><line class="cls-5" x1="63.12" y1="63.12" x2="61.68" y2="61.68"/><line class="cls-5" x1="2.27" y1="2.37" x2="0.83" y2="0.93"/><path class="cls-6" d="M17.38,46.64l-15.06,15a3,3,0,0,1-.89-2.13V4.44a2.94,2.94,0,0,1,.84-2.07l15.06,15a3,3,0,0,0-.84,2.08v25A3,3,0,0,0,17.38,46.64Z"/><polyline class="cls-5" points="17.38 46.64 32 32.05 46.66 17.41"/><line class="cls-5" x1="63.17" y1="0.93" x2="61.73" y2="2.37"/><line class="cls-5" x1="2.32" y1="61.69" x2="0.88" y2="63.12"/><path class="cls-7" d="M55.5,13V51A4.56,4.56,0,0,1,51,55.52H13A4.56,4.56,0,0,1,8.49,51V13A4.56,4.56,0,0,1,13,8.48H51A4.56,4.56,0,0,1,55.5,13Z"/></g></g></svg>