<svg xmlns="http://www.w3.org/2000/svg" viewBox="0 0 24 24"><defs><style>.cls-1{fill:#3b3736;}.cls-2{fill:#353130;}.cls-3{fill:#4a4a4a;}.cls-4{fill:#807674;}.cls-5{fill:#646464;}</style></defs><g id="Layer_2" data-name="Layer 2"><g id="Layer_1-2" data-name="Layer 1"><path class="cls-1" d="M22.83,0a1.66,1.66,0,0,1,0,.32V.87h.51a1.32,1.32,0,0,1,.53.1A1.48,1.48,0,0,0,22.83,0Z"/><path class="cls-1" d="M1,23.9A1.46,1.46,0,0,1,0,22.83a1.66,1.66,0,0,0,.32,0H.87v.51A1.35,1.35,0,0,0,1,23.9Z"/><path class="cls-2" d="M24,1.5v21A1.5,1.5,0,0,1,22.5,24H1.5A1.32,1.32,0,0,1,1,23.9a1.35,1.35,0,0,1-.1-.53v-.51H21.36a1.5,1.5,0,0,0,1.5-1.5V.87h.51a1.32,1.32,0,0,1,.53.1A1.35,1.35,0,0,1,24,1.5Z"/><path class="cls-3" d="M22.86.87V21.36a1.5,1.5,0,0,1-1.5,1.5H.87V2.37A1.5,1.5,0,0,1,2.37.87Z"/><path class="cls-4" d="M22.86.36V.87H2.37a1.5,1.5,0,0,0-1.5,1.5V22.86H.36a1.66,1.66,0,0,1-.32,0,1.24,1.24,0,0,1,0-.33V1.5A1.5,1.5,0,0,1,1.5,0h21a1.24,1.24,0,0,1,.33,0A1.66,1.66,0,0,1,22.86.36Z"/><path class="cls-4" d="M3.57,6.75c0,.27-.34.49-.75.49a.93.93,0,0,1-.56-.17h0a.38.38,0,0,1-.17-.31c0-.26.33-.48.75-.48a1,1,0,0,1,.49.12A.44.44,0,0,1,3.57,6.75Z"/><path class="cls-5" d="M3.48,6.7c0,.27-.33.48-.75.48a1,1,0,0,1-.47-.11h0a.38.38,0,0,1-.17-.31c0-.26.33-.48.75-.48a1,1,0,0,1,.49.12A.4.4,0,0,1,3.48,6.7Z"/><path class="cls-2" d="M3.32,6.4a1.07,1.07,0,0,0-.41-.08c-.41,0-.75.21-.75.48a.43.43,0,0,0,.17.31l-.07,0h0a.38.38,0,0,1-.17-.31c0-.26.33-.48.75-.48a1,1,0,0,1,.49.12Z"/><path class="cls-4" d="M8.58,10.32c0,.26-.34.48-.75.48a.87.87,0,0,1-.56-.17h0a.38.38,0,0,1-.17-.3c0-.27.33-.49.75-.49a.94.94,0,0,1,.49.13A.42.42,0,0,1,8.58,10.32Z"/><path class="cls-5" d="M8.49,10.26c0,.27-.33.49-.75.49a1,1,0,0,1-.47-.12h0a.38.38,0,0,1-.17-.3c0-.27.33-.49.75-.49a.94.94,0,0,1,.49.13A.38.38,0,0,1,8.49,10.26Z"/><path class="cls-2" d="M8.33,10a1.07,1.07,0,0,0-.41-.08c-.41,0-.75.22-.75.48a.38.38,0,0,0,.17.31l-.07,0h0a.38.38,0,0,1-.17-.31c0-.26.33-.48.75-.48a1,1,0,0,1,.49.12Z"/><path class="cls-4" d="M5.22,19.19c0,.19-.23.35-.53.35a.7.7,0,0,1-.4-.12h0a.26.26,0,0,1-.12-.22c0-.19.24-.34.53-.34a.63.63,0,0,1,.35.09A.3.3,0,0,1,5.22,19.19Z"/><path class="cls-5" d="M5.17,19.16c0,.19-.24.34-.54.34a.71.71,0,0,1-.34-.08h0a.26.26,0,0,1-.12-.22c0-.19.24-.34.53-.34a.63.63,0,0,1,.35.09A.27.27,0,0,1,5.17,19.16Z"/><path class="cls-2" d="M5.05,18.94a.72.72,0,0,0-.29-.06c-.3,0-.54.16-.54.35a.31.31,0,0,0,.12.22l0,0h0a.26.26,0,0,1-.12-.22c0-.18.24-.34.53-.34a.63.63,0,0,1,.35.09Z"/><path class="cls-4" d="M13.16,20.07a.67.67,0,0,1-.72.61.78.78,0,0,1-.55-.21h0a.57.57,0,0,1-.16-.39.67.67,0,0,1,.73-.6.85.85,0,0,1,.48.15A.56.56,0,0,1,13.16,20.07Z"/><path class="cls-5" d="M13.09,20a.68.68,0,0,1-.74.6.81.81,0,0,1-.46-.14h0a.57.57,0,0,1-.16-.39.67.67,0,0,1,.73-.6.85.85,0,0,1,.48.15A.58.58,0,0,1,13.09,20Z"/><path class="cls-2" d="M12.92,19.63a.74.74,0,0,0-.4-.1.67.67,0,0,0-.72.6.53.53,0,0,0,.16.38l-.07,0h0a.57.57,0,0,1-.16-.39.67.67,0,0,1,.72-.6.86.86,0,0,1,.49.15Z"/><path class="cls-4" d="M17.63,13.42a.89.89,0,0,1-1,.79,1,1,0,0,1-.72-.27l0,0a.68.68,0,0,1-.22-.5.89.89,0,0,1,1-.8,1.1,1.1,0,0,1,.63.2A.76.76,0,0,1,17.63,13.42Z"/><path class="cls-5" d="M17.52,13.33a.89.89,0,0,1-1,.79,1.12,1.12,0,0,1-.61-.18l0,0a.68.68,0,0,1-.22-.5.89.89,0,0,1,1-.8,1.1,1.1,0,0,1,.63.2A.72.72,0,0,1,17.52,13.33Z"/><path class="cls-2" d="M17.31,12.83a1.11,1.11,0,0,0-.52-.13.89.89,0,0,0-1,.79A.75.75,0,0,0,16,14L16,13.94l0,0a.7.7,0,0,1-.22-.5.89.89,0,0,1,1-.79,1.09,1.09,0,0,1,.63.19Z"/><path class="cls-4" d="M22.16,18.68a.58.58,0,0,1-.62.51.66.66,0,0,1-.47-.17h0a.47.47,0,0,1-.14-.33.58.58,0,0,1,.63-.52.71.71,0,0,1,.41.13A.47.47,0,0,1,22.16,18.68Z"/><path class="cls-5" d="M22.09,18.62a.58.58,0,0,1-.62.52.75.75,0,0,1-.4-.12h0a.47.47,0,0,1-.14-.33.58.58,0,0,1,.63-.52.71.71,0,0,1,.41.13A.45.45,0,0,1,22.09,18.62Z"/><path class="cls-2" d="M22,18.29a.71.71,0,0,0-.34-.08.58.58,0,0,0-.62.52.47.47,0,0,0,.14.33l-.06,0h0a.47.47,0,0,1-.14-.33.58.58,0,0,1,.63-.52.71.71,0,0,1,.41.13Z"/><path class="cls-4" d="M20,8.77c0,.4-.16.72-.37.72s-.2-.09-.27-.24v0a1.22,1.22,0,0,1-.08-.46c0-.39.16-.71.36-.71a.31.31,0,0,1,.25.18A1.15,1.15,0,0,1,20,8.77Z"/><path class="cls-5" d="M19.92,8.7c0,.39-.16.71-.37.71a.31.31,0,0,1-.23-.16v0a1.22,1.22,0,0,1-.08-.46c0-.39.16-.71.36-.71a.31.31,0,0,1,.25.18A1.22,1.22,0,0,1,19.92,8.7Z"/><path class="cls-2" d="M19.84,8.25a.26.26,0,0,0-.2-.12c-.2,0-.37.32-.37.71a1.21,1.21,0,0,0,.09.46l0-.05v0a1.22,1.22,0,0,1-.08-.46c0-.39.16-.71.36-.71a.31.31,0,0,1,.25.18Z"/><path class="cls-4" d="M18.47,3.88c0,.28-.49.51-1.08.51a1.68,1.68,0,0,1-.81-.17h0a.44.44,0,0,1-.25-.33c0-.28.49-.52,1.09-.52a1.87,1.87,0,0,1,.71.13C18.32,3.59,18.47,3.73,18.47,3.88Z"/><path class="cls-5" d="M18.35,3.82c0,.29-.49.52-1.08.52a1.94,1.94,0,0,1-.69-.12h0a.44.44,0,0,1-.25-.33c0-.28.49-.52,1.09-.52a1.87,1.87,0,0,1,.71.13A.41.41,0,0,1,18.35,3.82Z"/><path class="cls-2" d="M18.11,3.5a1.78,1.78,0,0,0-.59-.09c-.6,0-1.08.24-1.08.52a.42.42,0,0,0,.24.33l-.1,0h0a.41.41,0,0,1-.25-.33c0-.28.49-.51,1.08-.51a1.9,1.9,0,0,1,.72.12Z"/><path class="cls-4" d="M11.43,2.38a.78.78,0,0,1-.75.81.73.73,0,0,1-.56-.28v0a.82.82,0,0,1-.17-.51.77.77,0,0,1,.74-.8.7.7,0,0,1,.5.2A.83.83,0,0,1,11.43,2.38Z"/><path class="cls-5" d="M11.35,2.29a.78.78,0,0,1-.75.81.71.71,0,0,1-.48-.19v0a.82.82,0,0,1-.17-.51.77.77,0,0,1,.74-.8.7.7,0,0,1,.5.2A.82.82,0,0,1,11.35,2.29Z"/><path class="cls-2" d="M11.18,1.79a.63.63,0,0,0-.4-.14.78.78,0,0,0-.75.81A.82.82,0,0,0,10.2,3l-.08-.06v0a.82.82,0,0,1-.17-.51.77.77,0,0,1,.74-.8.7.7,0,0,1,.5.2Z"/></g></g></svg>