<svg xmlns="http://www.w3.org/2000/svg" viewBox="0 0 410.67 350.92"><defs><style>.cls-1{fill:#ebebeb;}.cls-2{fill:#e0e0e0;}.cls-3{fill:#f0f0f0;}.cls-4{fill:#f5f5f5;}.cls-5{font-size:38.93px;}.cls-12,.cls-5{font-family:Rubik-Black, Rubik;font-weight:800;}.cls-6{fill:#263238;}.cls-7,.cls-8{fill:#407bff;}.cls-10,.cls-8{opacity:0.3;}.cls-10,.cls-12,.cls-9{fill:#fff;}.cls-11{opacity:0.2;}.cls-12{font-size:22.36px;}</style></defs><g id="Layer_2" data-name="Layer 2"><g id="Background_Complete" data-name="Background Complete"><path class="cls-1" d="M174.51,124.24,175,111.1l-8.07-2.64a77.89,77.89,0,0,0-2.15-13.19l6.84-5-4.65-12.35-8.46.68a77,77,0,0,0-7-11.35l4.38-7.31-9-9.61-7.56,3.87a82.29,82.29,0,0,0-10.84-7.83l1.23-8.4-12-5.44-5.5,6.44a81.36,81.36,0,0,0-13-3l-2.05-8.23L83.9,27.2l-2.6,8.07a81.5,81.5,0,0,0-13.2,2.15L63,30.62,50.68,35.23l.68,8.46A81.05,81.05,0,0,0,40,50.76l-7.28-4.38-9.64,9L27,63a77.38,77.38,0,0,0-7.8,10.84l-8.39-1.26-5.48,12L11.76,90a79.44,79.44,0,0,0-3,13L.45,105.12,0,118.26l8.1,2.64a78.4,78.4,0,0,0,2.15,13.19l-6.83,5,4.64,12.34,8.46-.68a77.31,77.31,0,0,0,7,11.35l-4.38,7.31,9,9.61,7.56-3.87A80.41,80.41,0,0,0,46.59,183l-1.26,8.39,12,5.44,5.53-6.44a80.54,80.54,0,0,0,13,3l2,8.23,13.17.45,2.61-8.07a80.48,80.48,0,0,0,13.19-2.15l5,6.8,12.35-4.61-.65-8.45A83.5,83.5,0,0,0,135,178.6l7.28,4.38,9.64-9-3.87-7.6a76,76,0,0,0,7.8-10.84l8.4,1.26,5.47-12-6.47-5.49a77.61,77.61,0,0,0,3.05-13Zm-88.8,42.57a52.16,52.16,0,1,1,53.9-50.33A52.15,52.15,0,0,1,85.71,166.81Z"/><path class="cls-1" d="M399.39,80.79l3.32-3.1-1.33-2.61a27,27,0,0,0,2.69-3.74l2.9.44,1.88-4.15-2.23-1.89a26.84,26.84,0,0,0,1.05-4.49l2.85-.71.15-4.54-2.79-.9a28,28,0,0,0-.73-4.55l2.34-1.75-1.59-4.26-2.92.23a28.15,28.15,0,0,0-2.43-3.91l1.51-2.51L401,35l-2.6,1.33a28.33,28.33,0,0,0-3.75-2.69l.43-2.9-4.14-1.88L389,31.12a27.19,27.19,0,0,0-4.5-1.05l-.7-2.84-4.54-.16-.91,2.79a27.14,27.14,0,0,0-4.55.74l-1.74-2.35-4.26,1.59.24,2.92a27.12,27.12,0,0,0-3.92,2.43l-2.52-1.51-3.31,3.1,1.33,2.61a26.84,26.84,0,0,0-2.69,3.75L354,42.7l-1.88,4.14,2.23,1.9a26.73,26.73,0,0,0-1.05,4.48l-2.85.72-.15,4.54,2.79.9a28.36,28.36,0,0,0,.73,4.55l-2.35,1.74,1.6,4.25L356,69.7a28.25,28.25,0,0,0,2.43,3.92L357,76.12l3.1,3.33,2.6-1.34a27.52,27.52,0,0,0,3.75,2.7L366,83.69l4.13,1.89,1.9-2.22a29.06,29.06,0,0,0,4.5,1l.7,2.85,4.54.16.91-2.8a26.16,26.16,0,0,0,4.55-.74l1.74,2.36,4.26-1.59L393,81.72a27.67,27.67,0,0,0,3.92-2.43ZM375.77,61.65a6.47,6.47,0,1,1,9.15.32A6.47,6.47,0,0,1,375.77,61.65Z"/><path class="cls-1" d="M278.42,215.7l-10.34-7.14v0a57.87,57.87,0,0,0-4.16-10.77l2.65-10.4-15-16.06L241,173.23a57,57,0,0,0-10.46-4.88h0l-6.42-10.81-22-.75L195,167.12h0a57.05,57.05,0,0,0-10.76,4.15l-10.39-2.65-16.07,15,1.93,10.54h0a56.06,56.06,0,0,0-4.89,10.5L144,211.09l-.75,22,10.35,7.15A54.67,54.67,0,0,0,157.72,251h0l-2.64,10.36,15,16.07,10.49-1.92a57.91,57.91,0,0,0,10.55,4.89h0l6.41,10.8,22,.75,7.14-10.34a57.64,57.64,0,0,0,10.85-4.15h0l10.35,2.64,16.06-15L262,254.58a56,56,0,0,0,4.89-10.49h0l10.81-6.43ZM210,249.09a24.71,24.71,0,1,1,25.55-23.86A24.72,24.72,0,0,1,210,249.09Z"/><path class="cls-1" d="M302,153.32h-.07l-17.32-.6a2.09,2.09,0,0,1-1.74-1l-4.66-7.85a48,48,0,0,1-7.29-3.38l-7.5,1.37a2.11,2.11,0,0,1-1.93-.63l-11.82-12.67a2.1,2.1,0,0,1-.5-2l1.88-7.41a47.32,47.32,0,0,1-2.86-7.47l-7.53-5.2a2.13,2.13,0,0,1-.91-1.81l.6-17.32a2.09,2.09,0,0,1,1-1.74L249.22,81a47.56,47.56,0,0,1,3.37-7.25l-1.38-7.53a2.14,2.14,0,0,1,.64-1.92l12.67-11.83a2.1,2.1,0,0,1,2-.5l7.43,1.89a47.51,47.51,0,0,1,7.45-2.87l5.2-7.53a2.07,2.07,0,0,1,1.81-.91l17.32.6a2.11,2.11,0,0,1,1.74,1L312.1,52a47.4,47.4,0,0,1,7.23,3.37L326.88,54a2.15,2.15,0,0,1,1.93.64l11.82,12.67a2.1,2.1,0,0,1,.5,2l-1.89,7.44a47,47,0,0,1,2.87,7.44l7.52,5.2a2.11,2.11,0,0,1,.92,1.81l-.6,17.32a2.09,2.09,0,0,1-1,1.74l-7.87,4.67a45.32,45.32,0,0,1-3.37,7.25l1.38,7.53a2.13,2.13,0,0,1-.63,1.93L325.76,143.4a2.1,2.1,0,0,1-2,.5L316.4,142a48.1,48.1,0,0,1-7.49,2.87l-5.19,7.52A2.13,2.13,0,0,1,302,153.32Zm-16.09-4.78,15,.52,5-7.2a2.15,2.15,0,0,1,1.19-.84,42.89,42.89,0,0,0,8.15-3.13h0a2.09,2.09,0,0,1,1.46-.16l7,1.8,11-10.25-1.31-7.18a2.11,2.11,0,0,1,.27-1.47,42.21,42.21,0,0,0,3.65-7.83,2.11,2.11,0,0,1,.94-1.17l7.52-4.47.52-15-7.21-5a2.09,2.09,0,0,1-.8-1.07,1,1,0,0,1,0-.16,42.73,42.73,0,0,0-3.11-8.06A2.11,2.11,0,0,1,335,76.4l1.81-7.07-10.25-11-7.19,1.31a2.06,2.06,0,0,1-1.46-.26A42.74,42.74,0,0,0,310,55.73a2.19,2.19,0,0,1-.44-.2,2.13,2.13,0,0,1-.71-.72l-4.47-7.53-15-.52-5,7.21a2.08,2.08,0,0,1-1.24.85,43,43,0,0,0-8.05,3.11,2.17,2.17,0,0,1-1.48.17l-7.08-1.81-11,10.25,1.31,7.18A2.08,2.08,0,0,1,256.7,75l-.09.17A42.52,42.52,0,0,0,253,83.07a2.1,2.1,0,0,1-.91,1.12l-7.53,4.47-.52,15,7.21,5a2.09,2.09,0,0,1,.84,1.19,42.32,42.32,0,0,0,3.11,8.11,2,2,0,0,1,.17.46,2,2,0,0,1,0,1l-1.8,7.06,10.25,11,7.14-1.3a2.13,2.13,0,0,1,1.46.25,42.86,42.86,0,0,0,7.88,3.67,2.09,2.09,0,0,1,1.18.93Zm24.78-94.81h0Zm-15.51,75.85-1.11,0a31.53,31.53,0,1,1,1.11,0Zm0-59.1a27.55,27.55,0,1,0,.95,0Z"/><polygon class="cls-2" points="341.87 28.69 334.7 26.76 332.77 19.59 335.58 16.78 338.55 22.91 344.68 25.88 341.87 28.69"/><path class="cls-2" d="M342.32,23.88a3.35,3.35,0,1,0-4.74-4.73l3.57-5.35,4.79,2.42,1.05,5Z"/><path class="cls-3" d="M335,17.34l5.25-5.25L347.45,14l1.92,7.18-5.25,5.25-7.18-1.92Zm9.54,4.3a3.34,3.34,0,1,0-4.73,0A3.35,3.35,0,0,0,344.56,21.64Z"/><polygon class="cls-2" points="48.66 220.07 52.5 219.04 53.54 215.19 52.03 213.68 50.44 216.97 47.15 218.56 48.66 220.07"/><path class="cls-2" d="M48.42,217.49A1.8,1.8,0,1,1,51,215L49,212.08l-2.57,1.3-.56,2.7Z"/><path class="cls-3" d="M52.33,214l-2.82-2.82-3.85,1-1,3.85,2.82,2.82,3.85-1Zm-5.12,2.31a1.8,1.8,0,1,1,2.54,0A1.81,1.81,0,0,1,47.21,216.29Z"/><path class="cls-3" d="M34.8,9,38,12.22a2.15,2.15,0,0,0,3,0h0a2.15,2.15,0,0,0,0-3L37.82,6a2.14,2.14,0,0,0-3,0h0A2.12,2.12,0,0,0,34.8,9Z"/><path class="cls-2" d="M32.55,1.07a4.59,4.59,0,0,1,6,2.58,4.61,4.61,0,0,1-3,5.79,4.61,4.61,0,0,1-6-2.59A4.59,4.59,0,0,1,32.55,1.07Z"/><rect class="cls-3" x="33.36" y="0.2" width="1.37" height="10.1" transform="translate(40.62 39.07) rotate(-109.76)"/></g><g id="Shadow"><ellipse id="_Path_" data-name="&lt;Path&gt;" class="cls-4" cx="208.43" cy="339.6" rx="193.89" ry="11.32"/></g><g id="Oops_" data-name="Oops!"><text class="cls-5" transform="translate(49.08 54.12) rotate(-10.8)">Өөө...</text></g><g id="_404" data-name="404"><path class="cls-6" d="M87.11,94.94a.57.57,0,0,1-.18,0c-4.5-1.74-7.19-3.45-8.59-5.49A5.16,5.16,0,0,1,75.11,89a6.43,6.43,0,0,1-2.78-2.62,2.59,2.59,0,0,1-2.43.38,6.21,6.21,0,0,1-3-2.42,2.22,2.22,0,0,1-1.55.43c-3-.24-7-6.16-7.29-12.46a.49.49,0,0,1,.47-.52.5.5,0,0,1,.53.47c.27,6,4.11,11.33,6.37,11.52a1.29,1.29,0,0,0,.93-.28,12.25,12.25,0,0,1-1-9.41c.86-3,1.62-4.18,2.53-4,1.72.43,1.5,7,.58,11.29a6,6,0,0,1-.84,2.18,5.4,5.4,0,0,0,2.54,2.21,1.59,1.59,0,0,0,1.68-.34c-.79-1.94-.95-4.58.11-7.94,1.41-4.43,2-4.55,2.31-4.62a.68.68,0,0,1,.65.22c.92,1-.18,7.92-1.35,11.32A5,5,0,0,1,73,85.57a5.53,5.53,0,0,0,2.5,2.5,4.38,4.38,0,0,0,2.27.43,5.89,5.89,0,0,1-.24-.58c-.8-2.14-.41-4.62,1.18-7.57,1.06-2,1.92-2.88,2.71-2.88h0a1.12,1.12,0,0,1,1,.67c.87,1.61.24,6.91-1.49,9.55a3.89,3.89,0,0,1-1.61,1.4c1.34,1.76,3.88,3.31,7.94,4.89a.5.5,0,0,1,.29.64A.51.51,0,0,1,87.11,94.94ZM81.46,78.47s-.57,0-1.83,2.35c-1.44,2.68-1.81,4.89-1.13,6.76a6.68,6.68,0,0,0,.31.67,3,3,0,0,0,1.32-1.11c1.4-2.14,2.07-6.54,1.55-8.25C81.57,78.53,81.46,78.47,81.46,78.47Zm-7.17-4.21A23.12,23.12,0,0,0,73,77.79a11.31,11.31,0,0,0-.39,6.55l.1-.25A33.56,33.56,0,0,0,74.29,74.26ZM67.7,71.11c-.17.16-.65.79-1.35,3.22a11.27,11.27,0,0,0,.73,8.25,7,7,0,0,0,.45-1.41C68.56,76.26,68.26,71.82,67.7,71.11Z"/><path class="cls-6" d="M125.13,147.36a9,9,0,0,1-4.56-1.19.5.5,0,0,1-.18-.68.51.51,0,0,1,.69-.18c3.56,2.09,8.17.63,9.12-.89a.9.9,0,0,0,.15-.68,8.12,8.12,0,0,1-5.13-1.46c-2.55-1.59-2.74-2.07-2.73-2.44a.62.62,0,0,1,.35-.53c1-.5,5.5,1.58,7.38,2.81a3.28,3.28,0,0,1,.62.52,3.58,3.58,0,0,0,1.91-1.14,2.8,2.8,0,0,0,.58-1.12l-.2,0c-1.6.16-3.2-.52-4.91-2.1-1.17-1.09-1.63-1.84-1.48-2.43a.91.91,0,0,1,.72-.65c1.39-.35,4.8,1.11,6.2,2.64a2.9,2.9,0,0,1,.64,1.18c1.3-.61,2.68-2,4.32-4.27a.5.5,0,0,1,.69-.11.49.49,0,0,1,.12.69c-1.89,2.64-3.47,4.14-5.05,4.75a3.69,3.69,0,0,1-.87,2,4.44,4.44,0,0,1-2.18,1.41,1.83,1.83,0,0,1-.28,1.39C130.21,146.3,127.79,147.36,125.13,147.36Zm-.89-6.94c.34.25.82.58,1.51,1a8.06,8.06,0,0,0,3.6,1.32A25.52,25.52,0,0,0,124.24,140.42Zm3.49-4.25a4.33,4.33,0,0,0,1.17,1.39c1.49,1.38,2.84,2,4.13,1.85l.32,0a1.79,1.79,0,0,0-.43-.83C131.51,137,128.42,136,127.73,136.17Z"/><path class="cls-7" d="M138.38,146l-15.59,2.83L108.65,71.61,78.58,77.07l-49,87,5.26,28.7,62.84-11.41,4.3,23.48,30.07-5.46-4.3-23.48,15.58-2.83ZM59.53,160.31l26-45.57,7.24,39.54Z"/><path class="cls-7" d="M263.86,66.35a58.66,58.66,0,0,0-3.19-14.21,46,46,0,0,0-7-12.19A40.44,40.44,0,0,0,241,29.58q-8-4.39-21.22-6.11Q192.32,19.88,177,33.21t-20.2,51a140.05,140.05,0,0,0-1,28.34q1,13,4.78,20.94a43.79,43.79,0,0,0,14.65,17.77q9.47,6.64,25.95,8.79,29.4,3.83,43.57-11.29t18.81-51.1A129.47,129.47,0,0,0,263.86,66.35Z"/><path class="cls-6" d="M210.2,149.8c-2.41-.09-5-.3-7.61-.65-9.15-1.19-16.24-3.51-21.05-6.89a32.58,32.58,0,0,1-11-13.4l-.05-.11c-1.93-4-3.18-9.75-3.74-17a129.75,129.75,0,0,1,.92-26.11c3.57-27.72,10.94-39.28,16.5-44.1,6.48-5.62,15.22-8.16,26.73-7.77,2.36.08,4.85.29,7.42.63,7.39,1,13.23,2.59,17.37,4.85A29.68,29.68,0,0,1,245,46.72,35.41,35.41,0,0,1,250.36,56a47.84,47.84,0,0,1,2.57,11.56,119.7,119.7,0,0,1-.29,28.72c-2.78,21.54-8.13,36.67-15.92,45-5.78,6.16-14.46,9-26.52,8.55Z"/><path class="cls-7" d="M229.77,66.65l.13-3.79-2.33-.76a21.83,21.83,0,0,0-.62-3.8l2-1.46-1.34-3.55-2.44.19a22.88,22.88,0,0,0-2-3.27l1.26-2.11-2.59-2.77-2.18,1.12a24.88,24.88,0,0,0-3.13-2.26l.35-2.42-3.45-1.57-1.59,1.86a23.26,23.26,0,0,0-3.75-.88l-.59-2.37-3.8-.13L202.9,41a24.89,24.89,0,0,0-3.8.62l-1.47-2L194.08,41l.19,2.44a22.94,22.94,0,0,0-3.27,2l-2.1-1.26-2.78,2.58L187.24,49A22.58,22.58,0,0,0,185,52.11l-2.42-.37L181,55.2l1.87,1.59a23.26,23.26,0,0,0-.88,3.75l-2.38.6-.13,3.79,2.33.76a23.72,23.72,0,0,0,.62,3.8l-2,1.45,1.34,3.56,2.44-.2a22.11,22.11,0,0,0,2,3.28L185,79.68l2.59,2.77,2.18-1.11a24.18,24.18,0,0,0,3.13,2.26L192.53,86,196,87.59l1.6-1.86a24.1,24.1,0,0,0,3.75.88l.59,2.37,3.8.13.75-2.33a22.65,22.65,0,0,0,3.8-.62l1.45,2,3.56-1.32-.19-2.44a24,24,0,0,0,3.28-2l2.09,1.26L223.25,81l-1.11-2.18a23.19,23.19,0,0,0,2.25-3.13l2.42.36,1.58-3.45L226.52,71a23.26,23.26,0,0,0,.88-3.75Zm-25.6,12.27a15,15,0,1,1,15.54-14.51A15,15,0,0,1,204.17,78.92Z"/><path class="cls-8" d="M245.56,136.23l.27-2.56-1.53-.62a16,16,0,0,0-.23-2.6l1.4-.88-.71-2.47h-1.67a14,14,0,0,0-1.19-2.31l.95-1.36-1.61-2-1.53.64a14.55,14.55,0,0,0-2-1.67l.37-1.63-2.25-1.23-1.18,1.18a14.73,14.73,0,0,0-2.47-.78l-.29-1.64-2.55-.29-.63,1.54a15,15,0,0,0-2.59.24l-.89-1.41-2.47.72v1.66a16.34,16.34,0,0,0-2.31,1.2l-1.36-1-2,1.6.63,1.53a18.05,18.05,0,0,0-1.67,2l-1.61-.36L213.23,126l1.18,1.16a16,16,0,0,0-.79,2.49L212,130l-.28,2.56,1.54.63a14.93,14.93,0,0,0,.22,2.59l-1.41.88.72,2.47h1.67a15.17,15.17,0,0,0,1.19,2.3l-1,1.36,1.61,2,1.54-.65a14.55,14.55,0,0,0,2,1.67l-.37,1.63,2.25,1.23,1.18-1.17a15.79,15.79,0,0,0,2.48.77l.28,1.64,2.55.29.63-1.54a15.13,15.13,0,0,0,2.59-.24l.89,1.41,2.46-.72v-1.66a16.34,16.34,0,0,0,2.31-1.2l1.35,1,2-1.6-.65-1.54a17.14,17.14,0,0,0,1.68-2l1.61.36,1.24-2.25L243.13,139a15.14,15.14,0,0,0,.78-2.48Zm-12.88-1a4.46,4.46,0,1,1-1.77-6.06A4.47,4.47,0,0,1,232.68,135.24Z"/><path class="cls-9" d="M259.72,93l-3-2.06h0a15.77,15.77,0,0,0-1.2-3.11l.77-3L252,80.21l-3,.56a16.88,16.88,0,0,0-3-1.41h0l-1.85-3.11L237.74,76l-2.06,3h0a16.42,16.42,0,0,0-3.11,1.2l-3-.76-4.63,4.32.55,3h0a16.3,16.3,0,0,0-1.41,3L221,91.68,220.75,98l3,2.06a15.14,15.14,0,0,0,1.19,3.11h0l-.76,3,4.32,4.63,3-.55a16.84,16.84,0,0,0,3,1.41h0l1.85,3.11,6.33.22,2.06-3a16.11,16.11,0,0,0,3.12-1.2h0l3,.76,4.63-4.32-.56-3a15.77,15.77,0,0,0,1.41-3h0l3.12-1.85ZM240,102.64a7.12,7.12,0,1,1,7.37-6.88A7.13,7.13,0,0,1,240,102.64Z"/><path class="cls-7" d="M281.48,42.49l.52-1.26h0a6.55,6.55,0,0,0,1.05-.69l1.16.05,1.36-2-.45-1.08a6.25,6.25,0,0,0,.28-1.21h0l1-.92L286,33.08l-1.26-.53h0a6,6,0,0,0-.68-1l0-1.16L282.13,29l-1.07.44h0a5.82,5.82,0,0,0-1.22-.28l-.93-1-2.34.42-.52,1.26a5.73,5.73,0,0,0-1.05.68h0l-1.16,0-1.36,2,.44,1.07a6.12,6.12,0,0,0-.28,1.23h0l-1,.92.41,2.34,1.26.52a6.89,6.89,0,0,0,.69,1.06h0L274,40.71l2,1.36,1.07-.44a6.18,6.18,0,0,0,1.22.28h0l.92,1ZM276.39,36a2.68,2.68,0,1,1,3.1,2.16A2.66,2.66,0,0,1,276.39,36Z"/><path class="cls-7" d="M254,35.85l-.76-.64a19.77,19.77,0,0,1,6-5l.46.88A19.44,19.44,0,0,0,254,35.85Z"/><path class="cls-7" d="M262,30.16l-.39-.92a23.92,23.92,0,0,1,11.74-1.88l-.09,1A22.83,22.83,0,0,0,262,30.16Z"/><path class="cls-7" d="M260.14,37.08l-.83-.56a16.78,16.78,0,0,1,9.87-6.39l.2,1A15.71,15.71,0,0,0,260.14,37.08Z"/><path class="cls-9" d="M193.78,133.32a.48.48,0,0,1-.36-.15l-2.1-2.16a17.4,17.4,0,0,1-3.14-.59l-3.27,1.44a.51.51,0,0,1-.48,0L179,128.19a.5.5,0,0,1-.22-.42l.06-3.57a16.71,16.71,0,0,1-1.77-2.67l-2.81-1.09a.53.53,0,0,1-.31-.37l-1.3-6.44a.5.5,0,0,1,.14-.45l2.16-2.1a17.84,17.84,0,0,1,.59-3.15l-1.44-3.26a.48.48,0,0,1,0-.48l3.63-5.48a.44.44,0,0,1,.42-.22l3.56.05a18.2,18.2,0,0,1,2.68-1.76L185.47,94a.51.51,0,0,1,.37-.31l6.43-1.3a.52.52,0,0,1,.46.14l2.1,2.16a18.78,18.78,0,0,1,3.15.58l3.26-1.44a.51.51,0,0,1,.48,0l5.48,3.62a.53.53,0,0,1,.22.43l-.06,3.56a17.26,17.26,0,0,1,1.77,2.68l2.81,1.09a.51.51,0,0,1,.31.36l1.3,6.44a.52.52,0,0,1-.14.46l-2.16,2.1a18.08,18.08,0,0,1-.59,3.14L212.1,121a.48.48,0,0,1,0,.48L208.43,127a.52.52,0,0,1-.42.23l-3.56-.06a16.52,16.52,0,0,1-2.68,1.76l-1.09,2.81a.49.49,0,0,1-.37.31l-6.43,1.31Zm-5.64-3.93.14,0a17.57,17.57,0,0,0,3.31.62.48.48,0,0,1,.32.15l2,2.1,5.91-1.2,1.06-2.73a.47.47,0,0,1,.23-.27,16.52,16.52,0,0,0,2.82-1.85.45.45,0,0,1,.32-.11l3.47,0,3.33-5L209.67,118a.57.57,0,0,1,0-.34,17.37,17.37,0,0,0,.62-3.31.48.48,0,0,1,.15-.32l2.1-2-1.2-5.9L208.59,105a.47.47,0,0,1-.26-.24,16.55,16.55,0,0,0-1.85-2.8.52.52,0,0,1-.12-.33l.06-3.47-5-3.33-3.18,1.4a.45.45,0,0,1-.34,0,17.17,17.17,0,0,0-3.32-.61.53.53,0,0,1-.32-.15l-2-2.1-5.91,1.2-1.05,2.73a.55.55,0,0,1-.24.26,16.92,16.92,0,0,0-2.82,1.85.44.44,0,0,1-.32.12l-3.47-.06-3.33,5,1.4,3.18a.5.5,0,0,1,0,.43,18.13,18.13,0,0,0-.58,3.23.5.5,0,0,1-.15.32l-2.1,2,1.2,5.91,2.73,1a.49.49,0,0,1,.27.26,16.83,16.83,0,0,0,1.84,2.79.5.5,0,0,1,.12.33l-.06,3.47,5,3.33,3.19-1.41A.45.45,0,0,1,188.14,129.39Zm4.92-3.24A13.32,13.32,0,0,1,182,105.47h0a13.33,13.33,0,1,1,11.09,20.68ZM182.8,106a12.33,12.33,0,0,0,3.47,17.08A12.33,12.33,0,1,0,182.8,106Z"/><path class="cls-7" d="M384.26,155l-15.69-2.12L379,75.09,348.66,71l-73.45,67.63-3.86,28.92,63.29,8.55-3.15,23.66,30.28,4.09,3.15-23.67,15.7,2.12Zm-79.42-10.72L343.6,109l-5.32,39.84Z"/><path class="cls-6" d="M352.57,203.1h-.09a.5.5,0,0,1-.4-.59L375.4,74.58a.51.51,0,0,1,.58-.4.5.5,0,0,1,.4.58L353.06,202.69A.51.51,0,0,1,352.57,203.1Z"/><path class="cls-6" d="M373.26,76.73a.82.82,0,1,1-.79-.84A.81.81,0,0,1,373.26,76.73Z"/><path class="cls-6" d="M369.93,94a.8.8,0,0,1-.84.79.82.82,0,1,1,.05-1.63A.81.81,0,0,1,369.93,94Z"/><path class="cls-6" d="M366.6,111.33a.82.82,0,0,1-1.64,0,.82.82,0,0,1,.85-.79A.81.81,0,0,1,366.6,111.33Z"/><path class="cls-6" d="M360.05,129.34a.83.83,0,0,1-.85.8.82.82,0,0,1-.79-.85.82.82,0,0,1,1.64.05Z"/><path class="cls-6" d="M359.93,145.94a.82.82,0,0,1-.84.79.82.82,0,0,1-.79-.85.82.82,0,1,1,1.63.06Z"/><path class="cls-6" d="M356.6,163.24a.82.82,0,0,1-.84.79.83.83,0,0,1-.8-.85.82.82,0,0,1,.85-.79A.81.81,0,0,1,356.6,163.24Z"/><path class="cls-6" d="M353.27,180.54a.82.82,0,1,1-.79-.85A.82.82,0,0,1,353.27,180.54Z"/><path class="cls-6" d="M349.94,197.84a.82.82,0,1,1-.79-.85A.83.83,0,0,1,349.94,197.84Z"/><path class="cls-6" d="M359.23,129.82a.5.5,0,0,1-.49-.4.49.49,0,0,1,.38-.59l2.49-.54a.51.51,0,0,1,.59.39.49.49,0,0,1-.38.59l-2.49.54Z"/><path class="cls-6" d="M367.52,120.6a82.82,82.82,0,0,0-3,9.36c-.76,3.54-.8,11.43-.8,11.43"/><path class="cls-6" d="M363.73,141.89h0a.5.5,0,0,1-.5-.5c0-.33,0-8,.81-11.53a82.74,82.74,0,0,1,3-9.44.5.5,0,0,1,.94.36,80.74,80.74,0,0,0-3,9.29c-.74,3.44-.79,11.24-.79,11.32A.5.5,0,0,1,363.73,141.89Z"/></g><g id="Character"><path class="cls-6" d="M180.89,228.2c1.38-22.4-1.17-63.12,40.94-57.73C267,176.25,254.05,229,254.05,229Z"/><circle class="cls-9" cx="209.95" cy="196.36" r="18.38"/><path class="cls-6" d="M212.36,178c-8.7-1.49-18,4.93-18.93,11.43l34.51,3.17C226.72,185.21,219.27,179.2,212.36,178Z"/><path class="cls-6" d="M224,195.91c-.25,4.8-2.87,8.57-5.85,8.42s-5.2-4.18-4.95-9,2.86-8.57,5.84-8.42S224.26,191.1,224,195.91Z"/><path class="cls-7" d="M210,215.74a19.38,19.38,0,1,1,19.37-19.38A19.4,19.4,0,0,1,210,215.74ZM210,179a17.38,17.38,0,1,0,17.37,17.37A17.4,17.4,0,0,0,210,179Z"/><path class="cls-10" d="M248.92,227.64h-.12a.51.51,0,0,1-.37-.61c0-.13,3.22-13.69-.09-27.4a.5.5,0,0,1,1-.24c3.37,14,.13,27.74.09,27.88A.49.49,0,0,1,248.92,227.64Z"/><path class="cls-10" d="M246.13,192.12a.49.49,0,0,1-.45-.29,35.56,35.56,0,0,0-4.74-7.66.5.5,0,1,1,.77-.63,36.9,36.9,0,0,1,4.88,7.87.49.49,0,0,1-.46.71Z"/><path class="cls-6" d="M87.17,333.28H86.8a5,5,0,0,1,.27-10h.1c2.89,0,9.84-3.51,24.37-26.43a5,5,0,0,1,7.51-1.09,207.34,207.34,0,0,0,37.15,25.48,5,5,0,1,1-4.53,8.91A213.7,213.7,0,0,1,116.87,307C104.69,325.33,95.65,333.28,87.17,333.28Z"/><path class="cls-6" d="M118.1,294.86a3,3,0,0,1-.42,0,3,3,0,0,1-2.55-3.39c.71-5-.17-23.63-6.47-38.13a3,3,0,0,1,1.06-3.67c13.7-9.34,42.87-10.46,44.11-10.5a3,3,0,0,1,.21,6c-.27,0-25.78,1-38.89,8.2,5.58,14.44,6.85,32.44,5.92,39A3,3,0,0,1,118.1,294.86Z"/><path class="cls-7" d="M123.14,291c-2-4.71-11-4.17-16.26-.14-2.83,2.16-6.65,8.64-7,11a3.55,3.55,0,0,0,4,4.24c3.44-.3,8.18-5.31,8.18-5.31-3.15,3.09.91,5.27,7,.8C122.38,299.08,125.38,296.25,123.14,291Z"/><path class="cls-6" d="M295.14,229.52a.34.34,0,0,1-.14,0,.49.49,0,0,1-.34-.61c1.33-4.64,2.79-7.48,4.7-9a5.24,5.24,0,0,1,.15-3.26,6.47,6.47,0,0,1,2.36-3,2.56,2.56,0,0,1-.59-2.38,6.24,6.24,0,0,1,2.14-3.16,2.33,2.33,0,0,1-.57-1.5c0-3,5.51-7.53,11.76-8.38a.49.49,0,0,1,.57.42.51.51,0,0,1-.43.57c-5.94.81-10.92,5.11-10.9,7.38a1.35,1.35,0,0,0,.36.9,12.24,12.24,0,0,1,9.29-1.86c3.07.58,4.31,1.23,4.17,2.16-.27,1.76-6.81,2.12-11.19,1.6a6.24,6.24,0,0,1-2.25-.65,5.38,5.38,0,0,0-2,2.73,1.6,1.6,0,0,0,.49,1.64c1.86-1,4.47-1.36,7.92-.6,4.54,1,4.71,1.56,4.81,1.89a.68.68,0,0,1-.16.66c-1,1-7.91.53-11.4-.32a5.27,5.27,0,0,1-1.2-.46,5.52,5.52,0,0,0-2.27,2.71,4.42,4.42,0,0,0-.23,2.3l.56-.29c2.06-1,4.57-.82,7.65.5,2,.88,3,1.65,3.1,2.44a1.1,1.1,0,0,1-.57,1c-1.52,1-6.87.86-9.65-.62a3.89,3.89,0,0,1-1.53-1.48c-1.64,1.49-3,4.16-4.16,8.35A.49.49,0,0,1,295.14,229.52Zm5.42-9.33a3,3,0,0,0,1.22,1.22c2.26,1.2,6.7,1.47,8.37.8.34-.13.39-.25.39-.25s-.06-.56-2.5-1.61c-2.81-1.2-5-1.37-6.83-.52C301,219.94,300.77,220.06,300.56,220.19Zm3.34-6.57.26.07a32.72,32.72,0,0,0,9.93.75,21.78,21.78,0,0,0-3.63-1A11.4,11.4,0,0,0,303.9,213.62Zm1.26-5.62a6.41,6.41,0,0,0,1.44.33c5,.59,9.38-.11,10-.73-.17-.16-.84-.59-3.33-1.06A11.27,11.27,0,0,0,305.16,208Z"/><path class="cls-6" d="M165,331.61c.66-.21.44-.85-.3-.85H151.12c-25.78-2.73-43.79.93-32.44,1.8s-.8.68-9.09,3.81,61.66,3.93,68,0C183.48,332.75,155.83,334.54,165,331.61Z"/><polygon class="cls-7" points="261.9 335.6 144.1 331.7 139.21 217.47 278.32 220.59 261.9 335.6"/><path class="cls-6" d="M180.89,333.42a.5.5,0,0,1-.5-.46l-9.45-114.72a.5.5,0,0,1,.46-.54.5.5,0,0,1,.54.45l9.44,114.72a.49.49,0,0,1-.45.54Z"/><polygon class="cls-7" points="261.9 335.6 293.56 330.78 303.54 224.57 278.32 220.59 261.9 335.6"/><polygon class="cls-11" points="261.9 335.6 293.56 330.78 303.54 224.57 278.32 220.59 261.9 335.6"/><path class="cls-6" d="M154.17,309.68l-2.91-67.86A12.27,12.27,0,0,1,163.8,229l88,2a12.27,12.27,0,0,1,11.88,14L254,313.39a12.26,12.26,0,0,1-12.55,10.52L166,321.42A12.27,12.27,0,0,1,154.17,309.68Z"/><path class="cls-9" d="M242.43,296.52a1.3,1.3,0,0,1-1-.43l-8.56-9.37-9.23,8.44a1.31,1.31,0,0,1-1.86-.08l-8.56-9.37L204,294.15a1.31,1.31,0,0,1-1.85-.08l-8.56-9.37-9.24,8.44a1.26,1.26,0,0,1-.94.34,1.3,1.3,0,0,1-.91-.42L174,283.69l-9.24,8.44a1.31,1.31,0,0,1-1.77-1.94l10.21-9.33A1.3,1.3,0,0,1,175,281l8.56,9.37,9.24-8.44a1.29,1.29,0,0,1,1.85.08l8.56,9.37,9.24-8.44a1.31,1.31,0,0,1,1.85.08l8.56,9.37,9.24-8.44A1.32,1.32,0,0,1,234,284l9.44,10.34a1.32,1.32,0,0,1-.08,1.86A1.31,1.31,0,0,1,242.43,296.52Z"/><polygon class="cls-7" points="84.18 338.03 77.93 335.04 72.34 307.88 75.37 304.54 84.18 338.03"/><polygon class="cls-7" points="84.18 338.03 92.49 333.18 85.37 310.79 75.37 304.54 84.18 338.03"/><polygon class="cls-11" points="84.18 338.03 92.49 333.18 85.37 310.79 75.37 304.54 84.18 338.03"/><path class="cls-6" d="M220.38,343h-.69a5,5,0,0,1,.28-10c7.7.25,24-4.48,33.31-13.52a5,5,0,0,1,2.05-1.2c15.79-4.74,21.67,4.83,21.91,5.24l-8.61,5.09a1.06,1.06,0,0,0,.12.19c-.1-.13-2.34-3-9.46-1.24C247.61,338.18,229.67,343,220.38,343Z"/><polygon class="cls-7" points="219.83 349.62 201.62 348.47 200.18 314.89 224.66 315.81 219.83 349.62"/><polygon class="cls-7" points="219.83 349.62 224.09 345.38 226.72 324.44 224.66 315.81 219.83 349.62"/><polygon class="cls-11" points="219.83 349.62 224.09 345.38 226.72 324.44 224.66 315.81 219.83 349.62"/><path class="cls-6" d="M325.34,336.9a3,3,0,0,1-1.81-.61c-10.39-7.9-24.44-21.93-29.84-35.46a4.24,4.24,0,0,1-.17-.61c-2.63-15.63-5.14-48.54-5.24-49.94a3,3,0,0,1,6-.45c0,.34,2.56,33.57,5.13,49.07,5.37,13.16,19.95,26.67,27.77,32.61a3,3,0,0,1-1.82,5.39Z"/><path class="cls-6" d="M339.21,338.42c-2.32,0-4.95-1.06-7.81-3.13a3,3,0,0,1,3.51-4.86c2.48,1.79,3.83,2,4.3,2a3,3,0,0,1,0,6Z"/><path class="cls-7" d="M332.24,335.2c3.21-9.53,16.37-7.65,20.9-6.23a48.64,48.64,0,0,1,11.07,4.8c2.45,1.61,2.49,4.29-.78,5.82-4,1.89-14.16.21-14.16.21,5.24,2.3,0,6-9.21,2.36C337.07,341,331.1,338.7,332.24,335.2Z"/><path class="cls-6" d="M300.3,254.4c-1.2,8.1-7.9,14.07-13.36,13.27s-5.69-8-4.5-16.14,3.35-14,8.81-13.2S301.49,246.3,300.3,254.4Z"/><circle class="cls-6" cx="168.31" cy="221.24" r="0.82"/><path class="cls-6" d="M176.64,227.14a.82.82,0,1,1-.82-.82A.82.82,0,0,1,176.64,227.14Z"/><path class="cls-6" d="M177.56,324.05a.82.82,0,1,1-.82-.82A.82.82,0,0,1,177.56,324.05Z"/><path class="cls-6" d="M185.07,330a.82.82,0,1,1-.82-.82A.82.82,0,0,1,185.07,330Z"/><text class="cls-12" transform="translate(160.62 267.91) rotate(1.88)">АЛДАА</text></g><g id="Robot_Parts" data-name="Robot Parts"><path class="cls-6" d="M40.94,339.78a9.64,9.64,0,0,1-7.33-3.95.49.49,0,0,1,.13-.69.5.5,0,0,1,.69.12c1.87,2.7,6,4.13,7.81,3.28a1.52,1.52,0,0,0,.47-.33,6.08,6.08,0,0,1-3.53-4.49c-.23-1.26-.41-3,.64-3.21,1.43-.33,3.31,3.14,4,5.77a3.6,3.6,0,0,1,.13,1.35,4.66,4.66,0,0,0,1.79.14,2,2,0,0,0,1.37-.75,5.85,5.85,0,0,1-2.3-4.19c-.39-2.73-.1-3.21.2-3.44a.68.68,0,0,1,.69-.08c1.07.45,2.37,4.33,2.61,6.53a3.2,3.2,0,0,1,0,.69,3.91,3.91,0,0,0,1.35.26,4.33,4.33,0,0,0,2.41-.63,2.34,2.34,0,0,1-.41-.29c-1-.89-1.45-2.3-1.28-4.33.14-1.57.5-2.43,1.13-2.7a1.16,1.16,0,0,1,1.2.24,6.93,6.93,0,0,1,1.73,5.56,3,3,0,0,1-.5,1.15c1.83.32,4.41-.2,6.64-.75a.51.51,0,0,1,.61.37.5.5,0,0,1-.37.6c-2.71.67-5.63,1.22-7.69.62a5.64,5.64,0,0,1-3.5,1.16,4.82,4.82,0,0,1-1.63-.3,2.85,2.85,0,0,1-2.13,1.27,5.54,5.54,0,0,1-2.24-.2,2.21,2.21,0,0,1-1,.89A4.16,4.16,0,0,1,40.94,339.78Zm-.86-8.28a4.5,4.5,0,0,0,.08,2.05A5.09,5.09,0,0,0,43,337.26a2.73,2.73,0,0,0-.11-.71C42.1,333.69,40.61,331.72,40.08,331.5Zm5.57-.87a13.26,13.26,0,0,0,.18,2.06,5.12,5.12,0,0,0,1.52,3.22A16,16,0,0,0,45.65,330.63Zm6.29-.87h0s-.38.19-.52,1.86.16,2.83.93,3.49a3.06,3.06,0,0,0,.6.38,2.26,2.26,0,0,0,.55-1A6.32,6.32,0,0,0,52.3,330C52.1,329.81,52,329.76,51.94,329.76Z"/><polygon class="cls-6" points="187.31 347.34 190.02 342.64 187.31 337.94 184.41 337.94 186.04 342.64 184.41 347.34 187.31 347.34"/><path class="cls-6" d="M184.6,345.09a2.45,2.45,0,1,1,0-4.89l-4.61-.92L178.77,343l2,3.14Z"/><path class="cls-7" d="M185,337.94h-5.43l-2.71,4.7,2.71,4.7H185l2.71-4.7Zm-2.71,7.15a2.45,2.45,0,1,1,2.44-2.45A2.45,2.45,0,0,1,182.28,345.09Z"/><polygon class="cls-7" points="376.32 337.63 374.31 334.14 376.32 330.65 378.48 330.65 377.26 334.14 378.48 337.63 376.32 337.63"/><path class="cls-7" d="M378.34,336a1.82,1.82,0,1,0,0-3.64l3.42-.68.91,2.76-1.53,2.33Z"/><path class="cls-6" d="M378,330.65h4l2,3.49-2,3.49h-4l-2-3.49Zm2,5.31a1.82,1.82,0,1,0-1.82-1.82A1.83,1.83,0,0,0,380.06,336Z"/><path class="cls-6" d="M301.38,342.26h4.52a2.14,2.14,0,0,0,2.14-2.14h0A2.15,2.15,0,0,0,305.9,338h-4.52a2.15,2.15,0,0,0-2.14,2.14h0A2.14,2.14,0,0,0,301.38,342.26Z"/><path class="cls-7" d="M294.16,338.23a4.46,4.46,0,1,1,2,6.18A4.59,4.59,0,0,1,294.16,338.23Z"/><rect class="cls-6" x="297.5" y="335.07" width="1.37" height="10.1" transform="translate(422.85 774.93) rotate(-154.76)"/></g></g></svg>