<svg width="512" height="163" viewBox="0 0 512 163" fill="none" xmlns="http://www.w3.org/2000/svg">
<path d="M71.9278 105.118C68.0378 101.45 62.8982 99.3997 57.5517 99.382C52.3278 99.2912 47.2501 101.108 43.27 104.493C41.1584 106.412 39.4903 108.769 38.3814 111.398C37.2726 114.027 36.7497 116.867 36.8491 119.719C36.805 124.115 38.5061 128.35 41.5793 131.494C44.6526 134.638 48.8473 136.435 53.2435 136.491C56.6224 136.485 59.8611 135.14 62.2504 132.75C64.6396 130.361 65.9846 127.122 65.9909 123.744C66.0564 120.804 64.9908 117.952 63.014 115.775C61.0373 113.598 58.3003 112.264 55.3681 112.047C54.4008 112 53.4545 112.339 52.7373 112.99C52.0201 113.641 51.5909 114.55 51.5439 115.517C51.4969 116.484 51.8362 117.43 52.4869 118.148C53.1377 118.865 54.0467 119.294 55.014 119.341C56.0768 119.468 57.0521 119.993 57.744 120.809C58.4359 121.626 58.7931 122.674 58.7438 123.744C58.7438 127.898 54.7543 129.185 53.3026 129.185C50.8501 129.123 48.5209 128.097 46.8197 126.33C45.1185 124.562 44.1824 122.195 44.2142 119.742C44.2142 110.748 50.942 106.759 57.6107 106.759C59.3598 106.75 61.0936 107.086 62.7121 107.75C64.3306 108.413 65.802 109.39 67.0416 110.624C68.2812 111.858 69.2645 113.325 69.935 114.94C70.6054 116.556 70.9497 118.288 70.9482 120.037C70.9199 120.535 70.9934 121.032 71.1642 121.5C71.335 121.968 71.5995 122.396 71.9415 122.758C72.2835 123.12 72.6958 123.408 73.1531 123.605C73.6105 123.802 74.1032 123.904 74.6012 123.904C75.0992 123.904 75.592 123.802 76.0493 123.605C76.5066 123.408 76.9189 123.12 77.2609 122.758C77.6029 122.396 77.8674 121.968 78.0382 121.5C78.209 121.032 78.2825 120.535 78.2543 120.037C78.273 117.251 77.7214 114.49 76.6334 111.924C75.5454 109.358 73.9441 107.042 71.9278 105.118V105.118Z" fill="white"/>
<path d="M75.6921 28.6698C74.4409 26.6257 72.7143 24.9142 70.6592 23.6811C68.6041 22.4481 66.2814 21.73 63.889 21.5879C56.1226 20.9506 49.9496 25.2941 48.8519 32.2107C48.0493 37.2506 50.3509 41.6532 54.7534 43.4236C56.7291 44.2625 58.9237 44.4375 61.0074 43.9224C63.0911 43.4074 64.9513 42.23 66.3086 40.5673C66.6127 40.1961 66.8403 39.7683 66.9783 39.3087C67.1162 38.8491 67.1618 38.3668 67.1125 37.8895C67.0631 37.4122 66.9197 36.9494 66.6906 36.5277C66.4615 36.1061 66.1511 35.734 65.7775 35.4329C65.0187 34.8261 64.0536 34.5383 63.0864 34.6303C62.6084 34.6806 62.1452 34.8254 61.7237 35.0564C61.3022 35.2874 60.9309 35.6 60.6314 35.9759C60.2551 36.4144 59.7456 36.7176 59.1808 36.8391C58.6159 36.9606 58.0268 36.8937 57.5036 36.6487C56.3233 36.1647 55.8393 35.0552 56.1108 33.3674C56.6655 29.9327 60.1238 28.6462 63.3461 28.9294C64.5876 28.9856 65.7966 29.344 66.8683 29.9734C67.9399 30.6028 68.8417 31.4842 69.4955 32.5412C70.2894 33.8851 70.7687 35.3914 70.8975 36.947C71.0263 38.5026 70.8012 40.0671 70.2391 41.5233C67.9729 47.2714 62.2838 49.5022 55.0485 47.5075C54.5871 47.3734 54.1033 47.3345 53.6265 47.3934C53.1496 47.4522 52.6897 47.6075 52.2748 47.8498C51.8547 48.0839 51.4858 48.3998 51.1898 48.7789C50.8938 49.158 50.6768 49.5926 50.5516 50.0569C50.3019 50.9897 50.431 51.9833 50.9107 52.8212C51.3905 53.6592 52.182 54.2735 53.1128 54.5303C55.3439 55.1653 57.6508 55.4949 59.9704 55.51C63.153 55.611 66.304 54.8517 69.0913 53.3123C71.8787 51.7729 74.1993 49.5102 75.8087 46.7627C77.418 44.0151 78.2566 40.8843 78.2361 37.7002C78.2156 34.5161 77.3367 31.3964 75.6921 28.6698Z" fill="white"/>
<path d="M69.9208 55.9819C64.592 50.5361 57.4551 47.228 49.8556 46.6811C40.1298 45.8549 30.77 49.0417 24.7977 55.3327C19.3682 61.0218 17.1139 68.6112 18.2706 77.3809C19.7814 88.9361 28.3268 96.9031 40.059 97.6703C51.7913 98.4375 60.9386 90.5885 61.8593 78.9153C62.1047 76.6109 61.8337 74.2808 61.0661 72.0942C60.2984 69.9076 59.0534 67.9195 57.4213 66.2742C55.8459 64.7826 53.947 63.6752 51.873 63.0384C49.799 62.4017 47.6059 62.2528 45.4648 62.6034C38.6545 63.406 33.9804 70.0276 34.3463 75.4098C34.3607 75.9025 34.4744 76.3872 34.6807 76.8349C34.8871 77.2826 35.1817 77.684 35.547 78.015C35.9123 78.3459 36.3408 78.5997 36.8066 78.761C37.2724 78.9222 37.766 78.9877 38.2577 78.9535C38.7495 78.9193 39.2292 78.7861 39.6682 78.5618C40.1072 78.3376 40.4964 78.027 40.8123 77.6486C41.1282 77.2702 41.3645 76.8319 41.5068 76.36C41.6492 75.888 41.6947 75.3922 41.6406 74.9022C41.762 73.6592 42.2908 72.4912 43.1446 71.5798C43.9984 70.6683 45.1294 70.0645 46.3619 69.8623C47.4285 69.667 48.5255 69.7164 49.5703 70.0067C50.615 70.2971 51.5803 70.8208 52.3932 71.5383C53.2341 72.4408 53.869 73.5149 54.2541 74.6867C54.6393 75.8584 54.7655 77.0998 54.624 78.3251C54.0102 85.9263 48.2149 90.8718 40.5784 90.376C36.8059 90.2633 33.2019 88.788 30.4331 86.2232C27.6644 83.6584 25.9182 80.1777 25.5176 76.4248C24.656 69.9331 26.2258 64.3857 30.05 60.3844C34.4526 55.7812 41.7941 53.3026 49.2064 53.9636C55.0425 54.3277 60.5337 56.8524 64.6094 61.0454C68.7523 65.4244 70.9477 71.5265 70.9477 78.75V160.05H78.2655V78.7264C78.2537 69.5908 75.3738 61.7418 69.9208 55.9819Z" fill="white"/>
<path d="M112.471 103.773C108.442 103.776 104.579 105.377 101.729 108.225C98.8787 111.072 97.2746 114.934 97.2684 118.963C97.2791 121.439 97.908 123.873 99.0978 126.045C99.048 126.072 99.0006 126.104 98.9562 126.139L85.2764 139.5C84.5917 140.186 84.2072 141.116 84.2072 142.085C84.2072 143.055 84.5917 143.984 85.2764 144.67C85.6151 145.009 86.0172 145.278 86.4597 145.461C86.9022 145.644 87.3764 145.738 87.8554 145.738C88.3344 145.738 88.8086 145.644 89.2511 145.461C89.6936 145.278 90.0957 145.009 90.4344 144.67L103.866 131.498C105.83 132.842 108.082 133.706 110.441 134.021C112.8 134.335 115.2 134.091 117.447 133.307C119.694 132.524 121.726 131.224 123.378 129.511C125.03 127.799 126.258 125.722 126.96 123.449C127.663 121.175 127.822 118.768 127.424 116.422C127.025 114.076 126.082 111.856 124.668 109.941C123.255 108.027 121.412 106.471 119.287 105.4C117.162 104.328 114.815 103.771 112.435 103.773H112.471ZM120.391 118.963C120.393 120.526 119.931 122.054 119.065 123.354C118.198 124.655 116.965 125.669 115.522 126.268C114.078 126.867 112.49 127.024 110.957 126.72C109.424 126.416 108.016 125.663 106.911 124.558C105.806 123.453 105.054 122.045 104.749 120.513C104.445 118.98 104.602 117.391 105.201 115.948C105.801 114.504 106.814 113.271 108.115 112.405C109.415 111.538 110.943 111.076 112.506 111.079C114.596 111.082 116.6 111.913 118.078 113.391C119.556 114.869 120.387 116.873 120.391 118.963V118.963Z" fill="white"/>
<path d="M120.391 40.8741C117.263 40.88 114.182 41.6316 111.402 43.0665C108.622 44.5015 106.225 46.5785 104.409 49.1252C102.593 51.672 101.41 54.6151 100.958 57.7104C100.507 60.8057 100.8 63.9641 101.813 66.9235L85.2889 82.2675C84.7508 82.768 84.3758 83.4188 84.2129 84.1354C84.0499 84.8519 84.1065 85.6009 84.3752 86.2849C84.644 86.9688 85.1124 87.556 85.7196 87.97C86.3267 88.3839 87.0445 88.6055 87.7793 88.6058C88.7027 88.6019 89.5912 88.2524 90.2698 87.6261L105.496 73.4624C107.655 75.9579 110.406 77.871 113.497 79.0262C116.588 80.1814 119.92 80.5416 123.186 80.0738C126.453 79.606 129.549 78.3251 132.192 76.3487C134.834 74.3724 136.938 71.7639 138.31 68.7627C139.682 65.7616 140.277 62.4639 140.043 59.1724C139.808 55.881 138.75 52.7012 136.967 49.925C135.183 47.1489 132.73 44.8652 129.834 43.2838C126.938 41.7024 123.691 40.8738 120.391 40.8741V40.8741ZM132.784 60.5735C132.784 63.0246 132.058 65.4207 130.696 67.4588C129.334 69.4968 127.398 71.0853 125.134 72.0233C122.869 72.9613 120.377 73.2067 117.973 72.7286C115.569 72.2504 113.361 71.07 111.628 69.3368C109.895 67.6036 108.714 65.3953 108.236 62.9913C107.758 60.5872 108.003 58.0954 108.941 55.8308C109.879 53.5662 111.468 51.6307 113.506 50.2689C115.544 48.9071 117.94 48.1802 120.391 48.1802C122.022 48.1756 123.638 48.4926 125.147 49.1132C126.655 49.7338 128.026 50.6458 129.182 51.7969C130.337 52.948 131.254 54.3157 131.881 55.8217C132.507 57.3277 132.83 58.9424 132.832 60.5735H132.784Z" fill="white"/>
<path d="M131.156 82.2674C128.858 82.2575 126.612 82.9465 124.714 84.2429C122.817 85.5393 121.359 87.3819 120.533 89.5263H106.228C105.253 89.5327 104.32 89.9228 103.631 90.6122L91.4859 102.899V48.6051L96.9389 42.5973C98.2013 43.1301 99.5581 43.4031 100.928 43.3999C103.249 43.4341 105.517 42.7073 107.386 41.3306C109.254 39.954 110.621 38.0033 111.276 35.7767C111.931 33.5501 111.839 31.1703 111.013 29.001C110.188 26.8318 108.675 24.9925 106.706 23.7644C104.736 22.5364 102.419 21.9871 100.108 22.2006C97.7966 22.4141 95.619 23.3786 93.9079 24.9466C92.1968 26.5147 91.0463 28.6 90.6324 30.8837C90.2184 33.1675 90.5638 35.5239 91.6157 37.5928L85.1241 44.7454C84.5178 45.4196 84.1816 46.2938 84.1798 47.2005V160.05H91.4977V113.298L107.703 96.8678H120.262C120.862 98.8893 122.012 100.704 123.585 102.109C125.157 103.514 127.089 104.454 129.165 104.824C131.241 105.194 133.379 104.979 135.34 104.203C137.301 103.427 139.007 102.121 140.268 100.431C141.529 98.7411 142.295 96.7336 142.481 94.633C142.666 92.5325 142.263 90.4218 141.318 88.537C140.372 86.6522 138.921 85.0676 137.127 83.9604C135.332 82.8531 133.265 82.267 131.156 82.2674V82.2674ZM100.928 28.9884C101.709 28.9884 102.471 29.2199 103.12 29.6536C103.768 30.0873 104.274 30.7037 104.572 31.4247C104.87 32.1457 104.947 32.939 104.794 33.704C104.641 34.4691 104.264 35.1715 103.712 35.7223C103.159 36.2732 102.456 36.6477 101.69 36.7985C100.925 36.9493 100.132 36.8695 99.4115 36.5693C98.6914 36.2691 98.0765 35.762 97.6448 35.1122C97.213 34.4623 96.9838 33.699 96.9861 32.9188C96.9893 31.8753 97.406 30.8756 98.145 30.1388C98.8839 29.4021 99.8849 28.9883 100.928 28.9884V28.9884ZM131.156 97.7294C130.351 97.7294 129.563 97.4906 128.894 97.0432C128.224 96.5957 127.702 95.9598 127.394 95.2157C127.086 94.4716 127.005 93.6528 127.162 92.8629C127.319 92.073 127.707 91.3475 128.277 90.778C128.846 90.2085 129.572 89.8207 130.362 89.6635C131.152 89.5064 131.97 89.5871 132.714 89.8953C133.458 90.2035 134.094 90.7254 134.542 91.3951C134.989 92.0647 135.228 92.852 135.228 93.6574C135.228 94.7373 134.799 95.7731 134.035 96.5367C133.272 97.3004 132.236 97.7294 131.156 97.7294V97.7294Z" fill="white"/>
<path d="M81.1107 7.76642C95.6179 7.76642 109.799 12.0686 121.861 20.1288C133.923 28.189 143.324 39.6452 148.874 53.0485C154.425 66.4518 155.876 81.2001 153.044 95.4281C150.212 109.656 143.224 122.725 132.965 132.981C122.705 143.238 109.634 150.221 95.405 153.049C81.1761 155.876 66.4282 154.42 53.0267 148.865C39.6252 143.31 28.172 133.906 20.1157 121.841C12.0594 109.777 7.76178 95.5942 7.76645 81.0871C7.79145 61.6448 15.5276 43.0064 29.2775 29.2608C43.0275 15.5153 61.6685 7.78516 81.1107 7.76642V7.76642ZM81.1107 0C65.0675 6.79445e-07 49.3847 4.75766 36.0456 13.6713C22.7065 22.5849 12.3103 35.254 6.17196 50.0764C0.0335792 64.8988 -1.5713 81.2087 1.56028 96.9433C4.69187 112.678 12.4193 127.13 23.7652 138.473C35.1111 149.816 49.5658 157.539 65.3013 160.666C81.0368 163.793 97.3462 162.183 112.167 156.04C126.987 149.898 139.654 139.498 148.563 126.156C157.473 112.815 162.226 97.1303 162.221 81.0871C162.215 59.5793 153.667 38.9545 138.456 23.7484C123.246 8.54233 102.619 -9.10877e-07 81.1107 0V0Z" fill="white"/>
<path d="M217.067 120.064C219.816 120.064 221.201 121.438 221.201 124.198C221.227 125.16 220.917 126.1 220.323 126.857C220.073 127.204 219.745 127.487 219.365 127.683C218.985 127.879 218.564 127.982 218.137 127.983C217.681 127.967 217.228 127.903 216.785 127.792C216.339 127.679 215.882 127.611 215.422 127.589C214.408 127.589 213.89 128.851 213.89 131.386L213.89 147.011C213.89 149.579 214.408 150.852 215.422 150.852C215.881 150.829 216.338 150.765 216.785 150.661C217.228 150.547 217.681 150.48 218.137 150.458C218.564 150.46 218.985 150.564 219.365 150.759C219.744 150.955 220.073 151.238 220.323 151.584C220.918 152.34 221.229 153.281 221.201 154.243C221.236 155.351 220.831 156.428 220.075 157.24C219.721 157.626 219.289 157.931 218.806 158.135C218.324 158.339 217.804 158.437 217.281 158.422C217.113 158.445 216.942 158.445 216.774 158.422L213.203 157.961C212.208 157.843 211.208 157.786 210.206 157.792C208.505 157.792 206.736 157.893 204.878 158.073C202.625 158.298 201.205 158.422 200.518 158.422C199.977 158.443 199.438 158.354 198.932 158.161C198.427 157.967 197.966 157.673 197.578 157.296C196.888 156.521 196.486 155.532 196.441 154.495C196.396 153.459 196.71 152.439 197.33 151.607C197.599 151.27 197.942 150.999 198.333 150.818C198.724 150.636 199.152 150.547 199.583 150.559C200.032 150.58 200.477 150.648 200.912 150.762C201.348 150.868 201.793 150.932 202.242 150.953C202.996 150.953 203.47 150.469 203.661 149.489C203.761 148.701 203.799 147.906 203.774 147.112L203.774 131.431C203.802 130.655 203.764 129.879 203.661 129.11C203.47 128.13 202.996 127.634 202.242 127.634C201.793 127.655 201.347 127.723 200.912 127.837C200.459 127.951 199.994 128.015 199.527 128.028C199.101 128.027 198.681 127.924 198.303 127.728C197.925 127.532 197.599 127.249 197.352 126.902C196.759 126.071 196.459 125.067 196.5 124.047C196.541 123.027 196.92 122.05 197.578 121.269C197.969 120.89 198.434 120.594 198.943 120.401C199.452 120.207 199.996 120.119 200.541 120.143C201.115 120.143 202.433 120.255 204.506 120.481C205.86 120.632 207.221 120.707 208.584 120.706C209.643 120.706 211.164 120.616 213.09 120.424C215.017 120.233 216.38 120.143 217.022 120.143L217.067 120.064ZM217.022 116.369C216.526 116.369 215.557 116.369 212.73 116.673C210.882 116.842 209.463 116.932 208.528 116.932C207.304 116.93 206.082 116.862 204.866 116.729C201.926 116.414 200.98 116.369 200.484 116.369C199.436 116.322 198.39 116.495 197.412 116.875C196.435 117.254 195.547 117.834 194.805 118.575C194.063 119.317 193.484 120.205 193.104 121.183C192.724 122.16 192.552 123.207 192.598 124.255C192.611 126.079 193.256 127.843 194.423 129.245C195.03 130.014 195.804 130.635 196.686 131.06C197.568 131.486 198.536 131.705 199.515 131.701L199.989 131.701L199.989 146.695L199.572 146.695C198.588 146.683 197.615 146.892 196.724 147.307C195.832 147.723 195.046 148.334 194.423 149.095C193.205 150.652 192.584 152.594 192.673 154.569C192.762 156.544 193.554 158.423 194.908 159.864C195.645 160.603 196.524 161.183 197.492 161.57C198.461 161.958 199.498 162.144 200.541 162.117C201.104 162.117 202.151 162.117 205.283 161.768C206.926 161.593 208.577 161.502 210.229 161.498C211.072 161.49 211.915 161.539 212.752 161.644L216.132 162.072C216.504 162.139 216.881 162.173 217.258 162.174C218.303 162.191 219.34 161.986 220.299 161.573C221.258 161.159 222.119 160.546 222.823 159.774C224.116 158.331 224.862 156.481 224.934 154.545C225.006 152.609 224.399 150.709 223.218 149.174C222.606 148.397 221.825 147.769 220.935 147.338C220.046 146.907 219.07 146.683 218.081 146.684L217.608 146.684L217.608 131.667L218.081 131.667C219.062 131.67 220.03 131.451 220.914 131.025C221.798 130.6 222.574 129.98 223.184 129.211C224.331 127.782 224.945 125.997 224.919 124.164C224.919 119.365 221.81 116.279 217.033 116.279L217.022 116.369Z" fill="white"/>
<path d="M264.595 120.12C264.936 120.073 265.282 120.105 265.609 120.213C265.935 120.32 266.232 120.501 266.478 120.741C266.724 120.982 266.911 121.275 267.026 121.599C267.141 121.923 267.18 122.269 267.141 122.61C267.141 123.173 267.141 124.018 266.995 125.133C266.848 126.249 266.86 127.082 266.86 127.646C266.86 128.209 266.916 129.155 267.029 130.361C267.175 131.949 267.254 132.85 267.254 133.087C267.329 134.317 266.926 135.528 266.127 136.466C265.732 136.884 265.252 137.211 264.72 137.427C264.187 137.643 263.615 137.742 263.041 137.717C260.213 137.717 258.794 136.083 258.794 132.839C258.807 132.235 258.864 131.633 258.963 131.037C259.063 130.475 259.119 129.906 259.132 129.335C259.132 127.972 258.309 127.296 256.642 127.296C256.227 127.26 255.81 127.318 255.42 127.464C255.03 127.61 254.678 127.842 254.389 128.141C253.847 129.025 253.606 130.061 253.702 131.093L253.702 147.405C253.702 149.737 254.344 150.909 255.628 150.909C256.244 150.887 256.857 150.823 257.464 150.717C258.074 150.603 258.692 150.535 259.312 150.514C259.77 150.453 260.236 150.498 260.674 150.647C261.112 150.795 261.51 151.042 261.837 151.369C262.164 151.696 262.411 152.094 262.559 152.532C262.707 152.97 262.753 153.436 262.691 153.894C262.691 156.898 261.276 158.4 258.444 158.4C257.142 158.392 255.841 158.317 254.547 158.175C252.293 157.95 250.333 157.837 248.711 157.837C247.089 157.837 245.106 157.95 242.876 158.175C241.581 158.319 240.28 158.394 238.978 158.4C236.146 158.4 234.731 157.026 234.731 154.277C234.731 151.776 235.857 150.537 238.189 150.537C238.805 150.558 239.419 150.626 240.025 150.74C240.632 150.846 241.246 150.91 241.862 150.931C243.146 150.931 243.788 149.805 243.788 147.428L243.788 131.127C243.788 128.592 242.864 127.33 241.017 127.33C239.169 127.33 238.246 127.972 238.246 129.257C238.263 129.835 238.327 130.412 238.437 130.98C238.549 131.549 238.617 132.125 238.64 132.704C238.64 136.076 237.224 137.758 234.393 137.751C233.794 137.784 233.196 137.681 232.644 137.449C232.091 137.216 231.599 136.861 231.205 136.41C230.414 135.445 230.012 134.22 230.078 132.974C230.078 132.49 230.157 131.6 230.303 130.316C230.411 129.414 230.468 128.508 230.472 127.601C230.472 127.15 230.416 126.226 230.303 124.829C230.225 123.883 230.191 123.128 230.191 122.576C230.153 122.24 230.192 121.9 230.304 121.581C230.415 121.262 230.598 120.972 230.837 120.732C231.076 120.493 231.366 120.311 231.685 120.199C232.004 120.087 232.344 120.049 232.68 120.087C233.548 120.087 234.641 120.087 235.97 120.256C238.989 120.526 243.214 120.65 248.643 120.65C254.073 120.65 258.354 120.526 261.385 120.256C262.703 120.143 263.773 120.087 264.606 120.087L264.595 120.12ZM264.606 116.313C263.671 116.313 262.511 116.369 261.058 116.493C258.163 116.752 253.994 116.876 248.666 116.876C243.337 116.876 239.203 116.752 236.274 116.493C234.81 116.369 233.638 116.313 232.658 116.313C231.822 116.263 230.986 116.392 230.204 116.689C229.422 116.987 228.711 117.446 228.12 118.038C227.528 118.63 227.068 119.34 226.771 120.122C226.473 120.905 226.345 121.741 226.394 122.576C226.394 123.218 226.394 124.075 226.518 125.145C226.62 126.384 226.676 127.206 226.676 127.612C226.671 128.365 226.626 129.117 226.541 129.865C226.398 130.888 226.311 131.919 226.282 132.952C226.203 135.123 226.948 137.243 228.366 138.888C229.11 139.72 230.027 140.379 231.052 140.819C232.078 141.259 233.187 141.469 234.303 141.434C236.386 141.487 238.407 140.723 239.935 139.305L239.935 146.831C239.332 146.733 238.722 146.68 238.11 146.673C233.717 146.673 230.878 149.624 230.878 154.187C230.878 159.054 233.953 162.073 238.899 162.073C240.149 162.073 241.546 161.994 243.18 161.836C245.286 161.622 247.111 161.509 248.632 161.509C250.153 161.509 251.955 161.622 254.085 161.836C255.752 161.994 257.16 162.073 258.365 162.073C263.311 162.073 266.386 158.918 266.386 153.838C266.447 152.88 266.304 151.921 265.966 151.024C265.627 150.126 265.102 149.311 264.424 148.632C263.746 147.953 262.932 147.427 262.035 147.087C261.138 146.747 260.179 146.602 259.222 146.662C258.606 146.668 257.993 146.721 257.385 146.819L257.385 139.339C258.141 140.041 259.027 140.586 259.994 140.944C260.96 141.301 261.988 141.464 263.018 141.423C264.11 141.448 265.196 141.242 266.203 140.819C267.211 140.395 268.118 139.765 268.865 138.967C270.326 137.343 271.102 135.215 271.028 133.03C271.028 132.693 271.028 132.186 270.791 129.955C270.656 128.592 270.633 127.916 270.633 127.589C270.633 127.094 270.633 126.373 270.757 125.336C270.859 124.075 270.915 123.139 270.915 122.497C270.96 121.658 270.826 120.819 270.524 120.035C270.221 119.252 269.756 118.541 269.159 117.949C268.562 117.358 267.847 116.899 267.061 116.603C266.274 116.308 265.434 116.182 264.595 116.234L264.606 116.313Z" fill="white"/>
<path d="M311.878 119.751C313.577 119.67 315.272 119.977 316.834 120.651C318.396 121.325 319.783 122.346 320.89 123.638C320.82 122.704 321.079 121.776 321.622 121.013C322.293 120.47 323.152 120.215 324.01 120.303C326.354 120.303 327.525 121.283 327.525 123.255C327.525 123.807 327.525 124.607 327.356 125.677C327.187 126.747 327.199 127.536 327.199 128.088C327.209 128.562 327.242 129.036 327.3 129.507C327.366 129.981 327.403 130.459 327.413 130.938L327.413 131.208C327.413 133.371 326.173 134.441 323.684 134.441C321.6 134.441 320.36 133.563 319.955 131.816L319.685 130.69C319.133 128.324 317.195 127.13 313.872 127.13C310.732 127.13 309.159 128.226 309.151 130.419C309.097 130.86 309.163 131.307 309.341 131.714C309.519 132.12 309.804 132.471 310.165 132.729C311.81 133.409 313.531 133.886 315.291 134.148C319.895 135.057 323.241 136.428 325.328 138.26C326.371 139.193 327.193 140.346 327.735 141.636C328.276 142.926 328.524 144.32 328.46 145.718C328.516 147.414 328.206 149.102 327.553 150.669C326.9 152.235 325.919 153.643 324.675 154.798C322.044 157.195 318.578 158.465 315.021 158.335C311.586 158.27 308.278 157.029 305.648 154.82C305.677 155.25 305.61 155.682 305.452 156.082C305.293 156.483 305.048 156.844 304.733 157.139C304.418 157.433 304.042 157.654 303.631 157.785C303.22 157.916 302.786 157.954 302.358 157.896C299.985 157.896 298.795 156.724 298.787 154.381C298.791 153.556 298.848 152.732 298.956 151.914C299.08 151.025 299.152 150.13 299.17 149.233C299.17 148.827 299.17 148.208 299.035 147.363C298.9 146.518 298.9 145.898 298.9 145.504C298.892 145.048 298.996 144.597 299.202 144.191C299.408 143.784 299.71 143.435 300.083 143.172C300.965 142.535 302.038 142.217 303.124 142.271C304.2 142.164 305.273 142.488 306.11 143.172C306.872 144.142 307.324 145.32 307.405 146.552C307.8 149.3 309.884 150.663 313.658 150.663C314.975 150.722 316.272 150.324 317.33 149.537C317.767 149.204 318.118 148.771 318.355 148.276C318.592 147.78 318.708 147.236 318.693 146.687C318.744 146.169 318.66 145.646 318.449 145.17C318.238 144.694 317.907 144.281 317.488 143.972C315.662 143.086 313.726 142.449 311.731 142.079L308.115 141.2C306.522 140.789 305.028 140.061 303.721 139.06C302.463 138.159 301.444 136.963 300.757 135.576C300.069 134.189 299.733 132.654 299.779 131.107C299.725 129.579 299.999 128.059 300.582 126.646C301.165 125.233 302.043 123.962 303.158 122.917C305.549 120.758 308.693 119.625 311.911 119.762L311.878 119.751ZM311.911 116.101C307.758 115.953 303.712 117.441 300.646 120.247C299.166 121.632 297.998 123.318 297.221 125.19C296.444 127.063 296.075 129.08 296.14 131.107C296.082 134.161 297.09 137.141 298.99 139.533C298.591 139.735 298.214 139.976 297.864 140.254C297.05 140.86 296.391 141.649 295.939 142.557C295.487 143.465 295.255 144.467 295.261 145.481C295.271 146.235 295.324 146.987 295.419 147.734C295.487 148.388 295.532 148.861 295.532 149.199C295.511 149.953 295.447 150.705 295.34 151.452C295.218 152.42 295.154 153.394 295.149 154.37C295.149 158.729 297.976 161.534 302.37 161.534C304.044 161.585 305.681 161.038 306.988 159.991C309.473 161.284 312.231 161.963 315.032 161.974C319.513 162.113 323.87 160.496 327.176 157.468C328.791 155.975 330.068 154.155 330.921 152.128C331.774 150.102 332.183 147.916 332.122 145.718C332.205 142.332 330.997 139.041 328.742 136.514C329.501 135.867 330.103 135.057 330.503 134.143C330.903 133.23 331.09 132.238 331.051 131.242L331.051 130.972C331.039 130.346 330.99 129.721 330.905 129.101C330.905 128.685 330.826 128.347 330.826 128.121C330.826 127.896 330.826 127.288 330.972 126.082C331.119 124.877 331.153 123.953 331.153 123.289C331.153 119.278 328.348 116.676 323.988 116.676C322.418 116.604 320.869 117.056 319.583 117.96C317.213 116.702 314.561 116.07 311.878 116.124L311.911 116.101Z" fill="white"/>
<path d="M350.857 129.022C353.691 128.902 356.49 129.691 358.844 131.275C359.811 131.898 360.607 132.753 361.158 133.763C361.709 134.772 361.998 135.904 361.998 137.055C362.022 137.712 361.908 138.367 361.661 138.976C361.414 139.586 361.042 140.136 360.567 140.592C360.073 141.046 359.495 141.398 358.864 141.628C358.234 141.858 357.565 141.961 356.895 141.932C355.806 141.989 354.733 141.649 353.876 140.975C353.51 140.674 353.218 140.293 353.023 139.861C352.828 139.429 352.734 138.959 352.749 138.485C352.76 137.893 352.953 137.319 353.301 136.84C352.485 136.262 351.508 135.955 350.507 135.962C349.743 135.953 348.989 136.131 348.309 136.481C347.63 136.83 347.047 137.34 346.609 137.967C345.53 139.536 345 141.417 345.1 143.318C345.003 145.29 345.562 147.239 346.688 148.861C347.169 149.524 347.803 150.06 348.538 150.423C349.272 150.786 350.083 150.965 350.902 150.945C351.784 150.944 352.644 150.662 353.355 150.139C354.066 149.617 354.592 148.881 354.856 148.038C355.154 147.196 355.601 146.414 356.174 145.729C356.876 145.234 357.729 145.003 358.585 145.075C359.137 145.053 359.689 145.142 360.207 145.335C360.726 145.529 361.2 145.823 361.604 146.202C361.98 146.579 362.274 147.03 362.467 147.527C362.661 148.023 362.751 148.554 362.73 149.086C362.696 150.376 362.35 151.639 361.72 152.765C361.09 153.892 360.196 154.848 359.114 155.552C356.616 157.414 353.565 158.382 350.451 158.301C348.551 158.392 346.652 158.086 344.877 157.401C343.102 156.716 341.49 155.668 340.143 154.324C337.575 151.681 336.294 148.125 336.302 143.656C336.309 139.187 337.623 135.624 340.245 132.965C342.881 130.329 346.425 129.015 350.879 129.022L350.857 129.022ZM350.879 125.361C345.438 125.361 340.988 127.051 337.665 130.385C334.341 133.72 332.64 138.17 332.64 143.656C332.64 149.142 334.285 153.524 337.507 156.859C339.193 158.56 341.214 159.891 343.443 160.768C345.671 161.644 348.058 162.047 350.451 161.951C354.338 162.016 358.137 160.792 361.254 158.47C365.434 155.293 366.313 151.621 366.313 149.086C366.347 147.902 366.094 146.728 365.576 145.662C365.058 144.597 364.291 143.673 363.339 142.969C364.834 141.377 365.644 139.261 365.592 137.077C365.594 135.347 365.169 133.643 364.356 132.116C363.542 130.59 362.365 129.287 360.928 128.324C357.948 126.285 354.397 125.248 350.789 125.361L350.879 125.361Z" fill="white"/>
<path d="M382.545 119.864C383.559 119.864 384.066 120.528 384.066 121.846L384.066 132.199C385.281 131.074 386.655 130.133 388.144 129.405C389.441 128.895 390.828 128.654 392.222 128.696C395.729 128.696 398.219 129.789 399.691 131.974C400.671 133.45 401.166 135.782 401.166 138.992L401.166 148.726C401.166 150.618 401.538 151.565 402.293 151.565C402.561 151.569 402.828 151.527 403.082 151.441C403.379 151.36 403.686 151.323 403.994 151.328C405.65 151.328 406.484 152.297 406.484 154.223C406.484 156.859 405.357 158.177 403.104 158.177C402.158 158.159 401.214 158.084 400.276 157.952C399.335 157.827 398.387 157.752 397.438 157.727C396.54 157.752 395.645 157.827 394.756 157.952C393.864 158.082 392.965 158.157 392.064 158.177C391.642 158.187 391.223 158.107 390.834 157.942C390.445 157.777 390.097 157.531 389.811 157.22C389.202 156.515 388.888 155.604 388.932 154.674C388.932 152.747 389.653 151.733 391.084 151.61C391.726 151.61 392.12 151.407 392.278 151.103C392.457 150.617 392.534 150.099 392.503 149.582L392.503 140.919C392.503 137.787 391.313 136.221 388.932 136.221C385.688 136.221 384.066 138.474 384.066 142.98L384.066 149.661C384.011 150.174 384.1 150.693 384.325 151.159C384.728 151.453 385.211 151.618 385.71 151.632C386.882 151.82 387.468 152.766 387.468 154.471C387.468 156.957 386.431 158.2 384.359 158.2C383.544 158.173 382.731 158.098 381.925 157.975C380.853 157.833 379.773 157.758 378.692 157.749C377.841 157.753 376.99 157.81 376.146 157.918C374.636 158.11 373.679 158.2 373.262 158.2C372.796 158.216 372.332 158.13 371.902 157.949C371.472 157.769 371.087 157.497 370.772 157.152C370.118 156.416 369.774 155.455 369.815 154.471C369.815 152.319 370.727 151.238 372.586 151.238C372.906 151.258 373.222 151.326 373.521 151.441C373.817 151.553 374.129 151.618 374.445 151.632C375.087 151.632 375.414 150.584 375.414 148.467L375.414 129.62C375.414 127.513 375.087 126.454 374.445 126.454C374.096 126.469 373.753 126.545 373.431 126.679C373.139 126.765 372.834 126.803 372.53 126.792C370.716 126.792 369.815 125.756 369.815 123.683C369.766 122.677 370.109 121.692 370.772 120.934C371.087 120.59 371.472 120.317 371.902 120.137C372.332 119.956 372.796 119.87 373.262 119.886C373.982 119.904 374.7 119.96 375.414 120.055C376.127 120.151 376.846 120.208 377.565 120.224C378.578 120.233 379.59 120.176 380.596 120.055C381.241 119.959 381.892 119.903 382.545 119.886L382.545 119.864ZM382.545 116.112C381.723 116.128 380.902 116.196 380.089 116.315C379.252 116.414 378.409 116.459 377.565 116.45C376.993 116.438 376.421 116.393 375.853 116.315C374.994 116.197 374.129 116.129 373.262 116.112C372.274 116.094 371.293 116.286 370.385 116.674C369.476 117.062 368.66 117.639 367.99 118.365C366.684 119.819 365.986 121.718 366.041 123.671C366.041 127.524 368.204 130.126 371.674 130.51L371.674 147.498C368.294 147.903 366.041 150.539 366.041 154.448C366.001 156.384 366.702 158.262 368.001 159.698C368.668 160.426 369.482 161.003 370.389 161.391C371.296 161.78 372.276 161.971 373.262 161.951C374.394 161.915 375.523 161.81 376.642 161.636C377.329 161.549 378.022 161.504 378.715 161.501C379.634 161.509 380.552 161.573 381.463 161.692C382.43 161.838 383.404 161.924 384.381 161.951C385.765 161.958 387.122 161.567 388.29 160.825C389.43 161.574 390.768 161.966 392.132 161.951C393.191 161.932 394.249 161.845 395.297 161.692C396.044 161.584 396.796 161.52 397.55 161.501C398.346 161.521 399.14 161.589 399.927 161.703C401.018 161.849 402.116 161.931 403.217 161.951C407.531 161.951 410.325 158.921 410.325 154.223C410.325 150.584 408.219 148.027 405.008 147.622L405.008 138.992C405.008 134.982 404.321 132.008 402.901 129.879C401.482 127.749 398.294 124.922 392.289 124.922C390.808 124.901 389.331 125.099 387.907 125.508L387.907 121.846C387.907 117.892 385.158 116.09 382.612 116.09L382.545 116.112Z" fill="white"/>
<path d="M426.795 129.022C431.143 129.022 434.572 130.299 437.08 132.853C439.589 135.406 440.839 138.917 440.832 143.386C440.832 148.057 439.615 151.711 437.182 154.347C434.748 156.983 431.369 158.301 427.043 158.301C422.537 158.301 419.037 157.021 416.544 154.46C414.05 151.899 412.807 148.279 412.815 143.6C412.815 138.988 414.039 135.399 416.487 132.83C418.936 130.262 422.371 128.974 426.795 128.966L426.795 129.022ZM426.908 151.497C430.31 151.497 432.011 148.868 432.011 143.611C432.011 138.35 430.265 135.725 426.795 135.725C426.03 135.711 425.275 135.899 424.606 136.271C423.937 136.643 423.379 137.186 422.987 137.843C422.069 139.637 421.59 141.624 421.59 143.639C421.59 145.655 422.069 147.641 422.987 149.435C423.405 150.091 423.986 150.628 424.673 150.994C425.36 151.359 426.13 151.54 426.908 151.519L426.908 151.497ZM426.795 125.327C421.354 125.327 416.994 127.006 413.84 130.329C410.686 133.652 409.153 138.068 409.153 143.622C409.153 149.176 410.753 153.761 413.885 156.972C417.017 160.182 421.466 161.917 427.02 161.917C432.574 161.917 436.731 160.194 439.874 156.791C443.017 153.389 444.493 148.906 444.493 143.352C444.493 137.798 442.882 133.517 439.694 130.262C436.506 127.006 432.146 125.327 426.795 125.327ZM426.908 147.858C426.728 147.883 426.546 147.851 426.386 147.766C426.226 147.681 426.097 147.548 426.018 147.385C425.401 146.224 425.131 144.91 425.24 143.6C425.152 142.297 425.424 140.995 426.029 139.837C426.344 139.364 426.513 139.364 426.795 139.364C427.257 139.364 428.35 139.364 428.35 143.6C428.35 146.416 427.865 147.847 426.908 147.847L426.908 147.858Z" fill="white"/>
<path d="M462.733 129.022C467.081 129.022 470.509 130.299 473.018 132.853C475.526 135.406 476.777 138.917 476.769 143.386C476.769 148.057 475.553 151.711 473.119 154.347C470.686 156.983 467.306 158.301 462.98 158.301C458.474 158.301 454.974 157.021 452.481 154.46C449.988 151.899 448.745 148.279 448.752 143.6C448.752 138.988 449.976 135.399 452.425 132.83C454.873 130.262 458.309 128.974 462.733 128.966L462.733 129.022ZM462.834 151.497C466.236 151.497 467.937 148.868 467.937 143.611C467.937 138.354 466.202 135.725 462.733 135.725C461.966 135.712 461.21 135.901 460.54 136.273C459.869 136.645 459.309 137.186 458.914 137.843C457.995 139.637 457.516 141.624 457.516 143.639C457.516 145.655 457.995 147.641 458.914 149.435C459.332 150.091 459.912 150.628 460.599 150.994C461.286 151.359 462.056 151.54 462.834 151.519L462.834 151.497ZM462.733 125.327C457.28 125.327 452.92 127.006 449.766 130.329C446.612 133.652 445.091 138.068 445.091 143.622C445.091 149.176 446.679 153.761 449.822 156.972C452.965 160.182 457.404 161.917 462.947 161.917C468.489 161.917 472.669 160.194 475.8 156.791C478.932 153.389 480.419 148.906 480.419 143.352C480.419 137.798 478.808 133.517 475.631 130.262C472.455 127.006 468.072 125.327 462.733 125.327ZM462.834 147.858C462.656 147.885 462.474 147.853 462.316 147.767C462.158 147.682 462.031 147.548 461.955 147.385C461.333 146.226 461.063 144.91 461.178 143.6C461.089 142.297 461.362 140.995 461.967 139.837C462.282 139.364 462.451 139.364 462.733 139.364C463.194 139.364 464.287 139.364 464.287 143.6C464.287 146.416 463.803 147.847 462.834 147.847L462.834 147.858Z" fill="white"/>
<path d="M495.898 119.864C496.957 119.864 497.486 120.562 497.486 121.959L497.486 148.725C497.486 150.618 497.858 151.564 498.613 151.564C498.881 151.569 499.147 151.527 499.401 151.44C499.699 151.361 500.006 151.324 500.314 151.328C501.97 151.328 502.803 152.319 502.803 154.279C502.803 156.882 501.677 158.177 499.424 158.177L495.132 157.839C494.264 157.772 493.34 157.727 492.349 157.727C491.464 157.73 490.58 157.787 489.702 157.895C488.113 158.087 487.111 158.177 486.694 158.177C486.228 158.192 485.764 158.107 485.334 157.926C484.905 157.745 484.519 157.473 484.204 157.129C483.544 156.375 483.201 155.394 483.247 154.392C483.247 152.274 484.17 151.215 486.018 151.215C486.338 151.234 486.654 151.302 486.953 151.418C487.252 151.531 487.568 151.595 487.888 151.609C488.53 151.609 488.845 150.562 488.845 148.444L488.845 129.597C488.845 127.49 488.53 126.431 487.888 126.431C487.536 126.445 487.188 126.521 486.863 126.657C486.57 126.742 486.266 126.78 485.962 126.769C484.148 126.769 483.247 125.733 483.247 123.66C483.191 122.643 483.535 121.645 484.204 120.877C484.541 120.533 484.947 120.264 485.396 120.089C485.844 119.914 486.325 119.837 486.806 119.864C487.114 119.864 487.756 119.92 488.733 120.033C489.689 120.163 490.652 120.238 491.617 120.258C492.374 120.272 493.13 120.196 493.87 120.033C494.545 119.935 495.226 119.879 495.909 119.864L495.898 119.864ZM495.909 116.09C495.064 116.105 494.221 116.172 493.385 116.292C493.257 116.309 493.129 116.331 493.002 116.36C492.543 116.454 492.074 116.495 491.605 116.484C490.787 116.463 489.971 116.396 489.161 116.281C488.376 116.174 487.587 116.11 486.795 116.09C485.801 116.063 484.812 116.244 483.893 116.622C482.973 117.001 482.143 117.568 481.455 118.286C480.11 119.746 479.394 121.676 479.461 123.66C479.461 127.513 481.624 130.115 485.094 130.498L485.094 147.498C481.658 147.903 479.461 150.517 479.461 154.392C479.412 156.346 480.113 158.245 481.422 159.698C482.089 160.425 482.903 161.002 483.81 161.39C484.717 161.779 485.696 161.97 486.682 161.951C487.836 161.913 488.987 161.811 490.13 161.647C490.877 161.55 491.629 161.501 492.383 161.5C493.25 161.5 494.073 161.5 494.839 161.602L495.729 161.624C499.221 161.895 499.221 161.895 499.401 161.895C503.761 161.895 506.577 158.887 506.577 154.223C506.577 150.044 504.031 147.948 501.26 147.565L501.26 121.903C501.26 117.87 498.477 116.033 495.898 116.033L495.909 116.09Z" fill="white"/>
<path d="M337.061 76.9464C337.074 76.2784 337.29 75.6302 337.68 75.0876C336.755 74.4337 335.648 74.0869 334.515 74.0963C333.648 74.0801 332.792 74.2771 332.02 74.67C331.248 75.0629 330.584 75.6396 330.087 76.3493C328.868 78.1235 328.267 80.2491 328.375 82.3988C328.27 84.6282 328.904 86.8298 330.177 88.6624C330.723 89.4126 331.443 90.0189 332.275 90.4291C333.107 90.8392 334.027 91.041 334.954 91.0169C336.97 91.0169 338.457 89.8903 339.46 87.7274C339.788 86.7744 340.293 85.8917 340.947 85.1251C341.72 84.5856 342.654 84.3272 343.594 84.3928C344.214 84.3684 344.833 84.4685 345.413 84.6871C345.994 84.9058 346.524 85.2386 346.974 85.6658C347.404 86.0868 347.741 86.5928 347.964 87.1514C348.187 87.7101 348.291 88.3091 348.27 88.9102C348.27 91.7266 346.907 94.1599 344.18 96.2327C341.354 98.3285 337.908 99.419 334.391 99.3307C329.517 99.3307 325.63 97.8287 322.731 94.8246C319.832 91.8205 318.386 87.8025 318.394 82.7706C318.394 77.6937 319.896 73.6644 322.9 70.6829C325.904 67.7013 329.915 66.1992 334.931 66.1767C338.132 66.0512 341.29 66.9511 343.944 68.7452C345.056 69.4558 345.97 70.4376 346.598 71.5983C347.227 72.759 347.55 74.0606 347.537 75.3805C347.567 76.1215 347.439 76.8603 347.161 77.5479C346.883 78.2354 346.462 78.856 345.926 79.3685C344.794 80.4016 343.301 80.9479 341.769 80.8893C340.545 80.9259 339.347 80.5267 338.39 79.7628C337.966 79.4282 337.625 78.9997 337.394 78.511C337.163 78.0223 337.049 77.4867 337.061 76.9464V76.9464Z" fill="white"/>
<path d="M379.081 99.3196C375.701 99.3196 373.448 97.9565 372.265 95.2303C369.513 97.9009 365.814 99.3715 361.98 99.3196C359.145 99.4656 356.358 98.5498 354.162 96.7511C353.201 95.895 352.443 94.8368 351.94 93.6525C351.438 92.4682 351.204 91.1872 351.255 89.9017C351.255 85.5533 353.133 82.7407 356.888 81.464C358.73 80.8748 360.613 80.4193 362.521 80.1009C364.595 79.8661 366.616 79.2914 368.503 78.3998C369.009 78.1003 369.423 77.668 369.701 77.1497C369.979 76.6314 370.11 76.0469 370.08 75.4595C370.068 75.0002 369.949 74.5499 369.732 74.1449C369.514 73.74 369.205 73.3915 368.829 73.1276C367.968 72.4702 366.905 72.1318 365.821 72.17C364.458 72.17 363.771 72.5981 363.771 73.4656C363.771 73.756 363.794 74.046 363.839 74.333V74.5808C363.841 75.1481 363.71 75.708 363.456 76.215C363.201 76.722 362.831 77.1617 362.374 77.4986C361.332 78.2827 360.05 78.6809 358.747 78.6251C357.243 78.6764 355.777 78.1434 354.657 77.1381C354.138 76.6705 353.725 76.0964 353.447 75.4549C353.169 74.8134 353.032 74.1195 353.046 73.4205C353.046 71.1674 354.226 69.41 356.584 68.1483C359.624 66.7281 362.965 66.0707 366.317 66.2332C370.778 66.2332 374.105 66.9129 376.298 68.2722C378.656 69.7743 379.832 72.5456 379.824 76.5861V89.4173C379.824 90.7354 380.151 91.4 380.816 91.4C381.129 91.4016 381.441 91.379 381.751 91.3324C381.89 91.2949 382.034 91.276 382.179 91.2761C383.075 91.2761 383.935 91.6322 384.568 92.266C385.202 92.8998 385.558 93.7594 385.558 94.6557C385.566 95.3277 385.403 95.9907 385.084 96.582C384.764 97.1733 384.3 97.6735 383.733 98.0353C382.355 98.9392 380.728 99.3883 379.081 99.3196V99.3196ZM370.068 86.049V84.6859C368.28 85.3016 366.46 85.8205 364.616 86.2405C362.363 86.815 361.236 87.705 361.236 88.8991C361.236 90.803 362.363 91.7605 364.616 91.7605C368.266 91.7605 370.091 89.8567 370.091 86.049H370.068Z" fill="white"/>
<path d="M400.53 75.5833V78.118L400.462 81.9595L400.338 86.1164C400.338 87.4795 400.282 88.0428 400.282 87.795C400.282 90.2283 401.059 91.4449 402.636 91.4449C404.213 91.4449 404.889 90.3184 404.889 88.1555C404.913 87.912 404.913 87.6667 404.889 87.4232V86.6459C404.853 86.4411 404.83 86.2341 404.822 86.0263C404.751 85.5662 404.789 85.0959 404.934 84.6535C405.079 84.2111 405.326 83.809 405.655 83.4799C405.984 83.1507 406.386 82.9038 406.829 82.759C407.271 82.6142 407.741 82.5758 408.201 82.6467C410.807 82.6467 412.11 84.7308 412.11 88.899C412.189 90.3091 411.97 91.72 411.467 93.0399C410.964 94.3597 410.19 95.5589 409.193 96.5594C406.95 98.5061 404.035 99.4968 401.07 99.3194C394.259 99.3194 390.853 95.722 390.853 88.5272C390.853 87.4007 390.853 85.6433 390.999 83.3226C391.146 81.0019 391.157 79.2783 391.157 78.118V76.1353C391.224 75.4724 391.128 74.803 390.875 74.1864C390.695 73.916 390.244 73.7808 389.546 73.7808H388.555C388.186 73.7896 387.82 73.7128 387.485 73.5565C387.151 73.4001 386.858 73.1684 386.628 72.8796C386.111 72.2195 385.848 71.3964 385.885 70.5589C385.861 69.6798 386.135 68.8186 386.662 68.1144C386.86 67.8086 387.13 67.5555 387.448 67.377C387.766 67.1984 388.122 67.0997 388.487 67.0892H389.67C390.661 67.0892 391.236 66.7963 391.405 66.2218C391.558 65.6761 391.623 65.1094 391.596 64.5432V61.5128C391.524 60.9609 391.588 60.3996 391.785 59.8788C391.981 59.358 392.304 58.8938 392.723 58.5275C394.02 57.8809 395.47 57.6042 396.913 57.7277C397.934 57.6243 398.962 57.8408 399.854 58.3473C400.167 58.7217 400.399 59.158 400.532 59.6277C400.666 60.0973 400.7 60.59 400.631 61.0735V64.4531C400.543 65.2208 400.659 65.9982 400.969 66.7062C401.194 66.9991 401.78 67.1455 402.738 67.1455H407.244C409.677 67.1455 410.905 68.2721 410.905 70.5251C410.905 72.7782 409.778 73.8146 407.525 73.8146H402.433C401.566 73.8146 401.059 73.9611 400.89 74.2427C400.662 74.6534 400.538 75.1137 400.53 75.5833V75.5833Z" fill="white"/>
<path d="M424.142 64.7347C425.472 64.7553 426.768 64.3127 427.808 63.4827C428.848 62.6527 429.567 61.487 429.842 60.1852C430.116 58.8835 429.93 57.5267 429.314 56.3473C428.698 55.1679 427.691 54.2394 426.466 53.7208C425.241 53.2022 423.874 53.1258 422.598 53.5046C421.323 53.8834 420.219 54.694 419.476 55.7974C418.732 56.9007 418.396 58.2283 418.524 59.5526C418.651 60.8768 419.236 62.1154 420.177 63.0561C420.689 63.5899 421.305 64.014 421.987 64.3025C422.669 64.5911 423.402 64.7381 424.142 64.7347V64.7347Z" fill="white"/>
<path d="M453.026 99.3194C447.904 99.3194 443.946 97.8736 441.152 94.9822C438.359 92.0907 436.965 88.0202 436.973 82.7705C436.973 77.5659 438.359 73.5066 441.13 70.5927C443.901 67.6787 447.784 66.2217 452.778 66.2217C457.701 66.2217 461.565 67.6637 464.404 70.5589C467.243 73.4541 468.651 77.4195 468.651 82.4551C468.651 87.7123 467.277 91.8429 464.528 94.847C461.779 97.8511 457.945 99.3419 453.026 99.3194ZM452.778 73.8371C451.914 73.8214 451.061 74.034 450.306 74.4533C449.55 74.8726 448.919 75.4839 448.475 76.2253C447.431 78.2533 446.887 80.5011 446.887 82.7818C446.887 85.0625 447.431 87.3103 448.475 89.3382C448.943 90.0832 449.598 90.6926 450.375 91.1057C451.151 91.5188 452.023 91.7212 452.902 91.6927C456.74 91.6927 458.663 88.7186 458.67 82.7705C458.678 76.8224 456.714 73.8446 452.778 73.8371Z" fill="white"/>
<path d="M273.896 91.0168C273.561 91.0032 273.226 91.0451 272.905 91.1407C272.608 91.2491 272.297 91.3099 271.981 91.321C271.192 91.321 270.798 90.2733 270.798 88.1554V56.8602C270.892 55.9413 270.687 55.0166 270.212 54.2241C269.929 53.9568 269.591 53.7548 269.221 53.6322C268.851 53.5096 268.459 53.4694 268.072 53.5144C267.576 53.5144 266.81 53.5144 265.819 53.6383C264.828 53.7622 263.994 53.7622 263.453 53.7622C262.912 53.7622 261.763 53.6833 260.074 53.5144C259.668 53.5144 258.947 53.4468 258.091 53.4468C255.286 53.4468 253.878 54.7761 253.878 57.4122C253.845 58.3119 254.133 59.1939 254.689 59.9018C254.919 60.2103 255.218 60.4606 255.562 60.6327C255.907 60.8049 256.286 60.8941 256.671 60.8932C257.217 60.8872 257.76 60.8038 258.282 60.6454C258.776 60.5782 259.272 60.5368 259.769 60.5214C260.795 60.5214 261.313 61.2649 261.313 62.7745V70.3336C259.005 68.0347 255.895 66.7219 252.638 66.6723C250.811 66.6248 248.998 67.0079 247.347 67.7907C245.695 68.5735 244.251 69.7341 243.13 71.1785C240.705 74.1826 239.495 78.0879 239.503 82.8945C239.338 87.1362 240.639 91.3053 243.187 94.7006C244.264 96.1732 245.678 97.3668 247.31 98.182C248.943 98.9973 250.746 99.4104 252.571 99.387C254.539 99.4674 256.491 98.9924 258.202 98.0163C259.913 97.0402 261.315 95.6023 262.248 93.867V96.12C262.248 97.6071 262.89 98.3731 264.163 98.3731L265.864 98.1365C266.751 98.0465 267.642 98.0051 268.534 98.0126C269.238 98.0016 269.942 98.043 270.64 98.1365L272.803 98.5083H273.175C273.655 98.5242 274.132 98.4227 274.564 98.2126C274.996 98.0026 275.37 97.6903 275.654 97.3029C276.307 96.3931 276.636 95.2903 276.589 94.1711C276.566 92.0645 275.676 91.0168 273.896 91.0168ZM259.251 89.0904C258.77 89.8232 258.113 90.4231 257.339 90.8346C256.565 91.2461 255.7 91.456 254.824 91.4449C254.035 91.4612 253.255 91.27 252.563 90.8905C251.871 90.5109 251.291 89.9562 250.881 89.2819C249.821 87.4816 249.316 85.4087 249.428 83.3226V82.5227C249.437 80.4467 250.005 78.4115 251.072 76.6309C251.455 75.9749 252.003 75.4302 252.661 75.0508C253.319 74.6714 254.064 74.4705 254.824 74.468C255.704 74.4345 256.578 74.6234 257.366 75.0172C258.153 75.411 258.829 75.997 259.33 76.721C260.516 78.5168 261.1 80.6434 260.997 82.7931C261.101 85.0262 260.485 87.2335 259.24 89.0904H259.251Z" fill="white"/>
<path d="M432.592 91.8167C432.211 91.8269 431.833 91.8798 431.465 91.9744C431.17 92.0555 430.869 92.1083 430.564 92.1321C429.786 92.1321 429.437 91.0732 429.437 88.9666V68.6213C429.437 67.0103 428.851 66.2105 427.702 66.2105C427.578 66.2105 426.959 66.2894 425.844 66.4583C424.941 66.6011 424.031 66.6839 423.117 66.7062C421.951 66.6828 420.788 66.5774 419.636 66.3907C418.98 66.2865 418.318 66.2263 417.654 66.2105C417.136 66.1866 416.619 66.2749 416.139 66.4693C415.659 66.6638 415.226 66.9598 414.871 67.337C414.14 68.1594 413.76 69.2348 413.812 70.3336C413.812 72.6543 414.804 73.8146 416.786 73.8146C417.12 73.8028 417.451 73.7613 417.778 73.6907C418.141 73.5463 418.519 73.4406 418.904 73.3753C419.614 73.3753 419.963 74.5581 419.963 76.9126V88.6286C419.963 90.938 419.591 92.0983 418.837 92.0983C418.688 92.0946 418.54 92.0719 418.397 92.0307L416.786 91.659C414.804 91.659 413.812 92.8418 413.812 95.1963C413.769 96.2768 414.149 97.3315 414.871 98.1366C415.217 98.5101 415.64 98.8042 416.111 98.9986C416.581 99.1931 417.089 99.2833 417.597 99.2631C418.296 99.2631 419.377 99.173 420.819 99.0153C421.91 98.8733 423.009 98.7906 424.109 98.7674C425.438 98.7875 426.766 98.8778 428.085 99.0378C429.978 99.2518 431.138 99.3532 431.555 99.3532C433.988 99.3532 435.205 97.9263 435.205 95.0724C435.171 92.8982 434.304 91.8167 432.592 91.8167Z" fill="white"/>
<path d="M509.195 91.8168C508.882 91.8046 508.57 91.8465 508.271 91.9408C507.969 92.0451 507.655 92.1095 507.336 92.1323C506.514 92.1323 506.097 91.0733 506.097 88.9667V78.8279C506.097 75.283 505.624 72.6807 504.677 71.021C502.897 67.7991 499.86 66.1881 495.564 66.1881C491.553 66.1881 487.96 68.0469 484.783 71.7645V68.7904C484.82 68.5591 484.802 68.3225 484.732 68.0992C484.661 67.8759 484.54 67.672 484.377 67.5037C484.214 67.3354 484.014 67.2073 483.793 67.1296C483.573 67.0518 483.337 67.0264 483.104 67.0555C482.98 67.0555 482.316 67.1344 481.122 67.3034C480.278 67.4319 479.428 67.5146 478.576 67.5512C478.034 67.5391 477.494 67.4749 476.965 67.3597C476.271 67.2074 475.567 67.1057 474.858 67.0555C474.354 67.0302 473.85 67.1182 473.384 67.3132C472.918 67.5081 472.502 67.8051 472.166 68.1821C471.462 69.0358 471.097 70.1184 471.14 71.2237C471.14 73.4768 472.132 74.6033 474.114 74.6033C474.498 74.5799 474.877 74.5041 475.241 74.378C475.552 74.2728 475.873 74.2011 476.199 74.164C476.897 74.164 477.246 75.2905 477.246 77.7013V88.5499C477.246 90.8593 476.897 92.0196 476.199 92.0196C475.877 91.9926 475.562 91.9166 475.264 91.7943C474.903 91.6593 474.522 91.5869 474.137 91.5803C472.154 91.5803 471.163 92.7068 471.163 95.05C471.163 97.8213 472.466 99.2069 475.072 99.2069C475.816 99.2069 476.92 99.1168 478.384 98.9591C479.483 98.8177 480.588 98.735 481.696 98.7113C482.828 98.7461 483.956 98.8476 485.076 99.0154C485.822 99.1272 486.574 99.1911 487.329 99.2069C489.514 99.2069 490.607 97.9039 490.607 95.2978C490.607 93.2701 489.863 92.1661 488.354 91.9182C487.603 91.7906 487.13 91.5315 486.934 91.1409C486.697 90.0311 486.614 88.8939 486.687 87.7613V80.5177C486.628 78.8913 487.215 77.3079 488.32 76.1129C488.856 75.5434 489.507 75.0943 490.229 74.7952C490.952 74.4961 491.729 74.3539 492.511 74.378C493.118 74.3194 493.73 74.4231 494.284 74.6784C494.839 74.9337 495.315 75.3316 495.665 75.8313C496.413 77.4068 496.735 79.1507 496.6 80.8894V90.3749C496.6 91.3212 496.037 91.8394 494.922 91.9182C493.232 92.0421 492.387 93.2025 492.387 95.388C492.387 97.9114 493.604 99.1731 496.037 99.1731C497.045 99.196 498.054 99.1508 499.056 99.038C500.141 98.8756 501.237 98.7928 502.334 98.7901C503.33 98.8141 504.323 98.8969 505.308 99.038C506.295 99.1724 507.287 99.2551 508.282 99.2858C510.761 99.2858 512 97.8588 512 95.0049C511.966 92.8983 511.065 91.8168 509.195 91.8168Z" fill="white"/>
<path d="M314.192 91.0168C313.834 90.9999 313.477 91.0417 313.133 91.1408C312.852 91.2262 312.559 91.268 312.265 91.2647C311.477 91.2647 311.101 90.2283 311.139 88.1554V68.4523C311.139 66.9653 310.486 66.1992 309.156 66.1992C308.474 66.2199 307.793 66.2801 307.117 66.3795C305.506 66.5935 304.616 66.6949 304.447 66.6949C303.617 66.6636 302.789 66.5808 301.969 66.4471C301.131 66.3055 300.284 66.2227 299.434 66.1992C297.114 66.1992 295.953 67.6224 295.953 70.4688C295.953 72.7219 296.719 73.7583 298.206 73.7583C298.531 73.7498 298.853 73.6967 299.164 73.6006C299.476 73.5135 299.798 73.4643 300.121 73.4541C301.079 73.4541 301.552 74.5018 301.552 76.6084V83.1311C301.552 83.3902 301.552 83.6042 301.552 83.8521C301.394 88.5948 299.558 90.9943 295.998 90.9943C293.554 90.9943 292.281 89.3834 292.157 86.1502V83.8971V78.1856L292.089 68.8466C292.089 67.1117 291.47 66.2443 290.23 66.2443C289.474 66.2676 288.721 66.3505 287.977 66.4921C287.233 66.6279 286.48 66.7107 285.724 66.74C284.969 66.7062 284.216 66.6234 283.471 66.4921C282.727 66.3553 281.974 66.2724 281.218 66.2443C278.702 66.2443 277.444 67.6262 277.444 70.3899C277.444 72.643 278.368 73.7696 280.227 73.7696C280.435 73.7762 280.643 73.7573 280.846 73.7132H281.466C281.635 73.6975 281.805 73.7231 281.962 73.7879C282.119 73.8526 282.258 73.9546 282.367 74.085C282.641 74.9 282.737 75.7644 282.649 76.6197V87.0965C282.649 90.8141 282.987 93.3713 283.674 94.7457C284.401 96.2115 285.588 97.3987 287.054 98.1253C288.66 98.9593 290.448 99.3848 292.258 99.3645C294.351 99.4259 296.427 98.9854 298.315 98.0799C300.202 97.1745 301.845 95.8303 303.107 94.1599V96.5707C303.107 97.9 303.704 98.5534 304.898 98.5534C305.576 98.5298 306.251 98.4469 306.914 98.3055C307.579 98.1699 308.253 98.087 308.931 98.0577C309.687 98.0845 310.44 98.1673 311.184 98.3055C311.927 98.4492 312.681 98.5321 313.437 98.5534C315.87 98.5534 317.087 97.1302 317.087 94.2838C316.851 92.087 315.961 91.0168 314.192 91.0168Z" fill="white"/>
<path d="M234.534 91.2308C234.534 90.7351 234.636 89.4959 234.85 87.5019C234.967 86.3792 235.028 85.2512 235.03 84.1223C235.03 80.8103 233.521 79.143 230.524 79.143C229.875 79.1091 229.226 79.2075 228.616 79.4321C228.006 79.6568 227.448 80.003 226.975 80.4498C226.525 80.9312 226.178 81.4989 225.953 82.1185C225.728 82.738 225.632 83.3967 225.669 84.0547C225.683 84.7344 225.747 85.4121 225.86 86.0825C225.972 86.7679 226.033 87.4608 226.04 88.1553C226.07 88.6758 225.933 89.1921 225.649 89.6296C225.366 90.067 224.95 90.4029 224.463 90.5886C222.663 91.1428 220.779 91.3717 218.898 91.2646H215.293C214.265 91.379 213.231 91.1014 212.398 90.4872C211.778 89.6356 211.501 88.5822 211.621 87.5357V82.0157C211.621 80.6864 212.218 80.0217 213.423 80.0217C215.203 80.0217 216.093 80.5174 216.093 81.52C216.014 82.3086 215.969 82.8043 215.969 83.007V83.2661C215.969 85.3728 217.006 86.4317 219.078 86.4317C221.151 86.4317 222.379 85.215 222.379 82.7592C222.379 82.1058 222.289 80.9455 222.131 79.2895C221.974 77.6334 221.883 76.2591 221.883 75.1776C221.888 73.912 221.971 72.6479 222.131 71.3924C222.208 70.753 222.249 70.11 222.255 69.466C222.305 69.0383 222.255 68.6048 222.111 68.1993C221.966 67.7937 221.73 67.427 221.42 67.1274C221.111 66.8279 220.737 66.6035 220.327 66.4719C219.917 66.3402 219.482 66.3047 219.056 66.3681C217.028 66.3681 216.014 67.2355 216.014 68.9816C216.012 69.2942 216.031 69.6066 216.071 69.9167V70.7165C216.071 72.0458 215.158 72.7105 213.344 72.7105C212.556 72.7105 212.06 72.5302 211.88 72.181C211.659 71.682 211.562 71.137 211.598 70.5926V64.115C211.598 62.8307 211.914 62.0084 212.533 61.6366C213.409 61.3197 214.342 61.1929 215.271 61.2649H221.422C222.295 61.2286 223.169 61.2701 224.035 61.3888C224.443 61.4315 224.82 61.6296 225.086 61.9421C225.352 62.2545 225.488 62.6574 225.466 63.0673C225.43 63.7761 225.336 64.4807 225.184 65.1739C225.02 65.9145 224.926 66.6688 224.903 67.427C224.903 70.6189 226.457 72.2148 229.566 72.2148C230.796 72.2525 231.99 71.803 232.89 70.9643C233.319 70.5836 233.661 70.1148 233.892 69.5898C234.123 69.0649 234.239 68.4963 234.23 67.9227C234.203 66.9971 234.109 66.0747 233.949 65.1627C233.786 64.2244 233.692 63.2757 233.667 62.3238C233.667 61.6704 233.746 60.6903 233.881 59.4061C234.006 58.438 234.082 57.4641 234.106 56.4883C234.106 54.4493 232.98 53.4354 230.625 53.4354C228.676 53.4354 226.806 53.503 224.993 53.6269C223.866 53.7058 221.681 53.7959 218.233 53.8748L210.776 54.055C207.745 54.055 204.625 53.9311 201.392 53.6833C199.229 53.5255 197.798 53.4354 197.1 53.4354C194.069 53.4354 192.593 54.9563 192.593 57.9416C192.558 59.0058 192.91 60.0466 193.585 60.8706C193.878 61.2277 194.248 61.5144 194.668 61.7094C195.087 61.9044 195.545 62.0027 196.007 61.9971C196.502 62.0097 196.998 61.9643 197.483 61.8619C197.974 61.735 198.475 61.6521 198.981 61.6141C200.108 61.6141 200.592 62.9209 200.637 65.4894V68.4071C200.643 68.5009 200.643 68.5949 200.637 68.6887V86.7809C200.637 89.5973 200.074 91.0054 198.958 91.0054C198.476 90.9747 197.998 90.9031 197.528 90.7914C197.037 90.6675 196.535 90.592 196.029 90.5661C195.563 90.552 195.099 90.6464 194.675 90.8419C194.25 91.0373 193.877 91.3286 193.585 91.6926C192.92 92.5207 192.576 93.5606 192.616 94.6216C192.576 95.8351 193.013 97.016 193.833 97.9111C194.23 98.3416 194.715 98.6812 195.256 98.9068C195.796 99.1323 196.379 99.2385 196.964 99.2179H197.28C197.359 99.1838 197.442 99.1611 197.528 99.1503L202.248 98.7222C203.622 98.5983 205.335 98.5307 207.407 98.5307H212.95C219.574 98.6133 224.399 98.7598 227.426 98.9701C229.251 99.094 230.558 99.1503 231.346 99.1503C233.791 99.1503 235.008 98.1815 235.008 96.2326C235.011 95.4218 234.951 94.6119 234.827 93.8105C234.675 92.9576 234.578 92.096 234.534 91.2308V91.2308Z" fill="white"/>
<path d="M275.259 30.0372C275.379 31.2325 275.153 32.4373 274.605 33.5069C274.272 33.8389 273.868 34.0897 273.422 34.2401C272.977 34.3906 272.503 34.4365 272.037 34.3744H256.919C256.442 34.3195 255.96 34.3934 255.522 34.5884C255.33 34.7348 255.24 35.0953 255.24 35.7149C255.217 36.515 255.353 37.3117 255.641 38.0583C255.929 38.805 256.364 39.4867 256.919 40.0634C257.461 40.63 258.117 41.0771 258.842 41.3758C259.568 41.6746 260.348 41.8185 261.132 41.7982C262.867 41.7982 264.635 40.8407 266.46 38.9481C266.961 38.3442 267.585 37.8541 268.29 37.5102C268.995 37.1664 269.766 36.9768 270.55 36.9541C271.651 36.9077 272.728 37.2869 273.558 38.0131C273.927 38.3501 274.22 38.7634 274.414 39.2243C274.609 39.6853 274.701 40.1829 274.684 40.683C274.684 43.0712 273.37 45.1065 270.741 46.7888C267.857 48.5267 264.532 49.3951 261.166 49.2897C256.254 49.2897 252.33 47.7877 249.393 44.7836C246.457 41.7795 244.989 37.814 244.989 32.8873C244.989 27.8855 246.446 23.845 249.36 20.7658C250.831 19.2316 252.611 18.0266 254.582 17.2305C256.553 16.4343 258.67 16.0651 260.794 16.147C262.709 16.0534 264.624 16.3396 266.428 16.9892C268.231 17.6389 269.889 18.6391 271.305 19.9321C272.634 21.2462 273.673 22.8245 274.354 24.5652C275.035 26.3058 275.343 28.17 275.259 30.0372V30.0372ZM255.544 26.9392C255.539 27.1611 255.606 27.3788 255.736 27.5588C255.86 27.7165 256.299 27.8066 257.043 27.8066H263.982C264.372 27.8532 264.767 27.7743 265.109 27.5813C265.271 27.3605 265.347 27.0882 265.323 26.8153C265.315 26.2661 265.183 25.7259 264.935 25.2358C264.687 24.7458 264.33 24.3189 263.892 23.9877C262.952 23.1836 261.749 22.7544 260.512 22.7823C259.749 22.7687 258.993 22.9337 258.304 23.2643C257.616 23.5948 257.014 24.0817 256.547 24.6861C255.967 25.3017 255.613 26.0962 255.544 26.9392Z" fill="white"/>
<path d="M291.187 16.1472C294.103 16.0615 296.955 17.007 299.242 18.8171C299.411 17.0823 300.526 16.2148 302.622 16.2148C304.717 16.2148 305.776 16.9583 305.776 18.4679C305.768 19.0322 305.684 19.5929 305.528 20.1352C305.41 20.835 305.35 21.5434 305.348 22.2531C305.348 22.377 305.348 22.7037 305.348 23.2444V24.9117C305.412 25.3586 305.371 25.8142 305.228 26.2426C305.086 26.6709 304.845 27.0601 304.526 27.3793C304.207 27.6985 303.817 27.939 303.389 28.0817C302.961 28.2243 302.505 28.2652 302.058 28.2012C301.239 28.1635 300.441 27.9262 299.734 27.51C299.028 27.0938 298.433 26.5112 298.003 25.8129C297.45 24.9574 296.696 24.251 295.806 23.7559C294.916 23.2608 293.918 22.9923 292.9 22.974C290.5 22.974 289.306 23.7964 289.306 25.4524C289.279 25.8363 289.373 26.219 289.575 26.5465C289.777 26.874 290.077 27.1296 290.432 27.2774C292.454 27.92 294.527 28.3874 296.628 28.6743C298.708 28.9748 300.743 29.5271 302.689 30.3191C303.965 30.9186 305.063 31.8385 305.877 32.989C306.929 34.5219 307.473 36.3463 307.432 38.2048C307.456 39.7069 307.142 41.1953 306.515 42.5601C305.887 43.9249 304.961 45.1314 303.804 46.0906C301.276 48.2349 298.038 49.3596 294.725 49.2449C291.117 49.2575 287.614 48.0329 284.8 45.7752C284.8 47.8029 283.775 48.8168 281.702 48.8168C279.629 48.8168 278.322 47.9043 278.322 46.0906C278.322 45.6738 278.322 45.0316 278.446 44.1642C278.57 43.2968 278.57 42.6547 278.57 42.2491C278.57 41.8436 278.57 41.3141 278.48 40.5706C278.39 39.8271 278.39 39.275 278.39 38.9033C278.39 37.0332 279.516 36.1095 281.859 36.1095C282.733 36.0601 283.604 36.2305 284.394 36.6052C285.149 37.1016 285.784 37.7596 286.253 38.5315C286.975 39.7549 287.965 40.7988 289.148 41.5845C290.35 42.137 291.669 42.3846 292.99 42.3054C295.994 42.3054 297.496 41.3742 297.496 39.5116C297.496 38.2274 296.29 37.3374 293.902 36.853L290.309 36.0982C288.166 35.7258 286.075 35.1019 284.079 34.2394C282.827 33.5939 281.816 32.5631 281.195 31.2992C280.467 29.8703 280.103 28.2837 280.136 26.6804C280.069 25.2666 280.304 23.8548 280.827 22.5395C281.35 21.2242 282.147 20.0358 283.166 19.0537C285.351 17.0634 288.235 16.0185 291.187 16.1472V16.1472Z" fill="white"/>
<path d="M331.202 32.5722C330.742 32.5013 330.272 32.5398 329.829 32.6846C329.387 32.8293 328.985 33.0763 328.656 33.4054C328.327 33.7346 328.08 34.1367 327.935 34.5791C327.79 35.0215 327.752 35.4918 327.823 35.9519C327.831 36.1634 327.854 36.3741 327.89 36.5827V37.3826C327.913 37.6299 327.913 37.8788 327.89 38.1261C327.89 40.3115 327.147 41.4156 325.637 41.4156C324.127 41.4156 323.283 40.1876 323.283 37.7543C323.283 38.0022 323.283 37.4501 323.35 36.0758L323.474 31.9301V28.0886V25.2385C323.442 24.767 323.528 24.2949 323.722 23.8641C323.891 23.5825 324.409 23.436 325.277 23.436H330.357C332.61 23.436 333.737 22.3095 333.737 20.1465C333.737 17.9836 332.52 16.7669 330.076 16.7669H325.569C324.623 16.7669 324.037 16.6205 323.801 16.3276C323.491 15.6196 323.374 14.8422 323.463 14.0745V10.6949C323.532 10.2114 323.498 9.71876 323.364 9.24907C323.23 8.77938 322.999 8.34312 322.686 7.96867C321.793 7.46218 320.766 7.24565 319.745 7.34907C318.305 7.22353 316.858 7.50044 315.566 8.14892C315.147 8.51526 314.825 8.97946 314.628 9.50026C314.431 10.0211 314.367 10.5823 314.439 11.1342V14.1646C314.466 14.7308 314.401 15.2975 314.248 15.8432C314.09 16.4177 313.504 16.7106 312.513 16.7106H311.386C311.02 16.7192 310.661 16.8171 310.341 16.9958C310.021 17.1744 309.75 17.4284 309.55 17.7357C309.032 18.4438 308.763 19.3033 308.784 20.1803C308.747 21.0178 309.011 21.8409 309.528 22.501C309.756 22.7883 310.048 23.0191 310.38 23.1754C310.712 23.3317 311.076 23.4093 311.443 23.4022H312.434C313.144 23.4022 313.561 23.5374 313.775 23.8078C314.016 24.4274 314.108 25.0948 314.045 25.7567V28.0098C314.045 29.1363 314.045 30.8937 313.899 33.2144C313.752 35.535 313.741 37.2586 313.741 38.419C313.741 45.6063 317.15 49.1999 323.97 49.1999C326.932 49.3792 329.847 48.3927 332.092 46.4512C333.086 45.4493 333.859 44.2496 334.36 42.9299C334.86 41.6102 335.078 40.2 334.999 38.7907C335.134 34.6676 333.838 32.5722 331.202 32.5722Z" fill="white"/>
<path d="M244.267 4.62264C243.844 4.20598 243.34 3.88093 242.785 3.66774C242.231 3.45454 241.639 3.35777 241.045 3.38344C240.505 3.38344 239.119 3.50736 236.889 3.7552C235.595 3.91046 234.294 3.9932 232.991 4.00304C231.558 3.99124 230.128 3.88587 228.71 3.68761C227.59 3.52621 226.461 3.42468 225.33 3.38344C224.754 3.35828 224.179 3.45574 223.643 3.66935C223.107 3.88297 222.622 4.20789 222.221 4.62264C221.512 5.48732 221.103 6.5585 221.054 7.67558C221.005 8.79266 221.32 9.89545 221.951 10.8186C222.196 11.1845 222.528 11.484 222.917 11.6903C223.306 11.8967 223.741 12.0036 224.181 12.0015C224.613 11.9755 225.04 11.8999 225.454 11.7761C225.87 11.6593 226.296 11.5875 226.727 11.5621C227.797 11.5621 228.338 12.9477 228.338 15.719V36.1882L217.422 7.52911C217.05 6.54184 216.594 5.5883 216.059 4.67897C215.77 4.26071 215.38 3.92252 214.925 3.69596C214.47 3.46941 213.964 3.36188 213.457 3.38344C212.917 3.37679 212.378 3.41826 211.846 3.50736C210.719 3.63128 209.739 3.71014 208.872 3.7552C206.968 3.92418 205.627 4.00304 204.839 4.00304C203.534 3.97773 202.232 3.87238 200.941 3.68761C199.682 3.51494 198.415 3.41338 197.144 3.38344C196.551 3.35777 195.959 3.45454 195.404 3.66774C194.85 3.88093 194.346 4.20598 193.922 4.62264C193.176 5.46839 192.741 6.54399 192.69 7.67097C192.638 8.79796 192.974 9.90859 193.641 10.8186C193.918 11.1864 194.277 11.4847 194.69 11.69C195.102 11.8953 195.557 12.0019 196.018 12.0015C196.531 11.9797 197.041 11.9042 197.539 11.7761C198.015 11.6602 198.502 11.5886 198.992 11.5621C200.118 11.5621 200.67 12.9477 200.67 15.719V36.8529C200.67 39.658 200.107 41.0661 198.992 41.0661C198.501 41.0454 198.014 40.9737 197.539 40.8521C197.041 40.7267 196.531 40.655 196.018 40.638C195.56 40.6284 195.106 40.7251 194.691 40.9205C194.277 41.116 193.913 41.4049 193.63 41.7646C192.956 42.6024 192.605 43.6531 192.638 44.7274C192.638 47.7315 194.14 49.2335 197.144 49.2335C197.64 49.2335 198.789 49.1321 200.614 48.9294C202.053 48.7434 203.501 48.6381 204.951 48.6139C206.236 48.618 207.518 48.7007 208.793 48.8618C210.148 49.0629 211.513 49.187 212.882 49.2335C215.781 49.2335 217.227 47.7315 217.219 44.7274C217.256 43.6828 216.943 42.6558 216.329 41.8096C216.074 41.4524 215.735 41.163 215.343 40.9666C214.95 40.7703 214.515 40.6729 214.076 40.6831C213.627 40.7059 213.181 40.7777 212.747 40.8971C212.313 41.0166 211.867 41.0883 211.418 41.1112C210.291 41.1112 209.807 39.703 209.807 36.8979V14.1644L221.759 45.4033C222.105 46.3574 222.587 47.2565 223.19 48.0732C223.555 48.3874 223.979 48.6258 224.438 48.7747C224.896 48.9237 225.379 48.98 225.86 48.9406H227.223L230.253 48.8167C230.67 48.8167 231.301 48.8167 232.146 48.9068C232.991 48.997 233.622 48.997 234.038 48.997C236.291 48.997 237.418 47.6338 237.418 44.9076V15.674C237.393 14.8046 237.435 13.9347 237.542 13.0717C237.79 12.0353 238.331 11.517 239.153 11.517C239.636 11.5423 240.115 11.614 240.584 11.7311C241.07 11.8602 241.568 11.9357 242.071 11.9564C242.536 11.9577 242.996 11.8517 243.414 11.6466C243.832 11.4414 244.197 11.1427 244.481 10.7735C245.165 9.87221 245.514 8.76138 245.469 7.63111C245.424 6.50084 244.987 5.42141 244.234 4.57757L244.267 4.62264Z" fill="white"/>
</svg>
